SplineFontDB: 3.2
FontName: TDATextCondensed
FullName: TDAText Condensed
FamilyName: TDAText Condensed
Weight: Regular
Copyright: Copyright (c) 2024-2025 Dmitry Tretyakov\n\nBased on Philips SAA52XX/SAA55XX/TDA93XX IC character set:\nCopyright (c) 1985-2001 NXP Semiconductors N.V.

StartChar: exclam
Encoding: 33 33 4
Width: 450
Flags: W
HStem: 0 100<212 288> 680 20G<212 288>
VStem: 212 76<0 100 200 700>
LayerCount: 2
Back
Fore
SplineSet
212 700 m 29
 288 700 l 25
 288 200 l 25
 212 200 l 25
 212 700 l 29
288 0 m 25
 212 0 l 1
 212 100 l 25
 288 100 l 1
 288 0 l 25
EndSplineSet
Validated: 1
EndChar

StartChar: asterisk
Encoding: 42 42 5
Width: 450
Flags: W
HStem: 0 21G<212 288> 100 100<62 100 400 438> 300 100<175 212 288 325> 500 100<62 100 400 438> 680 20G<212 288>
VStem: 62 76<100 200 500 600> 100 75<200 300 400 500> 212 76<0 300 400 700> 325 75<200 300 400 500> 362 76<100 200 500 600>
LayerCount: 2
Back
Fore
SplineSet
62 600 m 29xfd
 138 600 l 25
 138 500 l 25xfd
 174 500 l 25
 175 400 l 25
 212 400 l 25
 212 700 l 25
 288 700 l 25
 288 400 l 25
 325 400 l 25
 325 500 l 25xfb80
 362 500 l 25
 362 600 l 25
 438 600 l 25
 438 500 l 25xf940
 400 500 l 25
 400 400 l 25xf980
 362 400 l 25
 362 300 l 25xf940
 400 300 l 25
 400 200 l 25xf980
 438 200 l 25
 438 100 l 25
 362 100 l 25
 362 200 l 25xf940
 325 200 l 25
 325 300 l 25
 288 300 l 25
 288 0 l 25
 212 0 l 25
 212 300 l 25
 175 300 l 25
 175 200 l 25xfb80
 138 200 l 25
 138 100 l 25
 62 100 l 25
 62 200 l 25xfd
 100 200 l 25
 100 300 l 25xfb
 138 300 l 25
 138 400 l 25xfd
 100 400 l 25
 100 500 l 25xfb
 62 500 l 25
 62 600 l 29xfd
EndSplineSet
Validated: 1
EndChar

StartChar: plus
Encoding: 43 43 6
Width: 450
Flags: W
HStem: 250 100<100 212 288 400>
VStem: 212 76<50 250 350 550>
LayerCount: 2
Back
Fore
SplineSet
212 550 m 29
 288 550 l 25
 288 350 l 25
 400 350 l 25
 400 250 l 25
 288 250 l 25
 288 50 l 25
 212 50 l 25
 212 250 l 25
 100 250 l 25
 100 350 l 25
 212 350 l 25
 212 550 l 29
EndSplineSet
Validated: 1
EndChar

StartChar: comma
Encoding: 44 44 7
Width: 450
Flags: W
HStem: -200 300<119 157>
VStem: 194 75<-200 -100> 231 75<-100 0>
LayerCount: 2
Back
Fore
SplineSet
194 -100 m 5xc0
 231 -100 l 29
 231 0 l 5xa0
 194 0 l 29
 194 100 l 29xc0
 306 100 l 29
 306 -100 l 29xa0
 269 -100 l 29
 269 -200 l 29
 194 -200 l 29
 194 -100 l 5xc0
EndSplineSet
Validated: 1
EndChar

StartChar: hyphen
Encoding: 45 45 8
Width: 450
Flags: W
HStem: 250 100<100 400>
VStem: 100 300<250 350>
LayerCount: 2
Back
Fore
SplineSet
100 250 m 29
 100 350 l 25
 400 350 l 25
 400 250 l 25
 100 250 l 29
EndSplineSet
Validated: 1
EndChar

StartChar: period
Encoding: 46 46 9
Width: 450
Flags: W
HStem: 0 100<212 288>
VStem: 212 76<0 100>
LayerCount: 2
Back
Fore
SplineSet
288 0 m 29
 212 0 l 29
 212 100 l 29
 288 100 l 29
 288 0 l 29
EndSplineSet
Validated: 1
EndChar

StartChar: slash
Encoding: 47 47 10
Width: 450
Flags: W
HStem: 0 100<100 138> 600 100<362 400>
VStem: 100 75<0 100> 138 74<100 200> 175 75<200 300> 212 76<300 400> 250 75<400 500> 288 74<500 600> 325 75<600 700>
LayerCount: 2
Back
Fore
SplineSet
325 700 m 29xc080
 400 700 l 25
 400 600 l 25xc080
 362 600 l 25
 362 500 l 25xc1
 325 500 l 25
 325 400 l 25xc2
 288 400 l 25
 288 300 l 25xc4
 250 300 l 25
 250 200 l 25xc8
 212 200 l 25
 212 100 l 25xd0
 175 100 l 25
 175 0 l 25
 100 0 l 25
 100 100 l 25xe0
 138 100 l 25
 138 200 l 25xd0
 175 200 l 25
 175 300 l 25xc8
 212 300 l 25
 212 400 l 25xc4
 250 400 l 25
 250 500 l 25xc2
 288 500 l 25
 288 600 l 25xc1
 325 600 l 25
 325 700 l 29xc080
EndSplineSet
Validated: 1
EndChar

StartChar: zero
Encoding: 48 48 11
Width: 450
Flags: W
HStem: 0 100<194 306> 600 100<194 306>
VStem: 81 113<100 600> 119 262<0 100 600 700> 306 113<100 600>
LayerCount: 2
Back
Fore
SplineSet
306 600 m 29xe8
 194 600 l 25
 194 100 l 25
 306 100 l 25
 306 600 l 29xe8
119 700 m 25xd0
 381 700 l 25
 381 600 l 25xd0
 419 600 l 25
 419 100 l 25xc8
 381 100 l 25
 381 0 l 25
 119 0 l 25
 119 100 l 25xd0
 81 100 l 25
 81 600 l 25xe0
 119 600 l 25
 119 700 l 25xd0
EndSplineSet
Validated: 1
EndChar

StartChar: one
Encoding: 49 49 12
Width: 450
Flags: W
HStem: 0 21G<231 344> 500 100<156 231> 680 20G<231 344>
VStem: 156 188<500 600> 231 113<0 500 600 700>
LayerCount: 2
Back
Fore
SplineSet
156 500 m 29xf0
 156 600 l 29xf0
 231 600 l 29
 231 700 l 29
 344 700 l 29
 344 0 l 29
 231 0 l 29
 231 500 l 29xe8
 156 500 l 29xf0
EndSplineSet
Validated: 1
EndChar

StartChar: two
Encoding: 50 50 13
Width: 450
Flags: W
HStem: 0 100<81 119 269 419> 500 100<81 119> 600 100<156 306>
VStem: 81 75<500 600> 119 150<100 200> 194 150<200 300> 269 112<300 400> 306 113<400 600>
LayerCount: 2
Back
Fore
SplineSet
156 500 m 29xd1
 81 500 l 1
 81 600 l 25xd1
 119 600 l 25xc8
 119 700 l 25xa8
 381 700 l 25
 381 600 l 25xa2
 419 600 l 25
 419 400 l 25xa1
 381 400 l 25
 381 300 l 25xa2
 344 300 l 25
 344 200 l 25xa4
 269 200 l 25
 269 100 l 25xa8
 419 100 l 25
 419 0 l 25
 81 0 l 25
 81 100 l 25xb1
 119 100 l 25
 119 200 l 25xa8
 194 200 l 25
 194 300 l 25xa4
 269 300 l 25
 269 400 l 25xa2
 306 400 l 25
 306 600 l 25
 156 600 l 1xb1
 156 500 l 29xd1
EndSplineSet
Validated: 1
EndChar

StartChar: three
Encoding: 51 51 14
Width: 450
Flags: W
HStem: 0 100<81 344> 300 100<194 269> 600 100<81 306 381 419>
VStem: 269 75<400 500> 306 75<500 600> 344 75<100 300>
CounterMasks: 1 e0
LayerCount: 2
Back
Fore
SplineSet
81 700 m 29xe8
 419 700 l 25
 419 600 l 25xe4
 381 600 l 25
 381 500 l 25xe8
 344 500 l 25
 344 400 l 25xf0
 419 400 l 25
 419 100 l 25xe4
 381 100 l 25
 381 0 l 25xe8
 81 0 l 25
 81 100 l 25
 344 100 l 25
 344 300 l 25xe4
 194 300 l 25
 194 400 l 25
 269 400 l 25
 269 500 l 25xf0
 306 500 l 25
 306 600 l 25
 81 601 l 25
 81 700 l 29xe8
EndSplineSet
Validated: 1
EndChar

StartChar: four
Encoding: 52 52 15
Width: 450
Flags: W
HStem: 0 21G<306 419> 100 100<194 306> 600 100<381 419>
VStem: 81 113<200 300> 119 112<300 400> 194 112<400 500> 231 150<500 600> 306 113<0 100 200 300 600 700>
LayerCount: 2
Back
Fore
SplineSet
306 700 m 29xe1
 419 700 l 25
 419 600 l 25xe1
 381 600 l 25
 381 500 l 25xe2
 306 500 l 25
 306 400 l 25xe4
 231 400 l 25
 231 300 l 25xe8
 194 300 l 25
 194 200 l 25
 306 200 l 25
 306 300 l 25
 419 300 l 25
 419 0 l 25
 306 0 l 25
 306 100 l 25
 81 100 l 25
 81 300 l 25xf1
 119 300 l 25
 119 400 l 25xe8
 194 400 l 25
 194 500 l 25xe4
 231 500 l 25
 231 600 l 25xe2
 306 600 l 25
 306 700 l 29xe1
EndSplineSet
Validated: 1
EndChar

StartChar: five
Encoding: 53 53 16
Width: 450
Flags: W
HStem: 0 100<156 306> 100 100<81 119> 300 100<156 306> 600 100<156 381>
VStem: 81 300<300 400 600 700> 81 75<100 200 400 600> 306 113<100 300>
LayerCount: 2
Back
Fore
SplineSet
381 700 m 29xb8
 381 600 l 25xb8
 156 600 l 25
 156 400 l 25xb4
 381 400 l 25
 381 300 l 25xb8
 419 300 l 25
 419 100 l 25x72
 381 100 l 25x78
 381 0 l 25
 119 0 l 25xb8
 119 100 l 25
 81 100 l 25
 81 200 l 25
 156 200 l 25x74
 156 100 l 25
 306 100 l 25
 306 300 l 25xb6
 81 300 l 25
 81 700 l 25
 381 700 l 29xb8
EndSplineSet
Validated: 1
EndChar

StartChar: six
Encoding: 54 54 17
Width: 450
Flags: W
HStem: 0 100<193 344> 300 100<231 344> 680 20G<194 306>
VStem: 81 112<100 300> 119 112<400 500> 156 113<500 600> 194 112<600 700> 344 75<100 300>
LayerCount: 2
Back
Fore
SplineSet
344 300 m 29xf1
 193 300 l 25
 193 100 l 25
 344 100 l 25
 344 300 l 29xf1
306 700 m 25xe3
 306 600 l 25xe3
 269 600 l 25
 269 500 l 25xe5
 231 500 l 25
 231 400 l 25
 381 400 l 25
 381 300 l 25
 419 300 l 25
 419 100 l 25
 381 100 l 25
 381 0 l 25
 119 0 l 25
 119 100 l 25xe9
 81 100 l 25
 81 400 l 25xf1
 119 400 l 25
 119 500 l 25xe9
 156 500 l 25
 156 600 l 25xe5
 194 600 l 25
 194 700 l 25
 306 700 l 25xe3
EndSplineSet
Validated: 1
EndChar

StartChar: seven
Encoding: 55 55 18
Width: 450
Flags: W
HStem: 0 100<100 138> 600 100<62 288 400 438>
VStem: 100 112<0 100> 138 112<100 200> 175 113<200 300> 212 113<300 400> 250 112<400 500> 288 112<500 600>
LayerCount: 2
Back
Fore
SplineSet
62 700 m 1xc1
 438 700 l 25
 438 600 l 25
 400 600 l 25
 400 500 l 25xc1
 362 500 l 25
 362 400 l 25xc2
 325 400 l 25
 325 300 l 25xc4
 288 300 l 25
 288 200 l 25xc8
 250 200 l 25
 250 100 l 25xd0
 212 100 l 25
 212 0 l 25
 100 0 l 25
 100 100 l 25xe0
 138 100 l 25
 138 200 l 25xd0
 175 200 l 25
 175 300 l 25xc8
 212 300 l 25
 212 400 l 25xc4
 250 400 l 25
 250 500 l 25xc2
 288 500 l 25
 288 600 l 1
 62 600 l 25
 62 700 l 1xc1
EndSplineSet
Validated: 1
EndChar

StartChar: eight
Encoding: 56 56 19
Width: 450
Flags: W
HStem: 0 100<194 306> 300 100<194 306> 600 100<194 306>
VStem: 81 113<100 300 400 600> 119 262<0 100 600 700> 306 113<100 300 400 600>
CounterMasks: 1 e0
LayerCount: 2
Back
Fore
SplineSet
194 100 m 29xf4
 306 100 l 25
 306 300 l 25
 194 300 l 25
 194 100 l 29xf4
194 600 m 25
 194 400 l 25
 306 400 l 25
 306 600 l 25
 194 600 l 25
119 700 m 25xe8
 381 700 l 25
 381 600 l 25xe8
 419 600 l 25
 419 400 l 25
 344 400 l 25
 344 300 l 25
 419 300 l 25
 419 100 l 25xe4
 381 100 l 25
 381 0 l 25
 119 0 l 25
 119 100 l 25xe8
 81 100 l 25
 81 300 l 25
 156 300 l 25
 156 400 l 25
 81 400 l 25
 81 600 l 25xf0
 119 600 l 25
 119 700 l 25xe8
EndSplineSet
Validated: 1
EndChar

StartChar: nine
Encoding: 57 57 20
Width: 450
Flags: W
HStem: 0 21G<194 306> 300 100<156 269> 600 100<156 306>
VStem: 81 75<400 600> 194 112<0 100> 231 113<100 200> 269 112<200 300> 306 113<400 600>
LayerCount: 2
Back
Fore
SplineSet
156 600 m 29xf1
 156 400 l 25
 306 400 l 25
 306 600 l 25
 156 600 l 29xf1
119 600 m 25
 119 700 l 25
 381 700 l 25
 381 600 l 25xf2
 419 600 l 25
 419 300 l 25xf1
 381 300 l 25
 381 200 l 25xf2
 344 200 l 25
 344 100 l 25xf4
 306 100 l 25
 306 0 l 25
 194 0 l 25
 194 100 l 25xf8
 231 100 l 25
 231 200 l 25xf4
 269 200 l 25
 269 300 l 25xf2
 119 300 l 25
 119 400 l 25
 81 400 l 25
 81 600 l 25
 119 600 l 25
EndSplineSet
Validated: 1
EndChar

StartChar: colon
Encoding: 58 58 21
Width: 450
Flags: W
HStem: 0 21G<212 288> 480 20G<212 287.1>
VStem: 212 76<0 200 300 500>
LayerCount: 2
Back
Fore
SplineSet
212 200 m 29
 288 200 l 25
 288 0 l 25
 212 0 l 25
 212 200 l 29
212 500 m 25
 287 500 l 25
 288 300 l 25
 212 300 l 25
 212 500 l 25
EndSplineSet
Validated: 1
EndChar

StartChar: semicolon
Encoding: 59 59 22
Width: 450
Flags: W
HStem: -200 21G<194 269> 480 20G<231 306>
VStem: 194 75<-200 -100> 231 75<-100 100 300 500>
LayerCount: 2
Back
Fore
SplineSet
231 100 m 1xd0
 306 100 l 25
 306 -100 l 1xd0
 269 -100 l 25
 269 -200 l 25
 194 -200 l 25
 194 -100 l 25xe0
 231 -100 l 25
 231 100 l 1xd0
231 500 m 25
 306 500 l 25
 306 300 l 25
 231 300 l 25
 231 500 l 25
EndSplineSet
Validated: 1
EndChar

StartChar: less
Encoding: 60 60 23
Width: 450
Flags: W
HStem: 0 100<344 419> 300 100<81 156> 600 100<344 419>
VStem: 81 113<300 400> 156 113<200 300 400 500> 231 113<100 200 500 600> 306 113<0 100 600 700>
CounterMasks: 1 e0
LayerCount: 2
Back
Fore
SplineSet
306 700 m 29xe2
 419 700 l 25
 419 600 l 25xe2
 344 600 l 25
 344 500 l 25xe4
 269 500 l 25
 269 400 l 25xe8
 194 400 l 25
 194 300 l 25xf0
 269 300 l 25
 269 200 l 25xe8
 344 200 l 25
 344 100 l 25xe4
 419 100 l 25
 419 0 l 25
 306 0 l 25
 306 100 l 25xe2
 231 100 l 25
 231 200 l 25xe4
 156 200 l 25
 156 300 l 25xe8
 81 300 l 25
 81 400 l 25xf0
 156 400 l 25
 156 500 l 25xe8
 231 500 l 25
 231 600 l 25xe4
 306 600 l 25
 306 700 l 29xe2
EndSplineSet
Validated: 1
EndChar

StartChar: equal
Encoding: 61 61 24
Width: 450
Flags: W
HStem: 200 100<100 400> 400 100<100 400>
VStem: 100 300<200 300 400 500>
LayerCount: 2
Back
Fore
SplineSet
100 500 m 29
 400 500 l 25
 400 400 l 25
 100 400 l 25
 100 500 l 29
100 300 m 25
 400 300 l 25
 400 200 l 25
 100 200 l 25
 100 300 l 25
EndSplineSet
Validated: 1
EndChar

StartChar: greater
Encoding: 62 62 25
Width: 450
Flags: W
HStem: 0 100<81 156> 300 100<344 419> 600 100<81 156>
VStem: 81 113<0 100 600 700> 156 113<100 200 500 600> 231 113<200 300 400 500> 306 113<300 400>
CounterMasks: 1 e0
LayerCount: 2
Back
Fore
SplineSet
81 600 m 29xf0
 81 700 l 25
 194 700 l 25
 194 600 l 25xf0
 269 600 l 25
 269 500 l 25xe8
 344 500 l 25
 344 400 l 25xe4
 419 400 l 25
 419 300 l 25xe2
 344 300 l 25
 344 200 l 25xe4
 269 200 l 25
 269 100 l 25xe8
 194 100 l 25
 194 0 l 25
 81 0 l 25
 81 100 l 25xf0
 156 100 l 25
 156 200 l 25xe8
 231 200 l 25
 231 300 l 25xe4
 306 300 l 25
 306 400 l 25xe2
 231 400 l 25
 231 500 l 25xe4
 156 500 l 25
 156 600 l 25xe8
 81 600 l 29xf0
EndSplineSet
Validated: 1
EndChar

StartChar: question
Encoding: 63 63 26
Width: 450
Flags: W
HStem: 0 100<231 306> 200 100<231 306> 300 100<306 344> 600 100<156 344>
VStem: 81 75<400 600> 231 75<0 100 200 300> 306 75<300 400> 344 75<400 600>
LayerCount: 2
Back
Fore
SplineSet
231 300 m 1xdc
 306 300 l 1
 306 200 l 1
 231 200 l 1
 231 300 l 1xdc
306 0 m 25
 231 0 l 1
 231 100 l 25
 306 100 l 1
 306 0 l 25
81 600 m 25
 119 600 l 25
 119 700 l 25
 381 700 l 25
 381 600 l 25xba
 419 600 l 25
 419 400 l 25xb9
 381 400 l 25
 381 300 l 25xba
 306 300 l 25xdc
 306 400 l 25xba
 344 400 l 25
 344 600 l 25
 156 600 l 25
 156 400 l 25
 81 400 l 25xb9
 81 600 l 25
EndSplineSet
Validated: 5
EndChar

StartChar: at
Encoding: 64 64 27
Width: 450
Flags: W
HStem: -100 100<175 400> 100 100<288 362> 400 100<288 362> 600 100<175 362>
VStem: 62 76<100 500> 100 75<0 100 500 600> 138 262<-100 0 600 700> 212 76<200 400> 250 188<100 200 400 500> 362 76<200 400 500 600>
LayerCount: 2
Back
Fore
SplineSet
288 400 m 29xf140
 288 200 l 25
 362 200 l 25
 362 400 l 25
 288 400 l 29xf140
138 600 m 25xf2
 138 700 l 25
 400 700 l 25
 400 600 l 25xf2
 438 600 l 25xf040
 438 100 l 25
 250 100 l 25
 250 200 l 25xf080
 212 200 l 25
 212 400 l 25xf1
 250 400 l 25
 250 500 l 25xf080
 362 500 l 25
 362 600 l 25
 175 600 l 25
 175 500 l 25xf440
 138 500 l 25
 138 100 l 25xf8
 175 100 l 25
 175 0 l 25xf4
 400 0 l 25
 400 -100 l 25
 138 -100 l 25
 138 0 l 25xf2
 100 0 l 25
 100 100 l 25xf4
 62 100 l 25
 62 500 l 25xf8
 100 500 l 25
 100 600 l 25xf4
 138 600 l 25xf2
EndSplineSet
Validated: 1
EndChar

StartChar: A
Encoding: 65 65 28
Width: 450
Flags: W
HStem: 0 21G<62 138 362 438> 200 100<138 362> 600 100<212 288>
VStem: 62 76<0 200 300 400> 100 75<400 500> 138 74<500 600> 288 74<500 600> 325 75<400 500> 362 76<0 200 300 400>
LayerCount: 2
Back
Fore
SplineSet
138 400 m 29xf0
 138 300 l 25
 362 300 l 25
 362 400 l 25xf080
 325 400 l 25
 325 500 l 25xe1
 288 500 l 25
 288 600 l 25
 212 600 l 25
 212 500 l 25xe6
 175 500 l 25
 175 400 l 25xe8
 138 400 l 29xf0
138 0 m 25
 62 0 l 25
 62 400 l 25xf080
 100 400 l 25
 100 500 l 25xe8
 138 500 l 25
 138 600 l 25xe4
 175 600 l 25
 175 700 l 25
 324 700 l 25
 325 600 l 25xe9
 362 600 l 25
 362 500 l 25xe2
 400 500 l 25
 400 400 l 25xe1
 438 400 l 25
 438 0 l 25
 362 0 l 25
 362 200 l 25
 138 200 l 25
 138 0 l 25
EndSplineSet
Validated: 1
EndChar

StartChar: B
Encoding: 66 66 29
Width: 450
Flags: W
HStem: 0 100<156 344> 300 100<156 344> 600 100<156 344>
VStem: 81 300<0 100 300 400 600 700> 81 75<100 300 400 600> 344 75<100 300 400 600>
CounterMasks: 1 e0
LayerCount: 2
Back
Fore
SplineSet
156 600 m 29xec
 156 400 l 25
 344 400 l 25
 344 600 l 25
 156 600 l 29xec
156 300 m 25
 156 100 l 25
 344 100 l 25
 344 300 l 25
 156 300 l 25
81 0 m 25xf0
 81 700 l 25
 381 700 l 25
 381 600 l 25xf0
 419 600 l 25
 419 400 l 25xe4
 381 400 l 25
 381 300 l 25xf0
 419 300 l 25
 419 100 l 25xe4
 381 100 l 25
 381 0 l 25
 81 0 l 25xf0
EndSplineSet
Validated: 1
EndChar

StartChar: C
Encoding: 67 67 30
Width: 450
Flags: W
HStem: 0 100<194 344> 100 100<381 419> 500 100<381 419> 600 100<194 344>
VStem: 81 75<200 500> 119 75<100 200 500 600> 156 225<0 100 600 700> 344 75<100 200 500 600>
LayerCount: 2
Back
Fore
SplineSet
156 700 m 29x12
 381 700 l 25x12
 381 600 l 25x22
 419 600 l 25
 419 500 l 25
 344 500 l 25x21
 344 600 l 25
 194 600 l 25x15
 194 500 l 25x25
 156 500 l 25
 156 200 l 25x68
 194 200 l 25x64
 194 100 l 25
 344 100 l 25x85
 344 200 l 25
 419 200 l 25
 419 100 l 25x45
 381 100 l 25x42
 381 0 l 25
 156 0 l 25x82
 156 100 l 25x42
 119 100 l 25
 119 200 l 25x44
 81 200 l 25
 81 500 l 25x68
 119 500 l 25x64
 119 600 l 25x14
 156 600 l 25
 156 700 l 29x12
EndSplineSet
Validated: 1
EndChar

StartChar: D
Encoding: 68 68 31
Width: 450
Flags: W
HStem: 0 100<156 306> 600 100<156 306>
VStem: 81 263<0 100 600 700> 81 75<100 600> 306 75<100 200 500 600> 344 75<200 500>
LayerCount: 2
Back
Fore
SplineSet
156 600 m 29xd8
 156 100 l 25
 306 100 l 25
 306 200 l 25xd8
 344 200 l 25
 344 500 l 25xc4
 306 500 l 25
 306 600 l 25
 156 600 l 29xd8
81 700 m 25xe0
 344 700 l 25
 344 600 l 25xe0
 381 600 l 25
 381 500 l 25xc8
 419 500 l 25
 419 200 l 25xc4
 381 200 l 25
 381 100 l 25xc8
 344 100 l 25
 344 0 l 25
 81 0 l 25
 81 700 l 25xe0
EndSplineSet
Validated: 1
EndChar

StartChar: E
Encoding: 69 69 32
Width: 450
Flags: W
HStem: 0 100<156 419> 300 100<156 344> 600 100<156 419>
VStem: 81 75<100 300 400 600>
CounterMasks: 1 e0
LayerCount: 2
Back
Fore
SplineSet
419 600 m 29
 156 600 l 25
 156 400 l 25
 344 400 l 25
 344 300 l 25
 156 300 l 25
 156 100 l 25
 419 100 l 25
 419 0 l 25
 81 0 l 25
 81 700 l 25
 419 700 l 25
 419 600 l 29
EndSplineSet
Validated: 1
EndChar

StartChar: F
Encoding: 70 70 33
Width: 450
Flags: W
HStem: 0 21G<81 156> 300 100<156 344> 600 100<156 419>
VStem: 81 75<0 300 400 600>
LayerCount: 2
Back
Fore
SplineSet
156 0 m 29
 81 0 l 25
 81 700 l 25
 419 700 l 25
 419 600 l 25
 156 600 l 25
 156 400 l 25
 344 400 l 25
 344 300 l 25
 156 300 l 25
 156 0 l 29
EndSplineSet
Validated: 1
EndChar

StartChar: G
Encoding: 71 71 34
Width: 450
Flags: W
HStem: 0 100<156 344> 200 100<231 344> 500 100<381 419> 600 100<156 344>
VStem: 81 75<100 600> 119 262<0 100 600 700> 231 188<200 300> 344 75<100 200 500 600>
LayerCount: 2
Back
Fore
SplineSet
344 600 m 29xd1
 156 600 l 25
 156 100 l 25
 344 100 l 25
 344 200 l 25xd9
 231 200 l 25
 231 300 l 25
 419 300 l 25xd2
 419 100 l 25xd1
 381 100 l 25
 381 0 l 25
 119 0 l 25
 119 100 l 25xd4
 81 100 l 25
 81 600 l 25xd8
 119 600 l 25
 119 700 l 25
 381 700 l 25xd4
 381 600 l 25xe4
 419 600 l 25
 419 500 l 25
 344 500 l 25xe1
 344 600 l 29xd1
EndSplineSet
Validated: 1
EndChar

StartChar: H
Encoding: 72 72 35
Width: 450
Flags: W
HStem: 0 21G<81 156 344 419> 300 100<156 344> 680 20G<81 156 344 419>
VStem: 81 75<0 300 400 700> 344 75<0 300 400 700>
LayerCount: 2
Back
Fore
SplineSet
81 700 m 29
 156 700 l 25
 156 400 l 25
 344 400 l 25
 344 700 l 25
 419 700 l 25
 419 0 l 25
 344 0 l 25
 344 300 l 25
 156 300 l 25
 156 0 l 25
 81 0 l 25
 81 700 l 29
EndSplineSet
Validated: 1
EndChar

StartChar: I
Encoding: 73 73 36
Width: 450
Flags: W
HStem: 0 100<100 212 288 400> 600 100<100 212 288 400>
VStem: 100 300<0 100 600 700> 212 76<100 600>
LayerCount: 2
Back
Fore
SplineSet
100 700 m 29xe0
 400 700 l 25
 400 600 l 25xe0
 288 600 l 25
 288 100 l 25xd0
 400 100 l 25
 400 0 l 25
 100 0 l 25
 100 100 l 25xe0
 212 100 l 25
 212 600 l 25xd0
 100 600 l 25
 100 700 l 29xe0
EndSplineSet
Validated: 1
EndChar

StartChar: J
Encoding: 74 74 37
Width: 450
Flags: W
HStem: 0 100<156 344> 100 100<81 119> 680 20G<344 419>
VStem: 81 75<100 200> 344 75<100 700>
LayerCount: 2
Back
Fore
SplineSet
344 700 m 29xb8
 419 700 l 25
 419 100 l 25
 381 100 l 25x78
 381 0 l 25
 119 0 l 25xb8
 119 100 l 25
 81 100 l 25
 81 200 l 25
 156 200 l 25x78
 156 100 l 25
 344 100 l 25
 344 700 l 29xb8
EndSplineSet
Validated: 1
EndChar

StartChar: K
Encoding: 75 75 38
Width: 450
Flags: W
HStem: 0 100<344 419> 200 100<231 269> 300 100<156 194> 400 100<231 269> 600 100<344 419>
VStem: 81 150<300 400> 81 75<0 300 400 700> 194 112<200 300 400 500> 269 75<100 200 500 600> 306 113<0 100 600 700>
LayerCount: 2
Back
Fore
SplineSet
81 700 m 29xab
 156 700 l 25
 156 400 l 25
 194 400 l 25xab
 194 500 l 25x9b
 269 500 l 25
 269 600 l 25x9880
 306 600 l 25
 306 700 l 25
 419 700 l 25
 419 600 l 25x9840
 344 600 l 25
 344 500 l 25x9880
 306 500 l 25
 306 400 l 25x99
 231 400 l 25
 231 300 l 25xdc
 306 300 l 25xa9
 306 200 l 25xc9
 344 200 l 25
 344 100 l 25xc880
 419 100 l 25
 419 0 l 25
 306 0 l 25
 306 100 l 25xc840
 269 100 l 25
 269 200 l 25xc880
 194 200 l 25xc9
 194 300 l 25
 156 300 l 25
 156 0 l 25
 81 0 l 25
 81 700 l 29xab
EndSplineSet
Validated: 1
EndChar

StartChar: L
Encoding: 76 76 39
Width: 450
Flags: W
HStem: 0 100<156 419> 680 20G<81 156>
VStem: 81 75<100 700>
LayerCount: 2
Back
Fore
SplineSet
81 700 m 29
 156 700 l 25
 156 100 l 25
 419 100 l 25
 419 0 l 25
 81 0 l 25
 81 700 l 29
EndSplineSet
Validated: 1
EndChar

StartChar: M
Encoding: 77 77 40
Width: 450
Flags: W
HStem: 0 21G<62 138 362 438> 680 20G<62 175 325 438>
VStem: 62 150<500 600> 62 113<600 700> 62 76<0 500> 175 150<400 500> 288 150<500 600> 325 113<600 700> 362 76<0 500>
LayerCount: 2
Back
Fore
SplineSet
138 0 m 29xcc
 62 0 l 25xcc
 62 700 l 25
 175 700 l 25
 175 600 l 25xd0
 212 600 l 25
 212 500 l 25
 288 500 l 25
 288 600 l 25xe2
 325 600 l 25
 325 700 l 25
 438 700 l 25xc1
 438 0 l 25
 362 0 l 25
 362 500 l 25
 325 500 l 25
 325 400 l 25xc480
 288 400 l 25
 288 300 l 25
 212 300 l 25
 212 400 l 25xe2
 175 400 l 25
 175 500 l 25
 138 500 l 25
 138 0 l 29xcc
EndSplineSet
Validated: 1
EndChar

StartChar: N
Encoding: 78 78 41
Width: 450
Flags: W
HStem: 0 21G<62 138 325 438> 680 20G<62 175 362 438>
VStem: 62 150<500 600> 62 113<600 700> 62 76<0 500> 175 75<400 500> 212 76<300 400> 250 75<200 300> 288 150<100 200> 325 113<0 100> 362 76<200 700>
LayerCount: 2
Back
Fore
SplineSet
62 700 m 29xd0
 175 700 l 25
 175 600 l 25xd0
 212 600 l 25
 212 500 l 25xe0
 250 500 l 25
 250 400 l 25xc4
 288 400 l 25
 288 300 l 25xc2
 325 300 l 25
 325 200 l 25
 362 200 l 25
 362 700 l 25
 438 700 l 25xc120
 438 0 l 25
 325 0 l 25
 325 100 l 25xc040
 288 100 l 25
 288 200 l 25xc080
 250 200 l 25
 250 300 l 25xc1
 212 300 l 25
 212 400 l 25xc2
 175 400 l 25
 175 500 l 25
 138 500 l 25
 138 0 l 25
 62 0 l 25xcc
 62 700 l 29xd0
EndSplineSet
Validated: 1
EndChar

StartChar: O
Encoding: 79 79 42
Width: 450
Flags: W
HStem: 0 100<175 325> 600 100<175 325>
VStem: 62 76<200 500> 100 75<100 200 500 600> 138 224<0 100 600 700> 325 75<100 200 500 600> 362 76<200 500>
LayerCount: 2
Back
Fore
SplineSet
325 100 m 29xd4
 325 200 l 25xd4
 362 200 l 25
 362 500 l 25xc2
 325 500 l 25
 325 600 l 25
 175 600 l 25
 175 500 l 25xd4
 138 500 l 25
 138 200 l 25xe0
 175 200 l 25
 175 100 l 25
 325 100 l 29xd4
362 0 m 25xc8
 138 0 l 25
 138 100 l 25xc8
 100 100 l 25
 100 200 l 25xd0
 62 200 l 25
 62 500 l 25xe0
 100 500 l 25
 100 600 l 25xd0
 138 600 l 25
 138 700 l 25
 362 700 l 25
 362 600 l 25xc8
 400 600 l 25
 400 500 l 25xc4
 438 500 l 25
 438 200 l 25xc2
 400 200 l 25
 400 100 l 25xc4
 362 100 l 25
 362 0 l 25xc8
EndSplineSet
Validated: 1
EndChar

StartChar: P
Encoding: 80 80 43
Width: 450
Flags: W
HStem: 0 21G<81 156> 300 100<156 344> 600 100<156 344>
VStem: 81 75<0 300 400 600> 344 75<400 600>
LayerCount: 2
Back
Fore
SplineSet
156 600 m 29
 156 400 l 25
 344 400 l 25
 344 600 l 25
 156 600 l 29
81 700 m 25
 381 700 l 25
 381 650 l 25
 419 650 l 25
 419 400 l 25
 381 400 l 25
 381 300 l 25
 156 300 l 25
 156 0 l 25
 81 0 l 25
 81 700 l 25
EndSplineSet
Validated: 1
EndChar

StartChar: Q
Encoding: 81 81 44
Width: 450
Flags: W
HStem: -200 100<362 438> 0 100<138 250> 600 100<138 362>
VStem: 62 76<100 600> 100 300<0 100 600 700> 250 75<100 200> 288 74<-100 0> 325 113<-200 -100> 362 76<100 600>
LayerCount: 2
Back
Fore
SplineSet
138 600 m 29xf480
 138 100 l 25
 250 100 l 25
 250 200 l 25
 325 200 l 25
 325 100 l 25
 362 100 l 25
 362 600 l 25
 138 600 l 29xf480
100 700 m 25xe8
 400 700 l 25
 400 600 l 25xe8
 438 600 l 25
 438 100 l 25xe080
 400 100 l 25
 400 0 l 25xe8
 362 0 l 25
 362 -100 l 25xe2
 438 -100 l 25
 438 -200 l 25
 325 -200 l 25
 325 -100 l 25xe1
 288 -100 l 25
 288 0 l 25xe2
 100 0 l 25
 100 100 l 25xe8
 62 100 l 25
 62 600 l 25xf0
 100 600 l 25
 100 700 l 25xe8
EndSplineSet
Validated: 1
EndChar

StartChar: R
Encoding: 82 82 45
Width: 450
Flags: W
HStem: 0 100<344 419> 300 100<156 231 306 344> 600 100<156 344>
VStem: 81 75<0 300 400 600> 231 75<200 300> 269 75<100 200> 306 113<0 100> 344 75<400 600>
CounterMasks: 1 e0
LayerCount: 2
Back
Fore
SplineSet
156 600 m 29xf1
 156 400 l 25
 344 400 l 25
 344 600 l 25
 156 600 l 29xf1
81 700 m 25
 381 700 l 25
 381 650 l 25
 419 650 l 25
 419 400 l 25
 381 400 l 25
 381 300 l 25
 306 300 l 25
 306 200 l 25xf9
 344 200 l 25
 344 100 l 25xf4
 419 100 l 25
 419 0 l 25
 306 0 l 25
 306 100 l 25xf2
 269 100 l 25
 269 200 l 25xf4
 231 200 l 25
 231 300 l 25xf8
 156 300 l 25
 156 0 l 25
 81 0 l 25
 81 700 l 25
EndSplineSet
Validated: 1
EndChar

StartChar: S
Encoding: 83 83 46
Width: 450
Flags: W
HStem: 0 100<119 344> 300 100<156 344> 600 100<156 381>
VStem: 81 75<400 600> 119 262<0 100 300 400 600 700> 344 75<100 300>
CounterMasks: 1 e0
LayerCount: 2
Back
Fore
SplineSet
119 600 m 29xe8
 119 700 l 25
 381 700 l 25
 381 600 l 25xe8
 156 600 l 25
 156 400 l 25xf0
 381 400 l 25
 381 300 l 25xe8
 419 300 l 25
 419 100 l 25xe4
 381 100 l 25
 381 0 l 25
 119 0 l 25
 119 100 l 25xe8
 344 100 l 25
 344 300 l 25xe4
 119 300 l 25
 119 400 l 25xe8
 81 400 l 25
 81 600 l 25xf0
 119 600 l 29xe8
EndSplineSet
Validated: 1
EndChar

StartChar: T
Encoding: 84 84 47
Width: 450
Flags: W
HStem: 0 21G<212 288> 600 100<62 212 288 438>
VStem: 212 76<0 600>
LayerCount: 2
Back
Fore
SplineSet
62 700 m 1
 438 700 l 5
 438 600 l 1
 288 600 l 1
 288 0 l 25
 212 0 l 25
 212 600 l 1
 62 600 l 1
 62 700 l 1
EndSplineSet
Validated: 1
EndChar

StartChar: U
Encoding: 85 85 48
Width: 450
Flags: W
HStem: 0 100<156 344> 680 20G<81 156 344 419>
VStem: 81 75<100 700> 344 75<100 700>
LayerCount: 2
Back
Fore
SplineSet
81 700 m 29
 156 700 l 25
 156 100 l 25
 344 100 l 25
 344 700 l 25
 419 700 l 25
 419 100 l 25
 381 100 l 25
 381 0 l 25
 119 0 l 25
 119 100 l 25
 81 100 l 25
 81 700 l 29
EndSplineSet
Validated: 1
EndChar

StartChar: V
Encoding: 86 86 49
Width: 450
Flags: W
HStem: 0 21G<212 288> 680 20G<62 138 362 438>
VStem: 62 76<500 700> 100 75<300 500> 138 74<200 300> 175 150<100 200> 288 74<200 300> 325 75<300 500> 362 76<500 700>
LayerCount: 2
Back
Fore
SplineSet
62 700 m 29xe0
 138 700 l 25
 138 500 l 25xe0
 175 500 l 25
 175 300 l 25xd0
 212 300 l 25
 212 200 l 25
 288 200 l 25
 288 300 l 25xca
 325 300 l 25
 325 500 l 25xc1
 362 500 l 25
 362 700 l 25
 438 700 l 25
 438 500 l 25xc080
 400 500 l 25
 400 300 l 25xc1
 362 300 l 25
 362 200 l 25xc2
 325 200 l 25
 325 100 l 25xc4
 288 100 l 25
 288 0 l 25
 212 0 l 25
 212 100 l 25xca
 175 100 l 25
 175 200 l 25xc4
 138 200 l 25
 138 300 l 25xc8
 100 300 l 25
 100 500 l 25xd0
 62 500 l 25
 62 700 l 29xe0
EndSplineSet
Validated: 1
EndChar

StartChar: W
Encoding: 87 87 50
Width: 450
Flags: W
HStem: 0 21G<100 175 325 400> 680 20G<62 138 362 438>
VStem: 62 76<200 700> 100 112<100 200> 100 75<0 100> 175 150<200 300> 288 112<100 200> 325 75<0 100> 362 76<200 700>
LayerCount: 2
Back
Fore
SplineSet
62 700 m 29xe0
 138 700 l 25
 138 200 l 25
 175 200 l 25
 175 300 l 25xe4
 212 300 l 25
 212 400 l 25
 288 400 l 25
 288 300 l 25xd2
 325 300 l 25
 325 200 l 25
 362 200 l 25
 362 700 l 25
 438 700 l 25
 438 200 l 25xc480
 400 200 l 25xc2
 400 0 l 25
 325 0 l 25
 325 100 l 25xc1
 288 100 l 25
 288 200 l 25
 212 200 l 25
 212 100 l 25xd2
 175 100 l 25
 175 0 l 25
 100 0 l 25xc8
 100 200 l 25xd0
 62 200 l 25
 62 700 l 29xe0
EndSplineSet
Validated: 1
EndChar

StartChar: X
Encoding: 88 88 51
Width: 450
Flags: W
HStem: 0 100<100 138 362 400> 600 100<100 138 362 400>
VStem: 100 75<0 100 600 700> 138 74<100 200 500 600> 175 150<200 300 400 500> 288 74<100 200 500 600> 325 75<0 100 600 700>
LayerCount: 2
Back
Fore
SplineSet
100 700 m 29xe0
 175 700 l 25
 175 600 l 25xe0
 212 600 l 25
 212 500 l 25
 288 500 l 25
 288 600 l 25xd4
 325 600 l 25
 325 700 l 25
 400 700 l 25
 400 600 l 25xc2
 362 600 l 25
 362 500 l 25xc4
 325 500 l 25
 325 400 l 25xc8
 288 400 l 25
 288 300 l 25xc4
 325 300 l 25
 325 200 l 25xc8
 362 200 l 25
 362 100 l 25xc4
 400 100 l 25
 400 0 l 25
 325 0 l 25
 325 100 l 25xc2
 288 100 l 25
 288 200 l 25
 212 200 l 25
 212 100 l 25xd4
 175 100 l 25
 175 0 l 25
 100 0 l 25
 100 100 l 25xe0
 138 100 l 25
 138 200 l 25xd0
 175 200 l 25
 175 300 l 25xc8
 212 300 l 25
 212 400 l 25xd0
 175 400 l 25
 175 500 l 25xc8
 138 500 l 25
 138 600 l 25xd0
 100 600 l 25
 100 700 l 29xe0
EndSplineSet
Validated: 1
EndChar

StartChar: Y
Encoding: 89 89 52
Width: 450
Flags: W
HStem: 0 21G<212 288> 600 100<62 100 400 438>
VStem: 62 76<600 700> 100 75<500 600> 138 74<400 500> 175 150<300 400> 288 74<400 500> 325 75<500 600> 362 76<600 700>
LayerCount: 2
Back
Fore
SplineSet
62 700 m 29xe0
 138 700 l 25
 138 600 l 25xe0
 175 600 l 25
 175 500 l 25xd0
 212 500 l 25
 212 400 l 25
 288 400 l 25
 288 500 l 25xca
 325 500 l 25
 325 600 l 25xc1
 362 600 l 25
 362 700 l 25
 438 700 l 25
 438 600 l 25xc080
 400 600 l 25
 400 500 l 25xc1
 362 500 l 25
 362 400 l 25xc2
 325 400 l 25
 325 300 l 25xc4
 288 300 l 25
 288 0 l 25
 212 0 l 25
 212 300 l 25xca
 175 300 l 25
 175 400 l 25xc4
 138 400 l 25
 138 500 l 25xc8
 100 500 l 25
 100 600 l 25xd0
 62 600 l 25
 62 700 l 29xe0
EndSplineSet
Validated: 1
EndChar

StartChar: Z
Encoding: 90 90 53
Width: 450
Flags: W
HStem: 0 100<100 138 212 400> 600 100<100 288 362 400>
VStem: 100 300<0 100 600 700> 138 74<100 200> 175 75<200 300> 212 76<300 400> 250 75<400 500> 288 74<500 600>
LayerCount: 2
Back
Fore
SplineSet
100 700 m 29xe0
 400 700 l 25
 400 600 l 25xe0
 362 600 l 25
 362 500 l 25xc1
 325 500 l 25
 325 400 l 25xc2
 288 400 l 25
 288 300 l 25xc4
 250 300 l 25
 250 200 l 25xc8
 212 200 l 25
 212 100 l 25xd0
 400 100 l 25
 400 0 l 25
 100 0 l 25
 100 100 l 25xe0
 138 100 l 25
 138 200 l 25xd0
 175 200 l 25
 175 300 l 25xc8
 212 300 l 25
 212 400 l 25xc4
 250 400 l 25
 250 500 l 25xc2
 288 500 l 25
 288 600 l 25xc1
 100 600 l 25
 100 700 l 29xe0
EndSplineSet
Validated: 1
EndChar

StartChar: a
Encoding: 97 97 54
Width: 450
Flags: W
HStem: 0 100<138 325 400 437> 100 100<62 100> 200 100<138 325> 400 100<100 325>
VStem: 62 76<100 200> 325 75<100 200 300 400>
LayerCount: 2
Back
Fore
SplineSet
138 200 m 29xbc
 138 100 l 25
 325 100 l 25
 325 200 l 25
 138 200 l 29xbc
100 500 m 25
 362 500 l 25
 362 400 l 25
 400 400 l 25
 400 100 l 25
 437 100 l 25
 438 0 l 25
 100 0 l 25xbc
 100 100 l 25
 62 100 l 25
 62 200 l 25
 100 200 l 25x5c
 100 300 l 25
 325 300 l 25
 325 400 l 25
 100 400 l 25
 100 500 l 25
EndSplineSet
Validated: 1
EndChar

StartChar: b
Encoding: 98 98 55
Width: 450
Flags: W
HStem: 0 100<156 344> 300 100<156 194> 400 100<194 344> 680 20G<81 156>
VStem: 81 113<300 400> 81 75<100 300 400 700> 194 187<400 500> 344 75<100 400>
LayerCount: 2
Back
Fore
SplineSet
344 400 m 29xb5
 194 400 l 25
 194 300 l 25xd9
 156 300 l 25xd4
 156 100 l 25
 344 100 l 25
 344 400 l 29xb5
81 700 m 25xb6
 156 700 l 25
 156 400 l 25xd6
 194 400 l 25xd8
 194 500 l 25
 381 500 l 25
 381 400 l 25xb2
 419 400 l 25
 419 100 l 25xb1
 381 100 l 25
 381 0 l 25
 81 0 l 25
 81 700 l 25xb6
EndSplineSet
Validated: 5
EndChar

StartChar: c
Encoding: 99 99 56
Width: 450
Flags: W
HStem: 0 100<194 419> 200 100<81 119> 400 100<194 419>
VStem: 81 75<200 300> 119 75<100 200 300 400> 156 263<0 100 400 500>
CounterMasks: 1 e0
LayerCount: 2
Back
Fore
SplineSet
156 500 m 29xe4
 419 500 l 25
 419 400 l 25xe4
 194 400 l 25
 194 300 l 25xe8
 156 300 l 25
 156 200 l 25xf0
 194 200 l 25
 194 100 l 25xe8
 419 100 l 25
 419 0 l 25
 156 0 l 25
 156 100 l 25xe4
 119 100 l 25
 119 200 l 25xe8
 81 200 l 25
 81 300 l 25xf0
 119 300 l 25
 119 400 l 25xe8
 156 400 l 25
 156 500 l 29xe4
EndSplineSet
Validated: 1
EndChar

StartChar: d
Encoding: 100 100 57
Width: 450
Flags: W
HStem: 0 100<156 344> 300 100<306 344> 400 100<156 306> 680 20G<344 419>
VStem: 81 75<100 400> 119 187<400 500> 306 113<300 400> 344 75<100 300 400 700>
LayerCount: 2
Back
Fore
SplineSet
156 100 m 29xb8
 344 100 l 25
 344 300 l 25xd9
 306 300 l 25xd2
 306 400 l 25xd4
 156 400 l 25
 156 100 l 29xb8
344 700 m 25
 419 700 l 25
 419 0 l 25
 119 0 l 25
 119 100 l 25xd5
 81 100 l 25
 81 400 l 25xb8
 119 400 l 25
 119 500 l 25
 306 500 l 25xb4
 306 400 l 25xd4
 344 400 l 25
 344 700 l 25
EndSplineSet
Validated: 5
EndChar

StartChar: e
Encoding: 101 101 58
Width: 450
Flags: W
HStem: 0 100<156 381> 200 100<156 344> 400 100<156 344>
VStem: 81 75<100 200 300 400> 119 262<0 100 400 500> 344 75<300 400>
CounterMasks: 1 e0
LayerCount: 2
Back
Fore
SplineSet
156 400 m 1xf4
 156 300 l 1
 344 300 l 1
 344 400 l 1
 156 400 l 1xf4
119 400 m 1xe8
 119 500 l 1
 381 500 l 1
 381 400 l 25xe8
 419 400 l 25
 419 200 l 1
 156 200 l 1
 156 100 l 1xf4
 381 100 l 1
 381 0 l 1
 119 0 l 1
 119 100 l 1xe8
 81 100 l 1
 81 400 l 5xf0
 119 400 l 1xe8
EndSplineSet
Validated: 1
EndChar

StartChar: f
Encoding: 102 102 59
Width: 450
Flags: W
HStem: 0 21G<156 231> 300 100<81 156 231 344> 600 100<231 419>
VStem: 156 75<0 300 400 600>
LayerCount: 2
Back
Fore
SplineSet
194 600 m 29
 194 700 l 25
 419 700 l 25
 419 600 l 25
 231 600 l 25
 231 400 l 25
 344 400 l 25
 344 300 l 25
 231 300 l 25
 231 0 l 25
 156 0 l 25
 156 300 l 25
 81 300 l 25
 81 400 l 25
 156 400 l 25
 156 600 l 25
 194 600 l 29
EndSplineSet
Validated: 1
EndChar

StartChar: g
Encoding: 103 103 60
Width: 450
Flags: W
HStem: -200 100<119 344> 0 100<156 306> 100 100<306 344> 300 100<306 344> 400 100<156 306>
VStem: 81 75<100 400> 119 187<0 100 400 498> 306 113<100 200 300 400> 344 75<-100 100 200 300 400 500>
LayerCount: 2
Back
Fore
SplineSet
156 400 m 29x8c
 156 100 l 25xcc
 306 100 l 25xca
 306 200 l 25xa1
 344 200 l 25
 344 300 l 25xb080
 306 300 l 25xb1
 306 400 l 25xb2
 156 400 l 29x8c
119 400 m 25xaa
 119 498 l 25xaa
 306 500 l 25xa9
 306 400 l 25
 344 400 l 25x9280
 344 500 l 25
 419 500 l 25
 419 -100 l 25
 381 -100 l 25
 381 -200 l 25
 119 -200 l 25
 119 -100 l 25
 344 -100 l 25
 344 100 l 25xaa80
 306 100 l 25
 306 0 l 25
 119 0 l 25xc280
 119 100 l 25xa280
 81 100 l 25
 81 400 l 25xac
 119 400 l 25xaa
EndSplineSet
Validated: 5
EndChar

StartChar: h
Encoding: 104 104 61
Width: 450
Flags: W
HStem: 0 21G<81 156 344 419> 300 100<156 194> 400 100<194 344> 680 20G<81 156>
VStem: 81 113<300 400> 81 75<0 300 400 700> 344 75<0 400>
LayerCount: 2
Back
Fore
SplineSet
81 700 m 29xd6
 156 700 l 25
 156 400 l 25xd6
 194 400 l 25xda
 194 500 l 25
 381 500 l 25
 381 400 l 25
 419 400 l 25
 419 0 l 25
 344 0 l 25
 344 400 l 25xba
 194 400 l 25
 194 300 l 25xda
 156 300 l 25
 156 0 l 25
 81 0 l 25
 81 700 l 29xd6
EndSplineSet
Validated: 5
EndChar

StartChar: i
Encoding: 105 105 62
Width: 450
Flags: W
HStem: 0 100<138 212 287 362> 480 20G<175 288> 600 100<175 288>
VStem: 175 113<400 500 600 700> 212 76<100 400>
LayerCount: 2
Back
Fore
SplineSet
175 500 m 1xf0
 288 500 l 25xf0
 287 100 l 25
 362 100 l 25
 362 0 l 25
 138 0 l 25
 138 100 l 25
 212 100 l 25
 212 400 l 1xe8
 175 400 l 29
 175 500 l 1xf0
175 700 m 25
 288 700 l 25
 288 600 l 25
 175 600 l 25
 175 700 l 25
EndSplineSet
Validated: 1
EndChar

StartChar: j
Encoding: 106 106 63
Width: 450
Flags: W
HStem: -200 100<156 344> -100 100<81 119> 400 100<306 344> 600 100<306 418>
VStem: 81 75<-100 0> 306 113<400 500 600 700> 344 75<-100 400>
LayerCount: 2
Back
Fore
SplineSet
306 400 m 29xbc
 306 500 l 25
 419 500 l 25xbc
 419 -100 l 25
 381 -100 l 25x7a
 381 -200 l 25
 119 -200 l 25xba
 119 -100 l 25
 81 -100 l 25
 81 0 l 25
 156 0 l 25x7a
 156 -100 l 25
 344 -100 l 25
 344 400 l 25xba
 306 400 l 29xbc
306 700 m 25
 418 700 l 25
 419 600 l 25
 306 600 l 25
 306 700 l 25
EndSplineSet
Validated: 1
EndChar

StartChar: k
Encoding: 107 107 64
Width: 450
Flags: W
HStem: 0 100<325 400> 200 100<175 250> 400 100<325 400> 680 20G<100 175>
VStem: 100 188<200 300> 100 75<0 200 300 700> 250 75<100 200 300 400> 288 112<0 100 400 500>
LayerCount: 2
Back
Fore
SplineSet
100 700 m 29xf6
 175 700 l 25
 175 300 l 25
 250 300 l 25
 250 400 l 25xf6
 288 400 l 25
 288 500 l 25
 400 500 l 25
 400 400 l 25xf1
 325 400 l 25
 325 300 l 25xf2
 288 300 l 25
 288 200 l 25xf8
 325 200 l 25
 325 100 l 25xf2
 400 100 l 25
 400 0 l 25
 288 0 l 25
 288 100 l 25xf1
 250 100 l 25
 250 200 l 25
 175 200 l 25
 175 0 l 25
 100 0 l 25
 100 700 l 29xf6
EndSplineSet
Validated: 1
EndChar

StartChar: l
Encoding: 108 108 65
Width: 450
Flags: W
HStem: 0 100<100 212 288 400> 650 100<138 212>
VStem: 138 150<650 750> 212 76<100 650>
LayerCount: 2
Back
Fore
SplineSet
138 750 m 29xe0
 288 750 l 25xe0
 288 100 l 25
 400 100 l 25
 400 0 l 25
 100 0 l 25
 100 100 l 25
 212 100 l 25
 212 650 l 25xd0
 138 650 l 25
 138 750 l 29xe0
EndSplineSet
Validated: 1
EndChar

StartChar: m
Encoding: 109 109 66
Width: 450
Flags: W
HStem: 0 21G<62 138 212 288 362 438> 400 100<138 212 288 362>
VStem: 62 76<0 400> 212 76<0 400> 362 76<0 400>
CounterMasks: 1 38
LayerCount: 2
Back
Fore
SplineSet
62 0 m 29
 62 500 l 25
 399 500 l 25
 400 400 l 25
 438 400 l 25
 438 0 l 25
 362 0 l 25
 362 400 l 25
 288 400 l 25
 288 0 l 25
 212 0 l 25
 212 400 l 25
 138 400 l 25
 138 0 l 25
 62 0 l 29
EndSplineSet
Validated: 1
EndChar

StartChar: n
Encoding: 110 110 67
Width: 450
Flags: W
HStem: 0 21G<81 156 344 419> 300 100<156 194> 400 100<194 344>
VStem: 81 113<300 400> 81 75<0 300 400 500> 344 75<0 400>
LayerCount: 2
Back
Fore
SplineSet
81 0 m 29xcc
 81 500 l 25
 156 500 l 25xac
 156 400 l 25xcc
 194 400 l 25xd4
 194 500 l 25
 381 500 l 25
 381 400 l 25
 419 400 l 25
 419 0 l 25
 344 0 l 25
 344 400 l 25xb4
 194 400 l 25
 194 300 l 25xd4
 156 300 l 25
 156 0 l 25
 81 0 l 29xcc
EndSplineSet
Validated: 5
EndChar

StartChar: o
Encoding: 111 111 68
Width: 450
Flags: W
HStem: 0 100<156 344> 400 100<156 344>
VStem: 81 75<100 400> 119 262<0 100 400 500> 344 75<100 400>
LayerCount: 2
Back
Fore
SplineSet
156 400 m 29xe8
 156 100 l 25
 344 100 l 25
 344 400 l 25
 156 400 l 29xe8
119 500 m 25xd0
 381 500 l 25
 381 400 l 25xd0
 419 400 l 25
 419 100 l 25xc8
 381 100 l 25
 381 0 l 25
 119 0 l 25
 119 100 l 25xd0
 81 100 l 25
 81 400 l 25xe0
 119 400 l 25
 119 500 l 25xd0
EndSplineSet
Validated: 1
EndChar

StartChar: p
Encoding: 112 112 69
Width: 450
Flags: W
HStem: -200 21G<81 156> 0 100<194 344> 100 100<156 194> 300 100<156 194> 400 100<194 344>
VStem: 81 113<100 200 300 400> 81 75<-200 100 200 300 400 500> 194 187<0 100 400 500> 344 75<100 400>
LayerCount: 2
Back
Fore
SplineSet
194 300 m 29x9480
 156 300 l 25
 156 200 l 25xb2
 194 200 l 25xb4
 194 100 l 25
 344 100 l 25
 344 400 l 25xcc80
 194 400 l 25
 194 300 l 29x9480
81 500 m 25xaa
 156 500 l 25xaa
 156 400 l 25x92
 194 400 l 25x94
 194 500 l 25
 381 500 l 25
 381 400 l 25x89
 419 400 l 25
 419 100 l 25xa880
 381 100 l 25xa9
 381 0 l 25
 194 0 l 25xc1
 194 100 l 25xc4
 156 100 l 25
 156 -200 l 25
 81 -200 l 25
 81 500 l 25xaa
EndSplineSet
Validated: 5
EndChar

StartChar: q
Encoding: 113 113 70
Width: 450
Flags: W
HStem: -200 21G<344 419> 0 100<156 306> 100 100<306 344> 300 100<306 344> 400 100<156 306>
VStem: 81 75<100 400> 119 187<0 100 400 500> 306 113<100 200 300 400> 344 75<-200 100 200 300 400 500>
LayerCount: 2
Back
Fore
SplineSet
156 400 m 29x8c
 156 100 l 25xcc
 306 100 l 25xca
 306 200 l 25xa1
 344 200 l 25
 344 300 l 25xb080
 306 300 l 25xb1
 306 400 l 25xb2
 156 400 l 29x8c
119 500 m 25xaa
 306 500 l 25xaa
 306 400 l 25
 344 400 l 25x9280
 344 500 l 25
 419 500 l 25
 419 -200 l 25
 344 -200 l 25
 344 100 l 25xaa80
 306 100 l 25
 306 0 l 25
 119 0 l 25xc280
 119 100 l 25xa280
 81 100 l 25
 81 400 l 25xac
 119 400 l 25
 119 500 l 25xaa
EndSplineSet
Validated: 5
EndChar

StartChar: r
Encoding: 114 114 71
Width: 450
Flags: W
HStem: 0 21G<81 156> 300 100<156 231> 400 100<231 419>
VStem: 81 150<300 400> 81 75<0 300 400 500> 231 188<400 500>
LayerCount: 2
Back
Fore
SplineSet
81 0 m 29xc8
 81 500 l 25
 156 500 l 25xa8
 156 400 l 25xc8
 231 400 l 25xd0
 231 500 l 25
 419 500 l 25
 419 400 l 25xa4
 231 400 l 25
 231 300 l 25xd0
 156 300 l 25
 156 0 l 25
 81 0 l 29xc8
EndSplineSet
Validated: 5
EndChar

StartChar: s
Encoding: 115 115 72
Width: 450
Flags: W
HStem: 0 100<119 344> 100 100<381 419> 200 100<156 344> 300 100<81 119> 400 100<156 381>
VStem: 81 75<300 400> 119 262<0 100 200 300 400 500> 344 75<100 200>
LayerCount: 2
Back
Fore
SplineSet
381 400 m 1x0a
 156 400 l 1
 156 300 l 1x2c
 381 300 l 1
 381 200 l 25x52
 419 200 l 25
 419 100 l 25x51
 381 100 l 25x52
 381 0 l 1
 119 0 l 5
 119 100 l 1x82
 344 100 l 1
 344 200 l 1xa1
 119 200 l 1xa2
 119 300 l 1x12
 81 300 l 1
 81 400 l 1x14
 119 400 l 1x12
 119 500 l 1
 381 500 l 1
 381 400 l 1x0a
EndSplineSet
Validated: 1
EndChar

StartChar: t
Encoding: 116 116 73
Width: 450
Flags: W
HStem: 0 100<231 419> 400 100<81 156 231 344> 680 20G<156 231>
VStem: 156 75<100 400 500 700>
LayerCount: 2
Back
Fore
SplineSet
156 700 m 25
 231 700 l 25
 231 500 l 1
 344 500 l 5
 344 400 l 1
 231 400 l 1
 231 100 l 25
 419 100 l 25
 419 0 l 25
 194 0 l 25
 194 100 l 25
 156 100 l 25
 156 400 l 25
 81 400 l 25
 81 500 l 25
 156 500 l 25
 156 700 l 25
EndSplineSet
Validated: 1
EndChar

StartChar: u
Encoding: 117 117 74
Width: 450
Flags: W
HStem: 0 100<156 306> 100 100<306 344> 480 20G<81 156 344 419>
VStem: 81 75<100 500> 306 113<100 200> 344 75<0 100 200 500>
LayerCount: 2
Back
Fore
SplineSet
81 500 m 29x78
 156 500 l 25
 156 100 l 25
 306 100 l 25xb8
 306 200 l 25x78
 344 200 l 25x74
 344 500 l 25
 419 500 l 25
 419 0 l 25
 344 0 l 25xb4
 344 100 l 25x74
 306 100 l 25
 306 0 l 25
 119 0 l 25xb8
 119 100 l 25
 81 100 l 25
 81 500 l 29x78
EndSplineSet
Validated: 5
EndChar

StartChar: v
Encoding: 118 118 75
Width: 450
Flags: W
HStem: 0 21G<212 288> 400 100<62 100 400 438>
VStem: 62 76<400 500> 100 75<300 400> 138 74<200 300> 175 150<100 200> 288 74<200 300> 325 75<300 400> 362 76<400 500>
LayerCount: 2
Back
Fore
SplineSet
62 500 m 29xe0
 138 500 l 25
 138 400 l 25xe0
 175 400 l 25
 175 300 l 25xd0
 212 300 l 25
 212 200 l 25
 288 200 l 25
 288 300 l 25xca
 325 300 l 25
 325 400 l 25xc1
 362 400 l 25
 362 500 l 25
 438 500 l 25
 438 400 l 25xc080
 400 400 l 25
 400 300 l 25xc1
 362 300 l 25
 362 200 l 25xc2
 325 200 l 25
 325 100 l 25xc4
 288 100 l 25
 288 0 l 25
 212 0 l 25
 212 100 l 25xca
 175 100 l 25
 175 200 l 25xc4
 138 200 l 25
 138 300 l 25xc8
 100 300 l 25
 100 400 l 25xd0
 62 400 l 25
 62 500 l 29xe0
EndSplineSet
Validated: 1
EndChar

StartChar: w
Encoding: 119 119 76
Width: 450
Flags: W
HStem: 0 100<175 212 288 325> 480 20G<62 138 362 438>
VStem: 62 76<200 500> 100 75<100 200> 212 76<100 400> 325 75<100 200> 362 76<200 500>
LayerCount: 2
Back
Fore
SplineSet
362 500 m 29xca
 438 500 l 25
 438 200 l 25xca
 400 200 l 25
 400 100 l 25xcc
 362 100 l 25
 362 0 l 25
 288 0 l 25
 288 100 l 25
 212 100 l 25
 212 0 l 25
 138 0 l 25
 138 100 l 25xea
 100 100 l 25
 100 200 l 25xd8
 62 200 l 25
 62 500 l 25
 138 500 l 25
 138 200 l 25xe8
 175 200 l 25
 175 100 l 25
 212 100 l 25
 212 400 l 25
 288 400 l 25
 288 100 l 25
 325 100 l 25
 325 200 l 25xdc
 362 200 l 25
 362 500 l 29xca
EndSplineSet
Validated: 5
EndChar

StartChar: x
Encoding: 120 120 77
Width: 450
Flags: W
HStem: 0 100<62 138 362 438> 200 100<212 288> 400 100<62 138 362 438>
VStem: 62 113<0 100 400 500> 138 74<100 200 300 400> 288 74<100 200 300 400> 325 113<0 100 400 500>
CounterMasks: 1 e0
LayerCount: 2
Back
Fore
SplineSet
62 500 m 29xf0
 175 500 l 25
 175 400 l 25xf0
 212 400 l 25
 212 300 l 25
 288 300 l 25
 288 400 l 25xec
 325 400 l 25
 325 500 l 25
 438 500 l 25
 438 400 l 25xe2
 362 400 l 25
 362 300 l 25xe4
 325 300 l 25
 325 200 l 25xe2
 362 200 l 25
 362 100 l 25xe4
 438 100 l 25
 438 0 l 25
 325 0 l 25
 325 100 l 25xe2
 288 100 l 25
 288 200 l 25
 212 200 l 25
 212 100 l 25xec
 175 100 l 25
 175 0 l 25
 62 0 l 25
 62 100 l 25xf0
 138 100 l 25
 138 200 l 25xe8
 175 200 l 25
 175 300 l 25xf0
 138 300 l 25
 138 400 l 25xe8
 62 400 l 25
 62 500 l 29xf0
EndSplineSet
Validated: 1
EndChar

StartChar: y
Encoding: 121 121 78
Width: 450
Flags: W
HStem: -200 100<81 156> 400 100<81 119 381 419>
VStem: 81 75<400 500> 119 75<300 400> 156 75<-100 0 200 300> 194 112<100 200> 194 75<0 100> 269 75<200 300> 306 75<300 400> 344 75<400 500>
LayerCount: 2
Back
Fore
SplineSet
81 500 m 29xe0
 156 500 l 25
 156 400 l 25xe0
 194 400 l 25
 194 300 l 25xd0
 231 300 l 25
 231 200 l 25
 269 200 l 25
 269 300 l 25xc9
 306 300 l 25
 306 400 l 25xc080
 344 400 l 25
 344 500 l 25
 419 500 l 25
 419 400 l 25xc040
 381 400 l 25
 381 300 l 25xc080
 344 300 l 25
 344 200 l 25xc1
 306 200 l 25
 306 100 l 25xc4
 269 100 l 25
 269 0 l 25xc2
 231 0 l 25
 231 -100 l 25xc8
 194 -100 l 25
 194 -200 l 25
 81 -200 l 25
 81 -100 l 25xe2
 156 -100 l 25
 156 0 l 25xc8
 194 0 l 25xc2
 194 200 l 25xc4
 156 200 l 25
 156 300 l 25xc8
 119 300 l 25
 119 400 l 25xd0
 81 400 l 25
 81 500 l 29xe0
EndSplineSet
Validated: 1
EndChar

StartChar: z
Encoding: 122 122 79
Width: 450
Flags: W
HStem: 0 100<100 175 250 400> 400 100<100 250 325 400>
VStem: 100 300<0 100 400 500> 175 75<100 200> 212 76<200 300> 250 75<300 400>
LayerCount: 2
Back
Fore
SplineSet
100 500 m 29xe0
 400 500 l 25
 400 400 l 25xe0
 325 400 l 25
 325 300 l 25xc4
 288 300 l 25
 288 200 l 25xc8
 250 200 l 25
 250 100 l 25xd0
 400 100 l 25
 400 0 l 25
 100 0 l 25
 100 100 l 25xe0
 175 100 l 25
 175 200 l 25xd0
 212 200 l 25
 212 300 l 25xc8
 250 300 l 25
 250 400 l 25xc4
 100 400 l 25
 100 500 l 29xe0
EndSplineSet
Validated: 1
EndChar

StartChar: edieresis
Encoding: 235 235 82
Width: 450
Flags: W
HStem: 0 100<156 381> 200 100<156 344> 400 100<156 344> 600 100<119 194 306 381>
VStem: 81 75<100 200 300 400> 119 75<600 700> 306 75<600 700> 344 75<300 400>
LayerCount: 2
Back
Fore
SplineSet
306 700 m 25xf2
 381 700 l 25
 381 600 l 25
 306 600 l 25
 306 700 l 25xf2
119 700 m 25xf4
 194 700 l 25
 194 600 l 25
 119 600 l 25
 119 700 l 25xf4
156 400 m 1xf9
 156 300 l 1
 344 300 l 1
 344 400 l 1
 156 400 l 1xf9
119 400 m 1xf4
 119 500 l 1
 381 500 l 1
 381 400 l 25xf6
 419 400 l 25
 419 200 l 1
 156 200 l 1
 156 100 l 1xf9
 381 100 l 1
 381 0 l 1
 119 0 l 1
 119 100 l 1xf6
 81 100 l 1
 81 400 l 5xf8
 119 400 l 1xf4
EndSplineSet
Validated: 1
EndChar

StartChar: uni0401
Encoding: 1025 1025 97
Width: 450
Flags: W
HStem: 0 100<156 419> 300 100<156 344> 500 100<156 419> 700 100<119 194 306 381>
VStem: 81 75<100 300 400 500> 119 75<700 800> 306 75<700 800>
LayerCount: 2
Back
Fore
SplineSet
306 700 m 25xf2
 306 800 l 25
 381 800 l 25
 381 700 l 25
 306 700 l 25xf2
119 700 m 25xf6
 119 800 l 25
 194 800 l 25
 194 700 l 25
 119 700 l 25xf6
419 500 m 1
 156 500 l 1
 156 400 l 1
 344 400 l 25
 344 300 l 25
 156 300 l 25
 156 100 l 25
 419 100 l 25
 419 0 l 25
 81 0 l 1
 81 600 l 1xfa
 419 600 l 1
 419 500 l 1
EndSplineSet
Validated: 1
EndChar

StartChar: uni0402
Encoding: 1026 1026 98
Width: 450
Flags: W
HStem: 0 100<269 381> 300 100<231 381> 600 100<44 156 231 344>
VStem: 156 75<0 300 400 600> 269 150<0 100> 381 75<100 300>
CounterMasks: 1 e0
LayerCount: 2
Back
Fore
SplineSet
156 0 m 29xf4
 156 600 l 25
 44 600 l 25
 44 700 l 25
 344 700 l 25
 344 600 l 25
 231 600 l 25
 231 400 l 25
 419 400 l 25
 419 300 l 25xf8
 456 300 l 25
 456 100 l 25xf4
 419 100 l 25
 419 0 l 25
 269 0 l 25
 269 100 l 25xf8
 381 100 l 25
 381 300 l 25
 231 300 l 25
 231 0 l 25
 156 0 l 29xf4
EndSplineSet
Validated: 1
EndChar

StartChar: uni0403
Encoding: 1027 1027 99
Width: 450
Flags: W
HStem: 0 21G<81 156> 500 100<156 194 269 419>
VStem: 81 75<0 500> 194 75<600 700> 231 75<700 800>
LayerCount: 2
Back
Fore
SplineSet
81 0 m 29xf0
 81 600 l 25
 194 600 l 25
 194 700 l 25xf0
 231 700 l 25
 231 800 l 25
 306 800 l 25
 306 700 l 25xe8
 269 700 l 25
 269 600 l 25
 419 600 l 25
 419 500 l 25
 156 500 l 25
 156 0 l 25
 81 0 l 29xf0
EndSplineSet
Validated: 1
EndChar

StartChar: uni0404
Encoding: 1028 1028 100
Width: 450
Flags: W
HStem: 0 100<194 344> 100 100<381 419> 300 100<156 306> 500 100<381 419> 600 100<194 344>
VStem: 81 75<200 300 400 500> 119 75<100 200 500 600> 156 225<0 100 600 700> 344 75<100 200 500 600>
LayerCount: 2
Back
Fore
SplineSet
194 500 m 29x3280
 156 500 l 25
 156 400 l 25
 306 400 l 25
 306 300 l 25
 156 300 l 25
 156 200 l 25x74
 194 200 l 25x72
 194 100 l 25
 344 100 l 25xa280
 344 200 l 25
 419 200 l 25
 419 100 l 25x6280
 381 100 l 25x61
 381 0 l 25
 156 0 l 25xa1
 156 100 l 25x61
 119 100 l 25
 119 200 l 25x62
 81 200 l 25
 81 500 l 25x74
 119 500 l 25x72
 119 600 l 25x2a
 156 600 l 25
 156 700 l 25
 381 700 l 25x29
 381 600 l 25x31
 419 600 l 25
 419 500 l 25
 344 500 l 25x3080
 344 600 l 25
 194 600 l 25x2a80
 194 500 l 29x3280
EndSplineSet
Validated: 1
EndChar

StartChar: uni0405
Encoding: 1029 1029 101
Width: 450
Flags: W
HStem: 0 100<119 344> 300 100<156 344> 600 100<156 381>
VStem: 81 75<400 600> 119 262<0 100 300 400 600 700> 344 75<100 300>
CounterMasks: 1 e0
LayerCount: 2
Back
Fore
SplineSet
119 600 m 29xe8
 119 700 l 25
 381 700 l 25
 381 600 l 25xe8
 156 600 l 25
 156 400 l 25xf0
 381 400 l 25
 381 300 l 25xe8
 419 300 l 25
 419 100 l 25xe4
 381 100 l 25
 381 0 l 25
 119 0 l 25
 119 100 l 25xe8
 344 100 l 25
 344 300 l 25xe4
 119 300 l 25
 119 400 l 25xe8
 81 400 l 25
 81 600 l 25xf0
 119 600 l 29xe8
EndSplineSet
Validated: 1
EndChar

StartChar: uni0406
Encoding: 1030 1030 102
Width: 450
Flags: W
HStem: 0 100<100 212 288 400> 600 100<100 212 288 400>
VStem: 100 300<0 100 600 700> 212 76<100 600>
LayerCount: 2
Back
Fore
SplineSet
100 700 m 29xe0
 400 700 l 25
 400 600 l 25xe0
 288 600 l 25
 288 100 l 25xd0
 400 100 l 25
 400 0 l 25
 100 0 l 25
 100 100 l 25xe0
 212 100 l 25
 212 600 l 25xd0
 100 600 l 25
 100 700 l 29xe0
EndSplineSet
Validated: 1
EndChar

StartChar: uni0407
Encoding: 1031 1031 103
Width: 450
Flags: HMW
LayerCount: 2
Back
Fore
SplineSet
288 700 m 1
 288 800 l 1
 362 800 l 1
 362 700 l 5
 288 700 l 1
138 700 m 1
 138 800 l 25
 212 800 l 25
 212 700 l 1
 138 700 l 1
100 500 m 25
 100 600 l 25
 400 600 l 25
 400 500 l 25
 288 500 l 25
 288 100 l 25
 400 100 l 25
 400 0 l 25
 100 0 l 25
 100 100 l 25
 212 100 l 25
 212 500 l 25
 100 500 l 25
EndSplineSet
Validated: 1
EndChar

StartChar: uni0408
Encoding: 1032 1032 104
Width: 450
Flags: W
HStem: 0 100<156 344> 100 100<81 119> 680 20G<344 419>
VStem: 81 75<100 200> 344 75<100 700>
LayerCount: 2
Back
Fore
SplineSet
344 700 m 29xb8
 419 700 l 25
 419 100 l 25
 381 100 l 25x78
 381 0 l 25
 119 0 l 25xb8
 119 100 l 25
 81 100 l 25
 81 200 l 25
 156 200 l 25x78
 156 100 l 25
 344 100 l 25
 344 700 l 29xb8
EndSplineSet
Validated: 1
EndChar

StartChar: uni0409
Encoding: 1033 1033 105
Width: 450
Flags: W
HStem: 0 100<44 81 306 381> 300 100<306 381> 600 100<156 231>
VStem: 44 75<0 100> 81 75<100 600> 119 187<600 700> 231 188<0 50 300 400> 231 75<100 300 400 600> 381 75<100 300>
CounterMasks: 1 e0
LayerCount: 2
Back
Fore
SplineSet
306 100 m 29xe180
 381 100 l 25
 381 300 l 25
 306 300 l 25
 306 100 l 29xe180
44 0 m 25xf0
 44 100 l 25xf0
 81 100 l 25
 81 600 l 25xe8
 119 600 l 25
 119 700 l 25
 306 700 l 25xe4
 306 400 l 25xe1
 419 400 l 25
 419 300 l 25xe2
 456 300 l 25
 456 50 l 25xe080
 419 50 l 25
 419 0 l 25
 231 0 l 25xe2
 231 600 l 25
 156 600 l 25
 156 100 l 25xe9
 119 100 l 25
 119 0 l 25
 44 0 l 25xf0
EndSplineSet
Validated: 1
EndChar

StartChar: uni040A
Encoding: 1034 1034 106
Width: 450
Flags: W
HStem: 0 100<306 381> 300 100<119 231 306 381> 680 20G<44 119 231 306>
VStem: 44 75<0 300 400 700> 231 75<100 300 400 700> 381 75<100 300>
LayerCount: 2
Back
Fore
SplineSet
306 300 m 29
 306 100 l 25
 381 100 l 25
 381 300 l 25
 306 300 l 29
44 700 m 25
 119 700 l 25
 119 400 l 25
 231 400 l 25
 231 700 l 25
 306 700 l 25
 306 400 l 25
 419 400 l 25
 419 300 l 25
 456 300 l 25
 456 50 l 25
 419 50 l 25
 419 0 l 25
 231 0 l 25
 231 300 l 25
 119 300 l 25
 119 0 l 25
 44 0 l 25
 44 700 l 25
EndSplineSet
Validated: 1
EndChar

StartChar: uni040B
Encoding: 1035 1035 107
Width: 450
Flags: W
HStem: 0 21G<156 231 381 456> 300 100<231 381> 600 100<44 156 231 344>
VStem: 156 75<0 300 400 600> 381 75<0 300>
LayerCount: 2
Back
Fore
SplineSet
44 600 m 29
 44 700 l 25
 344 700 l 25
 344 600 l 25
 231 600 l 25
 231 400 l 25
 419 400 l 25
 419 300 l 25
 456 300 l 25
 456 0 l 25
 381 0 l 25
 381 300 l 25
 231 300 l 25
 231 0 l 25
 156 0 l 25
 156 600 l 25
 44 600 l 29
EndSplineSet
Validated: 1
EndChar

StartChar: uni040C
Encoding: 1036 1036 108
Width: 450
Flags: W
HStem: 0 100<325 400> 100 100<250 288> 400 100<250 288> 500 100<325 400> 600 100<212 250>
VStem: 100 150<200 400> 100 75<0 200 400 600> 212 76<600 700> 250 75<700 800> 288 112<0 100 500 600>
LayerCount: 2
Back
Fore
SplineSet
100 0 m 29x83
 100 600 l 25
 175 600 l 25
 175 400 l 25
 212 400 l 25xab
 212 500 l 25x13
 288 500 l 25x2040
 288 600 l 25x29
 400 600 l 25
 400 500 l 25x1040
 325 500 l 25x1080
 325 400 l 25x2080
 250 400 l 25
 250 200 l 25x64
 325 200 l 25x6080
 325 100 l 25x8080
 400 100 l 25
 400 0 l 25
 288 0 l 25x8040
 288 100 l 25x4040
 212 100 l 25
 212 200 l 25
 175 200 l 25x43
 175 0 l 25
 100 0 l 29x83
212 600 m 25
 212 700 l 25x09
 250 700 l 25
 250 800 l 25
 325 800 l 25
 325 700 l 25x0880
 288 700 l 25
 288 600 l 25
 212 600 l 25
EndSplineSet
Validated: 5
EndChar

StartChar: uni040E
Encoding: 1038 1038 109
Width: 450
Flags: W
HStem: 0 100<156 344> 100 100<81 119> 300 100<156 344> 680 20G<81 156 344 419> 700 100<231 269>
VStem: 81 75<100 200 400 700> 231 38<700 800> 344 75<100 300 400 700>
CounterMasks: 1 07
LayerCount: 2
Back
Fore
SplineSet
231 700 m 29x2f
 231 800 l 25
 269 800 l 25
 269 700 l 25
 231 700 l 29x2f
81 700 m 25xb7
 156 700 l 25
 156 400 l 25
 344 400 l 25
 344 700 l 25
 419 700 l 25
 419 100 l 25
 381 100 l 25x77
 381 0 l 25
 119 0 l 25xa7
 119 100 l 25
 81 100 l 25
 81 200 l 25
 156 200 l 25x67
 156 100 l 25
 344 100 l 25
 344 300 l 25
 119 300 l 25
 119 400 l 25
 81 400 l 25
 81 700 l 25xb7
EndSplineSet
Validated: 1
EndChar

StartChar: uni040F
Encoding: 1039 1039 110
Width: 450
Flags: W
HStem: -200 21G<212 288> 0 100<138 212 288 362> 680 20G<62 138 362 438>
VStem: 62 76<100 700> 212 76<-200 0> 362 76<100 700>
CounterMasks: 1 1c
LayerCount: 2
Back
Fore
SplineSet
62 0 m 29
 62 700 l 25
 138 700 l 25
 138 100 l 25
 362 100 l 25
 362 700 l 25
 438 700 l 25
 438 0 l 25
 288 0 l 25
 288 -200 l 25
 212 -200 l 25
 212 0 l 25
 62 0 l 29
EndSplineSet
Validated: 1
EndChar

StartChar: uni0410
Encoding: 1040 1040 111
Width: 450
Flags: W
HStem: 0 21G<62 138 362 438> 200 100<138 362> 600 100<212 288>
VStem: 62 76<0 200 300 400> 100 75<400 500> 138 74<500 600> 288 74<500 600> 325 75<400 500> 362 76<0 200 300 400>
LayerCount: 2
Back
Fore
SplineSet
138 400 m 29xf0
 138 300 l 25
 362 300 l 25
 362 400 l 25xf080
 325 400 l 25
 325 500 l 25xe1
 288 500 l 25
 288 600 l 25
 212 600 l 25
 212 500 l 25xe6
 175 500 l 25
 175 400 l 25xe8
 138 400 l 29xf0
138 0 m 25
 62 0 l 25
 62 400 l 25xf080
 100 400 l 25
 100 500 l 25xe8
 138 500 l 25
 138 600 l 25xe4
 175 600 l 25
 175 700 l 25
 324 700 l 25
 325 600 l 25xe9
 362 600 l 25
 362 500 l 25xe2
 400 500 l 25
 400 400 l 25xe1
 438 400 l 25
 438 0 l 25
 362 0 l 25
 362 200 l 25
 138 200 l 25
 138 0 l 25
EndSplineSet
Validated: 1
EndChar

StartChar: uni0411
Encoding: 1041 1041 112
Width: 450
Flags: W
HStem: 0 100<156 344> 300 100<156 344> 600 100<156 381>
VStem: 81 300<0 100 300 400 600 700> 81 75<100 300 400 600> 344 75<100 300>
CounterMasks: 1 e0
LayerCount: 2
Back
Fore
SplineSet
156 100 m 29xec
 344 100 l 25
 344 300 l 25
 156 300 l 25
 156 100 l 29xec
81 700 m 25xf0
 381 700 l 25
 381 600 l 25xf0
 156 600 l 25
 156 400 l 25xe8
 381 400 l 25
 381 300 l 25xf0
 419 300 l 25
 419 100 l 25xe4
 381 100 l 25
 381 0 l 25
 81 0 l 25
 81 700 l 25xf0
EndSplineSet
Validated: 1
EndChar

StartChar: uni0412
Encoding: 1042 1042 113
Width: 450
Flags: W
HStem: 0 100<156 344> 300 100<156 344> 600 100<156 344>
VStem: 81 300<0 100 300 400 600 700> 81 75<100 300 400 600> 344 75<100 300 400 600>
CounterMasks: 1 e0
LayerCount: 2
Back
Fore
SplineSet
156 600 m 29xec
 156 400 l 25
 344 400 l 25
 344 600 l 25
 156 600 l 29xec
156 300 m 25
 156 100 l 25
 344 100 l 25
 344 300 l 25
 156 300 l 25
81 0 m 25xf0
 81 700 l 25
 381 700 l 25
 381 600 l 25xf0
 419 600 l 25
 419 400 l 25xe4
 381 400 l 25
 381 300 l 25xf0
 419 300 l 25
 419 100 l 25xe4
 381 100 l 25
 381 0 l 25
 81 0 l 25xf0
EndSplineSet
Validated: 1
EndChar

StartChar: uni0413
Encoding: 1043 1043 114
Width: 450
Flags: W
HStem: 0 21G<81 156> 600 100<156 419>
VStem: 81 75<0 600>
LayerCount: 2
Back
Fore
SplineSet
81 700 m 29
 419 700 l 25
 419 600 l 25
 156 600 l 25
 156 0 l 25
 81 0 l 25
 81 700 l 29
EndSplineSet
Validated: 1
EndChar

StartChar: uni0414
Encoding: 1044 1044 115
Width: 450
Flags: W
HStem: 0 100<194 306> 600 100<231 306>
VStem: 81 75<-100 0> 119 75<100 500> 156 75<500 600> 194 187<600 700> 306 75<100 600> 344 75<-100 0>
LayerCount: 2
Back
Fore
SplineSet
231 600 m 29xca
 231 500 l 25xca
 194 500 l 25
 194 100 l 25xd0
 306 100 l 25
 306 600 l 25
 231 600 l 29xca
156 500 m 25
 156 600 l 25xc8
 194 600 l 25
 194 700 l 25
 381 700 l 25xc4
 381 100 l 25xc2
 419 100 l 25
 419 -100 l 25
 344 -100 l 25
 344 0 l 25
 156 0 l 25
 156 -100 l 25
 81 -100 l 25
 81 100 l 25xe1
 119 100 l 25
 119 500 l 25xd0
 156 500 l 25
EndSplineSet
Validated: 1
EndChar

StartChar: uni0415
Encoding: 1045 1045 116
Width: 450
Flags: W
HStem: 0 100<156 419> 300 100<156 344> 600 100<156 419>
VStem: 81 75<100 300 400 600>
CounterMasks: 1 e0
LayerCount: 2
Back
Fore
SplineSet
419 600 m 29
 156 600 l 29
 156 400 l 29
 344 400 l 29
 344 300 l 29
 156 300 l 29
 156 100 l 29
 419 100 l 29
 419 0 l 29
 81 0 l 29
 81 700 l 29
 419 700 l 29
 419 600 l 29
EndSplineSet
Validated: 1
EndChar

StartChar: uni0416
Encoding: 1046 1046 117
Width: 450
Flags: W
HStem: 0 21G<62 138 212 288 362 438> 300 100<175 212 288 325> 680 20G<62 137.1 212 288 362 438>
VStem: 62 76<0 200 500 700> 100 75<200 300 400 500> 212 76<0 300 400 700> 325 75<200 300 400 500> 362 76<0 200 500 700>
LayerCount: 2
Back
Fore
SplineSet
62 700 m 29xf4
 137 700 l 25
 138 500 l 25xf4
 174 500 l 25
 175 400 l 25
 212 400 l 25
 212 700 l 25
 288 700 l 25
 288 400 l 25
 325 400 l 25
 325 500 l 25xee
 362 500 l 25
 362 700 l 25
 438 700 l 25
 438 500 l 25xe5
 400 500 l 25
 400 400 l 25xe6
 362 400 l 25
 362 300 l 25xe5
 400 300 l 25
 400 200 l 25xe6
 438 200 l 25
 438 0 l 25
 362 0 l 25
 362 200 l 25xe5
 325 200 l 25
 325 300 l 25
 288 300 l 25
 288 0 l 25
 212 0 l 25
 212 300 l 25
 175 300 l 25
 175 200 l 25xee
 138 200 l 25
 138 0 l 25
 62 0 l 25
 62 200 l 25xf4
 100 200 l 25
 100 300 l 25xec
 138 300 l 25
 138 400 l 25xf4
 100 400 l 25
 100 500 l 25xec
 62 500 l 25
 62 700 l 29xf4
EndSplineSet
Validated: 1
EndChar

StartChar: uni0417
Encoding: 1047 1047 118
Width: 450
Flags: W
HStem: 0 100<156 344> 100 100<81 119> 300 100<194 344> 500 100<81 119> 600 100<156 344>
VStem: 81 75<100 200 500 600> 119 262<0 100 600 700> 194 187<300 400> 344 75<100 300 400 600>
LayerCount: 2
Back
Fore
SplineSet
81 500 m 29x3480
 81 600 l 1x3480
 119 600 l 25x32
 119 700 l 25
 381 700 l 25
 381 600 l 25x2a
 419 600 l 25
 419 400 l 25x2880
 381 400 l 25
 381 300 l 25x29
 419 300 l 25
 419 100 l 25x6880
 381 100 l 25x6a
 381 0 l 25
 119 0 l 25xa2
 119 100 l 25x62
 81 100 l 25
 81 200 l 25
 155 200 l 25x64
 156 100 l 25
 344 100 l 25
 344 300 l 25xa480
 194 300 l 25
 194 400 l 25xa1
 344 400 l 25
 344 600 l 25
 156 600 l 25xac80
 156 500 l 1
 81 500 l 29x3480
EndSplineSet
Validated: 1
EndChar

StartChar: uni0418
Encoding: 1048 1048 119
Width: 450
Flags: W
HStem: 0 21G<62 175 362 438> 680 20G<62 138 325 438>
VStem: 62 150<100 200> 62 113<0 100> 62 76<200 700> 175 75<200 300> 212 76<300 400> 250 75<400 500> 288 150<500 600> 325 113<600 700> 362 76<0 500>
LayerCount: 2
Back
Fore
SplineSet
62 700 m 29xc8
 138 700 l 29
 138 200 l 29
 175 200 l 29
 175 300 l 29xcc
 212 300 l 29
 212 400 l 29xc2
 250 400 l 29
 250 500 l 29xc1
 288 500 l 29
 288 600 l 29xc080
 325 600 l 29
 325 700 l 29
 438 700 l 29xc040
 438 0 l 29
 362 0 l 29
 362 500 l 29
 325 500 l 29
 325 400 l 29xc120
 288 400 l 29
 288 300 l 29xc2
 250 300 l 29
 250 200 l 29xc4
 212 200 l 29
 212 100 l 29xe0
 175 100 l 29
 175 0 l 29
 62 0 l 29xd0
 62 700 l 29xc8
EndSplineSet
Validated: 1
EndChar

StartChar: uni0419
Encoding: 1049 1049 120
Width: 450
Flags: W
HStem: 0 21G<62 175 362 438> 680 20G<62 138 325 438> 700 100<212 250>
VStem: 62 150<100 200> 62 113<0 100> 62 76<200 700> 175 75<200 300> 212 76<300 400> 212 38<700 800> 250 75<400 500> 288 150<500 600> 325 113<600 700> 362 76<0 500>
LayerCount: 2
Back
Fore
SplineSet
212 700 m 29xa080
 212 800 l 25
 250 800 l 25
 250 700 l 25
 212 700 l 29xa080
62 700 m 25xc4
 138 700 l 25
 138 200 l 25
 175 200 l 25
 175 300 l 25xc6
 212 300 l 25
 212 400 l 25xc1
 250 400 l 25
 250 500 l 25xc040
 288 500 l 25
 288 600 l 25xc020
 325 600 l 25
 325 700 l 25
 438 700 l 25xc010
 438 0 l 25
 362 0 l 25
 362 500 l 25
 325 500 l 25
 325 400 l 25xc048
 288 400 l 25
 288 300 l 25xc1
 250 300 l 25
 250 200 l 25xc2
 212 200 l 25
 212 100 l 25xd0
 175 100 l 25
 175 0 l 25
 62 0 l 25xc8
 62 700 l 25xc4
EndSplineSet
Validated: 1
EndChar

StartChar: uni041A
Encoding: 1050 1050 121
Width: 450
Flags: W
HStem: 0 100<344 419> 200 100<231 269> 300 100<156 194> 400 100<231 269> 600 100<344 419>
VStem: 81 150<300 400> 81 75<0 300 400 700> 194 112<200 300 400 500> 269 75<100 200 500 600> 306 113<0 100 600 700>
LayerCount: 2
Back
Fore
SplineSet
81 700 m 29xab
 156 700 l 25
 156 400 l 25
 194 400 l 25xab
 194 500 l 25x9b
 269 500 l 25
 269 600 l 25x9880
 306 600 l 25
 306 700 l 25
 419 700 l 25
 419 600 l 25x9840
 344 600 l 25
 344 500 l 25x9880
 306 500 l 25
 306 400 l 25x99
 231 400 l 25
 231 300 l 25xdc
 306 300 l 25xa9
 306 200 l 25xc9
 344 200 l 25
 344 100 l 25xc880
 419 100 l 25
 419 0 l 25
 306 0 l 25
 306 100 l 25xc840
 269 100 l 25
 269 200 l 25xc880
 194 200 l 25xc9
 194 300 l 25
 156 300 l 25
 156 0 l 25
 81 0 l 25
 81 700 l 29xab
EndSplineSet
Validated: 1
EndChar

StartChar: uni041B
Encoding: 1051 1051 122
Width: 450
Flags: W
HStem: 0 100<81 119> 600 100<231 344>
VStem: 81 75<0 100> 119 75<100 200> 156 75<200 600> 344 75<0 600>
LayerCount: 2
Back
Fore
SplineSet
81 0 m 29xe4
 81 100 l 25xe4
 119 100 l 25
 119 200 l 25xd4
 156 200 l 25
 156 600 l 25xcc
 194 600 l 25
 194 700 l 25xd4
 419 700 l 25
 419 0 l 25
 344 0 l 25
 344 600 l 25
 231 600 l 25
 231 200 l 25xcc
 194 200 l 25
 194 100 l 25xd4
 156 100 l 25
 156 0 l 25
 81 0 l 29xe4
EndSplineSet
Validated: 1
EndChar

StartChar: uni041C
Encoding: 1052 1052 123
Width: 450
Flags: W
HStem: 0 21G<62 138 362 438> 680 20G<62 175 325 438>
VStem: 62 150<500 600> 62 113<600 700> 62 76<0 500> 175 150<400 500> 288 150<500 600> 325 113<600 700> 362 76<0 500>
LayerCount: 2
Back
Fore
SplineSet
138 0 m 29xcc
 62 0 l 25xcc
 62 700 l 25
 175 700 l 25
 175 600 l 25xd0
 212 600 l 25
 212 500 l 25
 288 500 l 25
 288 600 l 25xe2
 325 600 l 25
 325 700 l 25
 438 700 l 25xc1
 438 0 l 25
 362 0 l 25
 362 500 l 25
 325 500 l 25
 325 400 l 25xc480
 288 400 l 25
 288 300 l 25
 212 300 l 25
 212 400 l 25xe2
 175 400 l 25
 175 500 l 25
 138 500 l 25
 138 0 l 29xcc
EndSplineSet
Validated: 1
EndChar

StartChar: uni041D
Encoding: 1053 1053 124
Width: 450
Flags: W
HStem: 0 21G<81 156 344 419> 300 100<156 344> 680 20G<81 156 344 419>
VStem: 81 75<0 300 400 700> 344 75<0 300 400 700>
LayerCount: 2
Back
Fore
SplineSet
81 700 m 29
 156 700 l 25
 156 400 l 25
 344 400 l 25
 344 700 l 25
 419 700 l 25
 419 0 l 25
 344 0 l 25
 344 300 l 25
 156 300 l 25
 156 0 l 25
 81 0 l 25
 81 700 l 29
EndSplineSet
Validated: 1
EndChar

StartChar: uni041E
Encoding: 1054 1054 125
Width: 450
Flags: W
HStem: 0 100<175 325> 600 100<175 325>
VStem: 62 76<200 500> 100 75<100 200 500 600> 138 224<0 100 600 700> 325 75<100 200 500 600> 362 76<200 500>
LayerCount: 2
Back
Fore
SplineSet
325 100 m 29xd4
 325 200 l 25xd4
 362 200 l 25
 362 500 l 25xc2
 325 500 l 25
 325 600 l 25
 175 600 l 25
 175 500 l 25xd4
 138 500 l 25
 138 200 l 25xe0
 175 200 l 25
 175 100 l 25
 325 100 l 29xd4
362 0 m 25xc8
 138 0 l 25
 138 100 l 25xc8
 100 100 l 25
 100 200 l 25xd0
 62 200 l 25
 62 500 l 25xe0
 100 500 l 25
 100 600 l 25xd0
 138 600 l 25
 138 700 l 25
 362 700 l 25
 362 600 l 25xc8
 400 600 l 25
 400 500 l 25xc4
 438 500 l 25
 438 200 l 25xc2
 400 200 l 25
 400 100 l 25xc4
 362 100 l 25
 362 0 l 25xc8
EndSplineSet
Validated: 1
EndChar

StartChar: uni041F
Encoding: 1055 1055 126
Width: 450
Flags: W
HStem: 0 21G<81 156 344 419> 600 100<156 344>
VStem: 81 75<0 600> 344 75<0 600>
LayerCount: 2
Back
Fore
SplineSet
81 700 m 29
 419 700 l 25
 419 0 l 25
 344 0 l 25
 344 600 l 25
 156 600 l 25
 156 0 l 25
 81 0 l 25
 81 700 l 29
EndSplineSet
Validated: 1
EndChar

StartChar: uni0420
Encoding: 1056 1056 127
Width: 450
Flags: W
HStem: 0 21G<81 156> 300 100<156 344> 600 100<156 344>
VStem: 81 75<0 300 400 600> 344 75<400 600>
LayerCount: 2
Back
Fore
SplineSet
156 600 m 29
 156 400 l 25
 344 400 l 25
 344 600 l 25
 156 600 l 29
81 700 m 25
 381 700 l 25
 381 650 l 25
 419 650 l 25
 419 400 l 25
 381 400 l 25
 381 300 l 25
 156 300 l 25
 156 0 l 25
 81 0 l 25
 81 700 l 25
EndSplineSet
Validated: 1
EndChar

StartChar: uni0421
Encoding: 1057 1057 128
Width: 450
Flags: W
HStem: 0 100<194 344> 100 100<381 419> 500 100<381 419> 600 100<194 344>
VStem: 81 75<200 500> 119 75<100 200 500 600> 156 225<0 100 600 700> 344 75<100 200 500 600>
LayerCount: 2
Back
Fore
SplineSet
156 700 m 29x12
 381 700 l 25x12
 381 600 l 25x22
 419 600 l 25
 419 500 l 25
 344 500 l 25x21
 344 600 l 25
 194 600 l 25x15
 194 500 l 25x25
 156 500 l 25
 156 200 l 25x68
 194 200 l 25x64
 194 100 l 25
 344 100 l 25x85
 344 200 l 25
 419 200 l 25
 419 100 l 25x45
 381 100 l 25x42
 381 0 l 25
 156 0 l 25x82
 156 100 l 25x42
 119 100 l 25
 119 200 l 25x44
 81 200 l 25
 81 500 l 25x68
 119 500 l 25x64
 119 600 l 25x14
 156 600 l 25
 156 700 l 29x12
EndSplineSet
Validated: 1
EndChar

StartChar: uni0422
Encoding: 1058 1058 129
Width: 450
Flags: W
HStem: 0 21G<212 288> 600 100<62 212 288 438>
VStem: 212 76<0 600>
LayerCount: 2
Back
Fore
SplineSet
62 700 m 1
 438 700 l 5
 438 600 l 1
 288 600 l 1
 288 0 l 25
 212 0 l 25
 212 600 l 1
 62 600 l 1
 62 700 l 1
EndSplineSet
Validated: 1
EndChar

StartChar: uni0423
Encoding: 1059 1059 130
Width: 450
Flags: W
HStem: 0 100<156 344> 100 100<81 119> 300 100<156 344> 680 20G<81 156 344 419>
VStem: 81 75<100 200 400 700> 344 75<100 300 400 700>
LayerCount: 2
Back
Fore
SplineSet
81 700 m 29xbc
 156 700 l 25
 156 400 l 25
 344 400 l 25
 344 700 l 25
 419 700 l 25
 419 100 l 25
 381 100 l 25x7c
 381 0 l 25
 119 0 l 25xbc
 119 100 l 25
 81 100 l 25
 81 200 l 25
 156 200 l 25x7c
 156 100 l 25
 344 100 l 25
 344 300 l 25
 119 300 l 25
 119 400 l 25
 81 400 l 25
 81 700 l 29xbc
EndSplineSet
Validated: 1
EndChar

StartChar: uni0424
Encoding: 1060 1060 131
Width: 450
Flags: W
HStem: 0 21G<212 288> 100 100<138 212 288 362> 500 100<138 212 288 362> 680 20G<212 288>
VStem: 62 76<200 500> 100 300<100 200 500 600> 212 76<0 100 200 500 600 700> 362 76<200 500>
LayerCount: 2
Back
Fore
SplineSet
288 500 m 29xf3
 288 200 l 25
 362 200 l 25
 362 500 l 25
 288 500 l 29xf3
138 500 m 25xfa
 138 200 l 25
 212 200 l 25
 212 500 l 25
 138 500 l 25xfa
212 600 m 25
 212 700 l 1
 288 700 l 25
 288 600 l 25xf2
 400 600 l 25
 400 500 l 25xf4
 438 500 l 25
 438 200 l 25xf1
 400 200 l 25
 400 100 l 25xf4
 288 100 l 25
 288 0 l 25
 212 0 l 25
 212 100 l 25xf2
 100 100 l 25
 100 200 l 25xf4
 62 200 l 25
 62 500 l 25xf8
 100 500 l 25
 100 600 l 1xf4
 212 600 l 25
EndSplineSet
Validated: 1
EndChar

StartChar: uni0425
Encoding: 1061 1061 132
Width: 450
Flags: W
HStem: 0 100<100 138 362 400> 600 100<100 138 362 400>
VStem: 100 75<0 100 600 700> 138 74<100 200 500 600> 175 150<200 300 400 500> 288 74<100 200 500 600> 325 75<0 100 600 700>
LayerCount: 2
Back
Fore
SplineSet
100 700 m 29xe0
 175 700 l 25
 175 600 l 25xe0
 212 600 l 25
 212 500 l 25
 288 500 l 25
 288 600 l 25xd4
 325 600 l 25
 325 700 l 25
 400 700 l 25
 400 600 l 25xc2
 362 600 l 25
 362 500 l 25xc4
 325 500 l 25
 325 400 l 25xc8
 288 400 l 25
 288 300 l 25xc4
 325 300 l 25
 325 200 l 25xc8
 362 200 l 25
 362 100 l 25xc4
 400 100 l 25
 400 0 l 25
 325 0 l 25
 325 100 l 25xc2
 288 100 l 25
 288 200 l 25
 212 200 l 25
 212 100 l 25xd4
 175 100 l 25
 175 0 l 25
 100 0 l 25
 100 100 l 25xe0
 138 100 l 25
 138 200 l 25xd0
 175 200 l 25
 175 300 l 25xc8
 212 300 l 25
 212 400 l 25xd0
 175 400 l 25
 175 500 l 25xc8
 138 500 l 25
 138 600 l 25xd0
 100 600 l 25
 100 700 l 29xe0
EndSplineSet
Validated: 1
EndChar

StartChar: uni0426
Encoding: 1062 1062 133
Width: 450
Flags: W
HStem: 0 100<156 269> 680 20G<81 156 269 344>
VStem: 81 75<100 700> 269 75<100 700> 344 75<-100 0>
LayerCount: 2
Back
Fore
SplineSet
81 700 m 29xe8
 156 700 l 25
 156 100 l 25
 269 100 l 25
 269 700 l 25
 344 700 l 25
 344 100 l 25xf0
 419 100 l 25
 419 -100 l 25
 344 -100 l 25
 344 0 l 25
 81 0 l 25
 81 700 l 29xe8
EndSplineSet
Validated: 1
EndChar

StartChar: uni0427
Encoding: 1063 1063 134
Width: 450
Flags: W
HStem: 0 21G<344 419> 300 100<194 344> 680 20G<81 156 344 419>
VStem: 81 75<500 700> 119 75<400 500> 344 75<0 300 400 700>
LayerCount: 2
Back
Fore
SplineSet
81 700 m 29xf4
 156 700 l 25
 156 500 l 25xf4
 194 500 l 25
 194 400 l 25xec
 344 400 l 25
 344 700 l 25
 419 700 l 25
 419 0 l 25
 344 0 l 25
 344 300 l 25
 156 300 l 25
 156 400 l 25xf4
 119 400 l 25
 119 500 l 25xec
 81 500 l 25
 81 700 l 29xf4
EndSplineSet
Validated: 1
EndChar

StartChar: uni0428
Encoding: 1064 1064 135
Width: 450
Flags: W
HStem: 0 100<138 212 288 362> 680 20G<62 138 212 288 362 438>
VStem: 62 76<100 700> 212 76<100 700> 362 76<100 700>
CounterMasks: 1 38
LayerCount: 2
Back
Fore
SplineSet
62 700 m 29
 138 700 l 25
 138 100 l 25
 212 100 l 25
 212 700 l 25
 288 700 l 25
 288 100 l 25
 362 100 l 25
 362 700 l 25
 438 700 l 25
 438 0 l 25
 62 0 l 25
 62 700 l 29
EndSplineSet
Validated: 1
EndChar

StartChar: uni0429
Encoding: 1065 1065 136
Width: 450
Flags: W
HStem: 0 100<119 194 269 344> 680 20G<44 119 194 269 344 419>
VStem: 44 75<100 700> 194 75<100 700> 344 75<100 700> 381 75<-100 0>
LayerCount: 2
Back
Fore
SplineSet
44 700 m 29xf4
 119 700 l 25
 119 100 l 25
 194 100 l 25
 194 700 l 25
 269 700 l 25
 269 100 l 25
 344 100 l 25
 344 700 l 25
 419 700 l 25
 419 100 l 25xf8
 456 100 l 25
 456 -100 l 25
 381 -100 l 25
 381 0 l 25
 44 0 l 25
 44 700 l 29xf4
EndSplineSet
Validated: 1
EndChar

StartChar: uni042A
Encoding: 1066 1066 137
Width: 450
Flags: W
HStem: 0 100<212 362> 300 100<212 362> 600 100<62 138>
VStem: 62 150<600 700> 138 262<0 100 300 400> 138 74<100 300 400 600> 362 76<100 300>
CounterMasks: 1 e0
LayerCount: 2
Back
Fore
SplineSet
212 300 m 29xe6
 212 100 l 25
 362 100 l 25
 362 300 l 25
 212 300 l 29xe6
62 700 m 25xf0
 212 700 l 25xf0
 212 400 l 25xe4
 400 400 l 25
 400 300 l 25xe8
 438 300 l 25
 438 100 l 25xe2
 400 100 l 25
 400 0 l 25
 138 0 l 25xe8
 138 600 l 25xe4
 62 600 l 25
 62 700 l 25xf0
EndSplineSet
Validated: 1
EndChar

StartChar: uni042B
Encoding: 1067 1067 138
Width: 450
Flags: W
HStem: 0 100<138 250> 300 100<138 250> 680 20G<62 138 362 438>
VStem: 62 226<0 100 300 400> 62 76<100 300 400 700> 250 75<100 300> 362 76<0 700>
LayerCount: 2
Back
Fore
SplineSet
250 300 m 29xee
 138 300 l 25
 138 100 l 25
 250 100 l 25
 250 300 l 29xee
362 700 m 25
 438 700 l 25
 438 0 l 25
 362 0 l 25
 362 700 l 25
62 700 m 25
 138 700 l 25
 138 400 l 25xea
 288 400 l 25
 288 300 l 25xf2
 325 300 l 25
 325 100 l 25xe6
 288 100 l 25
 288 0 l 25
 62 0 l 25xf2
 62 700 l 25
EndSplineSet
Validated: 1
EndChar

StartChar: uni042C
Encoding: 1068 1068 139
Width: 450
Flags: W
HStem: 0 100<175 325> 300 100<175 325> 680 20G<100 174>
VStem: 100 262<0 100 300 400> 100 74<100 300 400 700> 325 75<101 300>
LayerCount: 2
Back
Fore
SplineSet
175 100 m 29xe4
 325 100 l 25
 325 300 l 25
 175 300 l 25
 175 100 l 29xe4
100 700 m 25xe8
 174 700 l 25
 174 400 l 25xe8
 362 400 l 25
 362 300 l 25xf0
 398 300 l 25
 400 101 l 25xe4
 362 100 l 25
 362 0 l 25
 100 0 l 25xf0
 100 700 l 25xe8
EndSplineSet
Validated: 1
EndChar

StartChar: uni042D
Encoding: 1069 1069 140
Width: 450
Flags: W
HStem: 0 100<156 306> 100 100<81 119> 300 100<194 344> 500 100<81 119> 600 100<156 306>
VStem: 81 75<100 200 500 600> 119 225<0 100 600 700> 306 75<100 200 500 600> 344 75<200 300 400 500>
LayerCount: 2
Back
Fore
SplineSet
81 500 m 29x35
 81 600 l 25x35
 119 600 l 25x32
 119 700 l 25
 344 700 l 25
 344 600 l 25x2a
 381 600 l 25x29
 381 500 l 25x31
 419 500 l 25
 419 200 l 25x7080
 381 200 l 25
 381 100 l 25x71
 344 100 l 25x72
 344 0 l 25
 119 0 l 25xa2
 119 100 l 25x62
 81 100 l 25
 81 200 l 25
 156 200 l 25x64
 156 100 l 25
 306 100 l 25xa5
 306 200 l 25x65
 344 200 l 25
 344 300 l 25
 194 300 l 25
 194 400 l 25
 344 400 l 25
 344 500 l 25x7080
 306 500 l 25x71
 306 600 l 25
 156 600 l 25x2d
 156 500 l 25
 81 500 l 29x35
EndSplineSet
Validated: 1
EndChar

StartChar: uni042E
Encoding: 1070 1070 141
Width: 450
Flags: W
HStem: 0 100<269 344> 300 100<156 194> 600 100<269 344>
VStem: 81 75<0 300 400 700> 194 75<100 300 400 600> 231 150<0 100 600 700> 344 75<100 600>
CounterMasks: 1 e0
LayerCount: 2
Back
Fore
SplineSet
269 600 m 29xfa
 269 100 l 25
 344 100 l 25
 344 600 l 25
 269 600 l 29xfa
81 700 m 25
 156 700 l 25
 156 400 l 25
 194 400 l 25
 194 600 l 25xf8
 231 600 l 25
 231 700 l 25
 381 700 l 25
 381 600 l 25xf4
 419 600 l 25
 419 100 l 25xf2
 381 100 l 25
 381 0 l 25
 231 0 l 25
 231 100 l 25xf4
 194 100 l 25
 194 300 l 25
 156 300 l 25
 156 0 l 25
 81 0 l 25
 81 700 l 25
EndSplineSet
Validated: 1
EndChar

StartChar: uni042F
Encoding: 1071 1071 142
Width: 450
Flags: W
HStem: 0 100<81 156> 300 100<156 231> 600 100<156 344>
VStem: 81 150<0 100> 81 75<400 600> 119 300<300 400 600 700> 156 113<100 200> 231 188<200 300> 344 75<0 200 400 600>
CounterMasks: 1 e0
LayerCount: 2
Back
Fore
SplineSet
156 600 m 29xe880
 156 400 l 25
 344 400 l 25
 344 600 l 25
 156 600 l 29xe880
119 700 m 25xe4
 419 700 l 25xe4
 419 0 l 25
 344 0 l 25
 344 200 l 25
 269 200 l 25
 269 100 l 25xe280
 231 100 l 25
 231 0 l 25
 81 0 l 25
 81 100 l 25xf0
 156 100 l 25
 156 200 l 25xe2
 231 200 l 25
 231 300 l 25xe1
 119 300 l 25
 119 400 l 25xe4
 81 400 l 25
 81 600 l 25xe8
 119 600 l 25
 119 700 l 25xe4
EndSplineSet
Validated: 1
EndChar

StartChar: uni0430
Encoding: 1072 1072 143
Width: 450
Flags: W
HStem: 0 100<138 325 400 437> 100 100<62 100> 200 100<138 325> 400 100<100 325>
VStem: 62 76<100 200> 325 75<100 200 300 400>
LayerCount: 2
Back
Fore
SplineSet
138 200 m 29xbc
 138 100 l 25
 325 100 l 25
 325 200 l 25
 138 200 l 29xbc
100 500 m 25
 362 500 l 25
 362 400 l 25
 400 400 l 25
 400 100 l 25
 437 100 l 25
 438 0 l 25
 100 0 l 25xbc
 100 100 l 25
 62 100 l 25
 62 200 l 25
 100 200 l 25x5c
 100 300 l 25
 325 300 l 25
 325 400 l 25
 100 400 l 25
 100 500 l 25
EndSplineSet
Validated: 1
EndChar

StartChar: uni0431
Encoding: 1073 1073 144
Width: 450
Flags: W
HStem: 0 100<156 344> 300 200<231 344> 300 100<156 231> 600 100<119 156 231 419>
VStem: 81 75<100 300> 119 262<0 100 300 400> 156 75<500 600> 231 113<400 500> 344 75<100 300>
LayerCount: 2
Back
Fore
SplineSet
156 300 m 29xb880
 156 100 l 25
 344 100 l 25
 344 300 l 25xd880
 156 300 l 29xb880
119 700 m 25xd4
 419 700 l 25
 419 600 l 25
 231 600 l 25
 231 500 l 25xd280
 344 500 l 25xd1
 344 400 l 25xb1
 381 400 l 25
 381 300 l 25xb4
 419 300 l 25
 419 100 l 25xb080
 381 100 l 25
 381 0 l 25
 119 0 l 25
 119 100 l 25xb4
 81 100 l 25
 81 300 l 25xb8
 119 300 l 25
 119 400 l 25xb4
 231 400 l 25xb1
 231 500 l 25
 156 500 l 25
 156 600 l 25xd2
 119 600 l 25
 119 700 l 25xd4
EndSplineSet
Validated: 5
EndChar

StartChar: uni0432
Encoding: 1074 1074 145
Width: 450
Flags: W
HStem: 0 100<156 344> 100 100<381 419> 200 100<156 344> 300 100<381 419> 400 100<156 344>
VStem: 81 300<0 100 200 300 400 500> 81 75<100 200 300 400> 344 75<100 200 300 400>
LayerCount: 2
Back
Fore
SplineSet
156 200 m 29xa3
 156 100 l 25
 344 100 l 25
 344 200 l 25
 156 200 l 29xa3
156 400 m 25x2b
 156 300 l 25
 344 300 l 25
 344 400 l 25
 156 400 l 25x2b
81 500 m 25x8c
 381 500 l 25x8c
 381 400 l 25x14
 419 400 l 25
 419 300 l 25x11
 381 300 l 25
 381 200 l 25x54
 419 200 l 25
 419 100 l 25x51
 381 100 l 25x54
 381 0 l 25
 81 0 l 25
 81 500 l 25x8c
EndSplineSet
Validated: 1
EndChar

StartChar: uni0433
Encoding: 1075 1075 146
Width: 450
Flags: W
HStem: 0 21G<81 156> 400 100<156 419>
VStem: 81 75<0 400>
LayerCount: 2
Back
Fore
SplineSet
81 0 m 29
 81 500 l 25
 419 500 l 25
 419 401 l 25
 156 400 l 25
 156 0 l 25
 81 0 l 29
EndSplineSet
Validated: 1
EndChar

StartChar: uni0434
Encoding: 1076 1076 147
Width: 450
Flags: W
HStem: -100 200<62 137 362 438> -1 101<137 138 212 288> 400 100<212 288>
VStem: 62 76<-100 -1> 138 74<100 400> 175 187<400 500> 288 74<100 400> 362 76<-100 0>
LayerCount: 2
Back
Fore
SplineSet
212 400 m 29x6a
 212 100 l 25
 288 100 l 25
 288 400 l 25
 212 400 l 29x6a
175 500 m 25x64
 362 500 l 25x64
 362 100 l 25xa2
 438 100 l 25
 438 -100 l 25
 362 -100 l 25xa1
 362 0 l 25
 137 -1 l 25x61
 138 -100 l 25
 62 -100 l 25
 62 100 l 25xb1
 138 100 l 25
 138 400 l 25x68
 175 400 l 25
 175 500 l 25x64
EndSplineSet
Validated: 1
EndChar

StartChar: uni0435
Encoding: 1077 1077 148
Width: 450
Flags: W
HStem: 0 100<156 381> 200 100<156 344> 400 100<156 344>
VStem: 81 75<100 200 300 400> 119 262<0 100 400 500> 344 75<300 400>
CounterMasks: 1 e0
LayerCount: 2
Back
Fore
SplineSet
156 400 m 1xf4
 156 300 l 1
 344 300 l 1
 344 400 l 1
 156 400 l 1xf4
119 400 m 1xe8
 119 500 l 1
 381 500 l 1
 381 400 l 25xe8
 419 400 l 25
 419 200 l 1
 156 200 l 1
 156 100 l 1xf4
 381 100 l 1
 381 0 l 1
 119 0 l 1
 119 100 l 1xe8
 81 100 l 1
 81 400 l 5xf0
 119 400 l 1xe8
EndSplineSet
Validated: 1
EndChar

StartChar: uni0436
Encoding: 1078 1078 149
Width: 450
Flags: W
HStem: 0 100<62 100 400 438> 200 100<175 212 288 325> 400 100<62 100 400 438>
VStem: 62 76<0 100 400 500> 100 75<100 200 300 400> 212 76<0 200 300 500> 325 75<100 200 300 400> 362 76<0 100 400 500>
CounterMasks: 1 e0
LayerCount: 2
Back
Fore
SplineSet
62 500 m 29xf4
 138 500 l 25
 138 400 l 25xf4
 175 400 l 25
 175 300 l 25
 212 300 l 25
 212 500 l 25
 288 500 l 25
 288 300 l 25
 325 300 l 25
 325 400 l 25xee
 362 400 l 25
 362 500 l 25
 438 500 l 25
 438 400 l 25xe5
 400 400 l 25
 400 300 l 25xe6
 362 300 l 25
 362 200 l 25xe5
 400 200 l 25
 400 100 l 25xe6
 438 100 l 25
 438 0 l 25
 362 0 l 25
 362 100 l 25xe5
 325 100 l 25
 325 200 l 25
 288 200 l 25
 288 0 l 25
 212 0 l 25
 212 200 l 25
 175 200 l 25
 175 100 l 25xee
 138 100 l 25
 138 0 l 25
 62 0 l 25
 62 100 l 25xf4
 100 100 l 25
 100 200 l 25xec
 138 200 l 25
 138 300 l 25xf4
 100 300 l 25
 100 400 l 25xec
 62 400 l 25
 62 500 l 29xf4
EndSplineSet
Validated: 1
EndChar

StartChar: uni0437
Encoding: 1079 1079 150
Width: 450
Flags: W
HStem: 0 100<156 344> 100 100<81 119 381 419> 300 100<81 119 381 419> 400 100<156 344>
VStem: 81 75<100 200 300 400> 119 262<0 100 400 500> 231 150<200 300> 344 75<100 200 300 400>
LayerCount: 2
Back
Fore
SplineSet
81 400 m 29x29
 119 400 l 1x24
 119 500 l 25
 381 500 l 25x14
 381 400 l 25x24
 419 400 l 25
 419 300 l 25x21
 381 300 l 25
 381 200 l 25x62
 419 200 l 25
 419 100 l 25x61
 381 100 l 25x64
 381 0 l 25
 119 0 l 25x84
 119 100 l 25x44
 81 100 l 25
 81 200 l 25
 156 200 l 25x48
 156 100 l 25
 344 100 l 25x89
 344 200 l 25x49
 231 200 l 25
 231 300 l 25x62
 344 300 l 25x61
 344 400 l 25
 156 400 l 25x19
 156 300 l 25
 81 300 l 1
 81 400 l 29x29
EndSplineSet
Validated: 1
EndChar

StartChar: uni0438
Encoding: 1080 1080 151
Width: 450
Flags: W
HStem: 0 100<156 194> 200 100<231 269> 400 100<306 344>
VStem: 81 113<0 100> 81 75<100 500> 194 37<100 200> 231 38<200 300> 269 37<300 400> 306 113<400 500> 344 75<0 400>
CounterMasks: 1 e0
LayerCount: 2
Back
Fore
SplineSet
81 0 m 29xf0
 81 500 l 5
 156 500 l 29
 156 100 l 29xe8
 194 100 l 29xf0
 194 200 l 29
 231 200 l 29xe4
 231 300 l 29
 269 300 l 29xe2
 269 400 l 29
 306 400 l 29xe1
 306 500 l 29
 419 500 l 29xe080
 419 0 l 29
 344 0 l 29
 344 400 l 29
 306 400 l 29
 306 300 l 29xe140
 269 300 l 29
 269 200 l 29xe2
 231 200 l 29
 231 100 l 29xe4
 194 100 l 29
 194 0 l 5
 81 0 l 29xf0
EndSplineSet
Validated: 5
EndChar

StartChar: uni0439
Encoding: 1081 1081 152
Width: 450
Flags: W
HStem: 0 100<156 194> 200 100<231 269> 400 100<306 344> 600 100<194 306> 700 100<119 156 344 381>
VStem: 81 75<100 500> 119 75<700 800> 194 37<100 200> 231 38<200 300> 269 37<300 400> 306 75<700 800> 344 75<0 400>
LayerCount: 2
Back
Fore
SplineSet
119 800 m 29xea
 194 800 l 29xea
 194 700 l 29
 306 700 l 29xf220
 306 800 l 29
 381 800 l 29
 381 700 l 29xea20
 344 700 l 29xe810
 344 600 l 29
 156 600 l 29xf410
 156 700 l 29xec10
 119 700 l 29
 119 800 l 29xea
81 0 m 25xe5
 81 500 l 1
 156 500 l 25
 156 100 l 25
 194 100 l 25
 194 200 l 25
 231 200 l 25xe5
 231 300 l 25
 269 300 l 25xe080
 269 400 l 25
 306 400 l 25xe040
 306 500 l 25xe020
 419 500 l 25
 419 0 l 25
 344 0 l 25
 344 400 l 25
 306 400 l 25
 306 300 l 25xe050
 269 300 l 25
 269 200 l 25xe080
 231 200 l 25
 231 100 l 25
 194 100 l 25
 194 0 l 1
 81 0 l 25xe5
EndSplineSet
Validated: 5
EndChar

StartChar: uni043A
Encoding: 1082 1082 153
Width: 450
Flags: W
HStem: 0 100<344 419> 200 100<156 269> 400 100<344 419>
VStem: 81 75<0 200 300 500> 269 75<100 200 300 400> 306 113<0 100 400 500>
CounterMasks: 1 e0
LayerCount: 2
Back
Fore
SplineSet
81 500 m 29xf8
 156 500 l 25
 156 300 l 25
 269 300 l 25
 269 400 l 25xf8
 306 400 l 25
 306 500 l 25
 419 500 l 25
 419 400 l 25xf4
 344 400 l 25
 344 300 l 25xf8
 306 300 l 25
 306 200 l 25xf4
 344 200 l 25
 344 100 l 25xf8
 419 100 l 25
 419 0 l 25
 306 0 l 25
 306 100 l 25xf4
 269 100 l 25
 269 200 l 25
 156 200 l 25
 156 0 l 25
 81 0 l 25
 81 500 l 29xf8
EndSplineSet
Validated: 1
EndChar

StartChar: uni043B
Encoding: 1083 1083 154
Width: 450
Flags: W
HStem: 0 100<81 119> 400 100<194 344>
VStem: 81 75<0 100> 119 75<100 400> 344 75<0 400>
LayerCount: 2
Back
Fore
SplineSet
81 100 m 29xe8
 119 100 l 25
 119 400 l 25xd8
 156 400 l 25
 156 500 l 25xe8
 419 500 l 25
 419 0 l 25
 344 0 l 25
 344 400 l 25
 194 400 l 25
 194 100 l 25xd8
 156 100 l 25
 156 0 l 25
 81 0 l 25
 81 100 l 29xe8
EndSplineSet
Validated: 1
EndChar

StartChar: uni043C
Encoding: 1084 1084 155
Width: 450
Flags: W
HStem: 0 21G<81 156 344 419> 480 20G<81 194 306 419>
VStem: 81 150<300 400> 81 113<400 500> 81 75<0 300> 194 112<200 300> 269 150<300 400> 306 113<400 500> 344 75<0 300>
LayerCount: 2
Back
Fore
SplineSet
81 0 m 29xcc
 81 500 l 25
 194 500 l 25
 194 400 l 25xd0
 231 400 l 25
 231 300 l 25
 269 300 l 25
 269 400 l 25xe2
 306 400 l 25
 306 500 l 25
 419 500 l 25xc1
 419 0 l 25
 344 0 l 25
 344 300 l 25
 306 300 l 25
 306 200 l 25xc480
 269 200 l 25
 269 100 l 25
 231 100 l 25
 231 200 l 25xe2
 194 200 l 25
 194 300 l 25
 156 300 l 25
 156 0 l 25
 81 0 l 29xcc
EndSplineSet
Validated: 1
EndChar

StartChar: uni043D
Encoding: 1085 1085 156
Width: 450
Flags: W
HStem: 0 21G<100 175 325 400> 200 100<175 325> 480 20G<100 175 325 400>
VStem: 100 75<0 200 300 500> 325 75<0 200 300 500>
LayerCount: 2
Back
Fore
SplineSet
100 500 m 25
 175 500 l 25
 175 300 l 1
 325 300 l 1
 325 500 l 5
 400 500 l 1
 400 0 l 1
 325 0 l 1
 325 200 l 1
 175 200 l 1
 175 0 l 25
 100 0 l 25
 100 500 l 25
EndSplineSet
Validated: 1
EndChar

StartChar: uni043E
Encoding: 1086 1086 157
Width: 450
Flags: W
HStem: 0 100<156 344> 400 100<156 344>
VStem: 81 75<100 400> 119 262<0 100 400 500> 344 75<100 400>
LayerCount: 2
Back
Fore
SplineSet
156 400 m 29xe8
 156 100 l 25
 344 100 l 25
 344 400 l 25
 156 400 l 29xe8
119 500 m 25xd0
 381 500 l 25
 381 400 l 25xd0
 419 400 l 25
 419 100 l 25xc8
 381 100 l 25
 381 0 l 25
 119 0 l 25
 119 100 l 25xd0
 81 100 l 25
 81 400 l 25xe0
 119 400 l 25
 119 500 l 25xd0
EndSplineSet
Validated: 1
EndChar

StartChar: uni043F
Encoding: 1087 1087 158
Width: 450
Flags: W
HStem: 0 21G<81 156 344 419> 400 100<156 344>
VStem: 81 75<0 400> 344 75<0 400>
LayerCount: 2
Back
Fore
SplineSet
81 0 m 29
 81 500 l 25
 419 500 l 25
 419 0 l 25
 344 0 l 25
 344 400 l 25
 156 400 l 25
 156 0 l 25
 81 0 l 29
EndSplineSet
Validated: 1
EndChar

StartChar: uni0440
Encoding: 1088 1088 159
Width: 450
Flags: W
HStem: -200 21G<81 156> 0 100<194 344> 100 100<156 194> 300 100<156 194> 400 100<194 344>
VStem: 81 113<100 200 300 400> 81 75<-200 100 200 300 400 500> 194 187<0 100 400 500> 344 75<100 400>
LayerCount: 2
Back
Fore
SplineSet
194 300 m 29x9480
 156 300 l 25
 156 200 l 25xb2
 194 200 l 25xb4
 194 100 l 25
 344 100 l 25
 344 400 l 25xcc80
 194 400 l 25
 194 300 l 29x9480
81 500 m 25xaa
 156 500 l 25xaa
 156 400 l 25x92
 194 400 l 25x94
 194 500 l 25
 381 500 l 25
 381 400 l 25x89
 419 400 l 25
 419 100 l 25xa880
 381 100 l 25xa9
 381 0 l 25
 194 0 l 25xc1
 194 100 l 25xc4
 156 100 l 25
 156 -200 l 25
 81 -200 l 25
 81 500 l 25xaa
EndSplineSet
Validated: 5
EndChar

StartChar: uni0441
Encoding: 1089 1089 160
Width: 450
Flags: W
HStem: 0 100<194 419> 200 100<81 119> 400 100<194 419>
VStem: 81 75<200 300> 119 75<100 200 300 400> 156 263<0 100 400 500>
CounterMasks: 1 e0
LayerCount: 2
Back
Fore
SplineSet
156 500 m 29xe4
 419 500 l 25
 419 400 l 25xe4
 194 400 l 25
 194 300 l 25xe8
 156 300 l 25
 156 200 l 25xf0
 194 200 l 25
 194 100 l 25xe8
 419 100 l 25
 419 0 l 25
 156 0 l 25
 156 100 l 25xe4
 119 100 l 25
 119 200 l 25xe8
 81 200 l 25
 81 300 l 25xf0
 119 300 l 25
 119 400 l 25xe8
 156 400 l 25
 156 500 l 29xe4
EndSplineSet
Validated: 1
EndChar

StartChar: uni0442
Encoding: 1090 1090 161
Width: 450
Flags: W
HStem: 0 21G<212 288> 400 100<62 212 288 438>
VStem: 212 76<0 400>
LayerCount: 2
Back
Fore
SplineSet
62 500 m 1
 438 500 l 1
 438 400 l 5
 288 400 l 1
 288 0 l 25
 212 0 l 25
 212 400 l 1
 62 400 l 1
 62 500 l 1
EndSplineSet
Validated: 1
EndChar

StartChar: uni0443
Encoding: 1091 1091 162
Width: 450
Flags: W
HStem: -200 100<81 156> 400 100<81 119 381 419>
VStem: 81 75<400 500> 119 75<300 400> 156 75<-100 0 200 300> 194 112<100 200> 194 75<0 100> 269 75<200 300> 306 75<300 400> 344 75<400 500>
LayerCount: 2
Back
Fore
SplineSet
81 500 m 29xe0
 156 500 l 25
 156 400 l 25xe0
 194 400 l 25
 194 300 l 25xd0
 231 300 l 25
 231 200 l 25
 269 200 l 25
 269 300 l 25xc9
 306 300 l 25
 306 400 l 25xc080
 344 400 l 25
 344 500 l 25
 419 500 l 25
 419 400 l 25xc040
 381 400 l 25
 381 300 l 25xc080
 344 300 l 25
 344 200 l 25xc1
 306 200 l 25
 306 100 l 25xc4
 269 100 l 25
 269 0 l 25xc2
 231 0 l 25
 231 -100 l 25xc8
 194 -100 l 25
 194 -200 l 25
 81 -200 l 25
 81 -100 l 25xe2
 156 -100 l 25
 156 0 l 25xc8
 194 0 l 25xc2
 194 200 l 25xc4
 156 200 l 25
 156 300 l 25xc8
 119 300 l 25
 119 400 l 25xd0
 81 400 l 25
 81 500 l 29xe0
EndSplineSet
Validated: 1
EndChar

StartChar: uni0444
Encoding: 1092 1092 163
Width: 450
Flags: W
HStem: -200 21G<212 288> 0 100<138 212 288 362> 400 100<138 212 288 362> 680 20G<212 288>
VStem: 62 76<100 400> 100 300<0 100 400 500> 212 76<-200 0 100 400 500 700> 362 76<100 400>
LayerCount: 2
Back
Fore
SplineSet
212 400 m 29xfa
 138 400 l 25
 138 100 l 25
 212 100 l 25
 212 400 l 29xfa
288 400 m 25
 288 100 l 25
 362 100 l 25
 362 400 l 25xf3
 288 400 l 25
212 700 m 25
 288 700 l 25
 288 500 l 25xf2
 400 500 l 25
 400 400 l 25xf4
 438 400 l 25
 438 100 l 25xf1
 400 100 l 25
 400 0 l 25xf4
 288 0 l 25
 288 -200 l 25
 212 -200 l 25
 212 0 l 25xf2
 100 0 l 25
 100 100 l 25xf4
 62 100 l 25
 62 400 l 25xf8
 100 400 l 25
 100 500 l 25xf4
 212 500 l 25
 212 700 l 25
EndSplineSet
Validated: 1
EndChar

StartChar: uni0445
Encoding: 1093 1093 164
Width: 450
Flags: W
HStem: 0 100<62 138 362 438> 200 100<212 288> 400 100<62 138 362 438>
VStem: 62 113<0 100 400 500> 138 74<100 200 300 400> 288 74<100 200 300 400> 325 113<0 100 400 500>
CounterMasks: 1 e0
LayerCount: 2
Back
Fore
SplineSet
62 500 m 29xf0
 175 500 l 25
 175 400 l 25xf0
 212 400 l 25
 212 300 l 25
 288 300 l 25
 288 400 l 25xec
 325 400 l 25
 325 500 l 25
 438 500 l 25
 438 400 l 25xe2
 362 400 l 25
 362 300 l 25xe4
 325 300 l 25
 325 200 l 25xe2
 362 200 l 25
 362 100 l 25xe4
 438 100 l 25
 438 0 l 25
 325 0 l 25
 325 100 l 25xe2
 288 100 l 25
 288 200 l 25
 212 200 l 25
 212 100 l 25xec
 175 100 l 25
 175 0 l 25
 62 0 l 25
 62 100 l 25xf0
 138 100 l 25
 138 200 l 25xe8
 175 200 l 25
 175 300 l 25xf0
 138 300 l 25
 138 400 l 25xe8
 62 400 l 25
 62 500 l 29xf0
EndSplineSet
Validated: 1
EndChar

StartChar: uni0446
Encoding: 1094 1094 165
Width: 450
Flags: W
HStem: 0 100<156 269> 480 20G<81 156 269 344>
VStem: 81 75<100 500> 269 75<100 500> 344 75<-100 0>
LayerCount: 2
Back
Fore
SplineSet
81 500 m 29xe8
 156 500 l 25
 156 100 l 25
 269 100 l 25
 269 500 l 25
 344 500 l 25
 344 100 l 25xf0
 419 100 l 25
 419 -100 l 25
 344 -100 l 25
 344 0 l 25
 81 0 l 25
 81 500 l 29xe8
EndSplineSet
Validated: 1
EndChar

StartChar: uni0447
Encoding: 1095 1095 166
Width: 450
Flags: W
HStem: 0 21G<344 419> 200 100<156 344> 480 20G<81 156 344 419>
VStem: 81 75<300 500> 344 75<0 200 300 500>
LayerCount: 2
Back
Fore
SplineSet
81 500 m 29
 156 500 l 25
 156 300 l 25
 344 300 l 25
 344 500 l 25
 419 500 l 25
 419 0 l 25
 344 0 l 25
 344 200 l 25
 119 200 l 25
 119 300 l 25
 81 300 l 25
 81 500 l 29
EndSplineSet
Validated: 1
EndChar

StartChar: uni0448
Encoding: 1096 1096 167
Width: 450
Flags: W
HStem: 0 100<138 212 288 362> 480 20G<62 138 212 288 362 438>
VStem: 62 76<100 500> 212 76<100 500> 362 76<100 500>
CounterMasks: 1 38
LayerCount: 2
Back
Fore
SplineSet
62 500 m 29
 138 500 l 25
 138 100 l 25
 212 100 l 25
 212 500 l 25
 288 500 l 25
 288 100 l 25
 362 100 l 25
 362 500 l 25
 438 500 l 25
 438 0 l 25
 62 0 l 25
 62 500 l 29
EndSplineSet
Validated: 1
EndChar

StartChar: uni0449
Encoding: 1097 1097 168
Width: 450
Flags: W
HStem: 0 100<119 194 269 344> 480 20G<44 119 194 269 344 419>
VStem: 44 75<100 500> 194 75<100 500> 344 75<100 500> 381 75<-100 0>
LayerCount: 2
Back
Fore
SplineSet
44 500 m 29xf4
 119 500 l 25
 119 100 l 25
 194 100 l 25
 194 500 l 25
 269 500 l 25
 269 100 l 25
 344 100 l 25
 344 500 l 25
 419 500 l 25
 419 100 l 25xf8
 456 100 l 25
 456 -100 l 25
 381 -100 l 25
 381 0 l 25
 44 0 l 25
 44 500 l 29xf4
EndSplineSet
Validated: 1
EndChar

StartChar: uni044A
Encoding: 1098 1098 169
Width: 450
Flags: W
HStem: 0 100<212 362> 100 100<400 438> 200 100<212 362> 400 100<62 138>
VStem: 62 150<400 500> 138 262<0 100 200 300> 138 74<100 200 300 400> 362 76<100 200>
LayerCount: 2
Back
Fore
SplineSet
212 200 m 29xb3
 212 100 l 25
 362 100 l 25
 362 200 l 25
 212 200 l 29xb3
62 500 m 25x98
 212 500 l 25x98
 212 300 l 25xb2
 400 300 l 25xb4
 400 200 l 25x54
 438 200 l 25
 438 100 l 25x51
 400 100 l 25x54
 400 0 l 25
 138 0 l 25x94
 138 400 l 25x92
 62 400 l 25
 62 500 l 25x98
EndSplineSet
Validated: 1
EndChar

StartChar: uni044B
Encoding: 1099 1099 170
Width: 450
Flags: W
HStem: 0 100<138 250> 200 100<138 250> 480 20G<62 138 362 438>
VStem: 62 226<0 100 200 300> 62 76<100 200 300 500> 250 75<100 200> 362 76<0 500>
LayerCount: 2
Back
Fore
SplineSet
362 0 m 29xe2
 362 500 l 25
 438 500 l 25
 438 0 l 25
 362 0 l 29xe2
138 200 m 25xee
 138 100 l 25
 250 100 l 25
 250 200 l 25
 138 200 l 25xee
62 500 m 25
 138 500 l 25
 138 300 l 25xea
 288 300 l 25
 288 200 l 25xf2
 325 200 l 25
 325 100 l 25xe6
 288 100 l 25
 288 0 l 25
 62 0 l 25xf2
 62 500 l 25
EndSplineSet
Validated: 1
EndChar

StartChar: uni044C
Encoding: 1100 1100 171
Width: 450
Flags: W
HStem: 0 100<156 344> 100 100<381 419> 200 100<156 344> 480 20G<81 156>
VStem: 81 300<0 100 200 300> 81 75<100 200 300 500> 344 75<100 200>
LayerCount: 2
Back
Fore
SplineSet
156 100 m 1xb6
 344 100 l 1
 344 200 l 1
 156 200 l 1
 156 100 l 1xb6
81 500 m 1
 156 500 l 1
 156 300 l 5xb4
 381 300 l 1xb8
 381 200 l 25x58
 419 200 l 25
 419 100 l 25x52
 381 100 l 25x58
 381 0 l 1
 81 0 l 1x98
 81 500 l 1
EndSplineSet
Validated: 1
EndChar

StartChar: uni044D
Encoding: 1101 1101 172
Width: 450
Flags: W
HStem: 0 100<156 344> 100 100<81 119> 200 100<231 344> 300 100<81 119> 400 100<156 344>
VStem: 81 75<100 200 300 400> 119 262<0 100 400 500> 231 188<200 300> 344 75<100 200 300 400>
LayerCount: 2
Back
Fore
SplineSet
81 300 m 29x1480
 81 400 l 25x1480
 119 400 l 25x12
 119 500 l 25
 381 500 l 25
 381 400 l 25x0a
 419 400 l 25
 419 100 l 25x4880
 381 100 l 25x4a
 381 0 l 25
 119 0 l 25x82
 119 100 l 25x42
 81 100 l 25
 81 200 l 25x44
 156 200 l 25
 156 100 l 25
 344 100 l 25
 344 200 l 25xa480
 231 200 l 25
 231 300 l 25xa1
 344 300 l 25
 344 400 l 25
 156 400 l 25xac80
 156 300 l 25
 81 300 l 29x1480
EndSplineSet
Validated: 1
EndChar

StartChar: uni044E
Encoding: 1102 1102 173
Width: 450
Flags: W
HStem: 0 100<269 344> 200 100<156 194> 400 100<269 344>
VStem: 81 75<0 200 300 500> 194 75<100 200 300 400> 231 150<0 100 400 500> 344 75<100 400>
CounterMasks: 1 e0
LayerCount: 2
Back
Fore
SplineSet
269 100 m 29xfa
 344 100 l 25
 344 400 l 25
 269 400 l 25
 269 100 l 29xfa
81 0 m 25
 81 500 l 25
 156 500 l 25
 156 300 l 25
 194 300 l 25
 194 400 l 25xf8
 231 400 l 25
 231 500 l 25
 381 500 l 25
 381 400 l 25xf4
 419 400 l 25
 419 100 l 25xf2
 381 100 l 25
 381 0 l 25
 231 0 l 25
 231 100 l 25xf4
 194 100 l 25
 194 200 l 25
 156 200 l 25
 156 0 l 25
 81 0 l 25
EndSplineSet
Validated: 1
EndChar

StartChar: uni044F
Encoding: 1103 1103 174
Width: 450
Flags: W
HStem: 0 100<119 194> 200 100<156 194 306 344> 300 100<81 119> 400 100<156 344>
VStem: 81 75<300 400> 119 112<0 100> 194 112<100 200> 344 75<0 200 300 400>
LayerCount: 2
Back
Fore
SplineSet
156 400 m 29xd9
 156 300 l 25
 344 300 l 25
 344 400 l 25
 156 400 l 29xd9
81 400 m 25xa9
 119 400 l 25xa5
 119 500 l 25x95
 419 500 l 25
 419 0 l 25
 344 0 l 25
 344 200 l 25
 306 200 l 25
 306 100 l 25xd3
 231 100 l 25
 231 0 l 25
 119 0 l 25
 119 100 l 25xd5
 194 100 l 25
 194 200 l 25xd3
 119 200 l 25xd5
 119 300 l 25xa5
 81 300 l 25
 81 400 l 25xa9
EndSplineSet
Validated: 1
EndChar

StartChar: uni2116
Encoding: 8470 8470 175
Width: 450
Flags: W
HStem: 0 21G<25 100 175 250> 200 100<288 475> 400 100<362 400> 500 100<288 325 438 475> 600 100<362 400>
VStem: 25 113<400 600> 25 75<0 250 600 700> 138 112<100 250> 175 75<0 100 400 700> 288 74<500 600> 325 113<400 500 600 700> 400 75<500 600>
LayerCount: 2
Back
Fore
SplineSet
288 300 m 29xc050
 475 300 l 25
 475 200 l 25
 288 200 l 25
 288 300 l 29xc050
362 600 m 25xe850
 362 500 l 25
 400 500 l 25
 400 600 l 25
 362 600 l 25xe850
325 600 m 25xd020
 325 700 l 25
 438 700 l 25xc820
 438 600 l 25xd020
 475 600 l 25
 475 500 l 25xd010
 438 500 l 25xd020
 438 400 l 25
 325 400 l 25xe020
 325 500 l 25xd020
 288 500 l 25
 288 600 l 25xd040
 325 600 l 25xd020
25 0 m 25xeb
 25 700 l 25
 100 700 l 25
 100 600 l 25xeb
 138 600 l 25
 138 400 l 25
 175 400 l 25
 175 700 l 25
 250 700 l 25
 250 0 l 25
 175 0 l 25
 175 100 l 25xec80
 138 100 l 25
 138 250 l 25
 100 250 l 25
 100 0 l 25
 25 0 l 25xeb
EndSplineSet
Validated: 1
EndChar

StartChar: asciitilde
Encoding: 126 126 176
Width: 450
Flags: W
HStem: 500 100<81 119 269 344> 600 100<156 231 381 419>
VStem: 81 75<501 600> 344 75<600 700>
LayerCount: 2
Back
Fore
SplineSet
81 600 m 29xb0
 119 600 l 25xb0
 119 700 l 25
 269 700 l 25x70
 269 600 l 25
 344 600 l 25xb0
 344 700 l 25
 419 700 l 25
 419 600 l 25
 381 600 l 25x70
 381 500 l 25
 231 500 l 25xb0
 231 600 l 25
 156 600 l 25x70
 156 500 l 25
 81 501 l 25
 81 600 l 29xb0
EndSplineSet
Validated: 1
EndChar

StartChar: section
Encoding: 167 167 177
Width: 450
Flags: W
HStem: 0 100<138 250> 100 100<62 100> 200 100<212 250> 300 100<138 175 325 362> 400 100<250 288> 500 100<400 438> 600 100<250 362>
VStem: 62 76<100 200> 138 74<300 400> 175 75<500 600> 250 75<100 200> 288 74<300 400> 362 76<500 600>
LayerCount: 2
Back
Fore
SplineSet
288 400 m 29x0890
 212 400 l 25
 212 300 l 25x2890
 288 300 l 25x1090
 288 400 l 29x0890
362 500 m 25x0488
 362 600 l 25
 250 600 l 25
 250 500 l 25x0a48
 325 500 l 25
 325 400 l 25x1420
 362 400 l 25
 362 300 l 25x1410
 325 300 l 25
 325 100 l 25x5420
 288 100 l 25x5410
 288 0 l 25
 100 0 l 25x8010
 100 100 l 25
 62 100 l 25
 62 200 l 25x4110
 138 200 l 25
 138 100 l 25
 250 100 l 25
 250 200 l 25xa120
 175 200 l 25xa040
 175 300 l 25x1040
 138 300 l 25
 138 400 l 25x1080
 175 400 l 25
 175 600 l 25x1240
 212 600 l 25
 212 700 l 25
 400 700 l 25x1280
 400 600 l 25
 438 600 l 25
 438 500 l 25
 362 500 l 25x0488
EndSplineSet
Validated: 1
EndChar

StartChar: parenleft
Encoding: 40 40 178
Width: 450
Flags: W
HStem: 0 100<269 344> 600 100<269 344>
VStem: 156 75<200 500> 194 75<100 200 500 600> 231 113<0 100 600 700>
LayerCount: 2
Back
Fore
SplineSet
231 600 m 29xc8
 231 700 l 25
 344 700 l 25
 344 600 l 25xc8
 269 600 l 25
 269 500 l 25xd0
 231 500 l 25
 231 200 l 25xe0
 269 200 l 25
 269 100 l 25xd0
 344 100 l 25
 344 0 l 25
 231 0 l 25
 231 100 l 25xc8
 194 100 l 25
 194 200 l 25xd0
 156 200 l 25
 156 500 l 25xe0
 194 500 l 25
 194 600 l 25xd0
 231 600 l 29xc8
EndSplineSet
Validated: 1
EndChar

StartChar: quotedbl
Encoding: 34 34 179
Width: 450
Flags: W
HStem: 400 100<100 138 288 325> 600 100<100 138 288 325>
VStem: 100 75<400 500> 138 74<500 600> 288 74<400 500> 325 75<500 600>
LayerCount: 2
Back
Fore
SplineSet
288 400 m 29xc8
 288 500 l 29xc8
 325 500 l 29
 325 600 l 29xc4
 288 600 l 29
 288 700 l 29xc8
 400 700 l 29
 400 500 l 29xc4
 362 500 l 29
 362 400 l 29
 288 400 l 29xc8
100 600 m 29xe0
 100 700 l 29xe0
 212 700 l 29
 212 500 l 29xd0
 175 500 l 29
 175 400 l 29
 100 400 l 29
 100 500 l 29xe0
 138 500 l 29
 138 600 l 29xd0
 100 600 l 29xe0
EndSplineSet
Validated: 1
EndChar

StartChar: numbersign
Encoding: 35 35 180
Width: 450
Flags: W
HStem: 0 21G<138 212 288 362> 200 100<62 138 212 288 362 438> 400 100<62 138 212 288 362 438> 680 20G<138 212 288 362>
VStem: 138 74<0 200 300 400 500 700> 288 74<0 200 300 400 500 700>
LayerCount: 2
Back
Fore
SplineSet
212 300 m 29
 288 300 l 25
 288 400 l 25
 212 400 l 25
 212 300 l 29
138 700 m 25
 212 700 l 25
 212 500 l 25
 288 500 l 25
 288 700 l 25
 362 700 l 25
 362 500 l 25
 438 500 l 25
 438 400 l 25
 362 400 l 25
 362 300 l 25
 438 300 l 25
 438 200 l 25
 362 200 l 25
 362 0 l 25
 288 0 l 25
 288 200 l 25
 212 200 l 25
 212 0 l 25
 138 0 l 25
 138 200 l 25
 62 200 l 25
 62 300 l 25
 138 300 l 25
 138 400 l 25
 62 400 l 25
 62 500 l 25
 138 500 l 25
 138 700 l 25
EndSplineSet
Validated: 1
EndChar

StartChar: dollar
Encoding: 36 36 181
Width: 450
Flags: W
HStem: 0 100<138 212 288 362> 100 100<62 100> 300 100<138 212 288 362> 500 100<400 438> 600 100<138 212 288 362>
VStem: 62 76<100 200 400 600> 100 300<0 100 300 400 600 700> 212 76<-100 0 100 300 400 600 700 800> 362 76<100 300 500 600>
LayerCount: 2
Back
Fore
SplineSet
362 100 m 29xa180
 362 300 l 25
 288 300 l 25
 288 100 l 25
 362 100 l 29xa180
212 600 m 25x2d
 138 600 l 25
 138 400 l 25
 212 400 l 25
 212 600 l 25x2d
288 800 m 25
 288 700 l 1xa9
 400 700 l 25xaa
 400 600 l 25x32
 438 600 l 25
 438 500 l 25
 362 500 l 25x3080
 362 600 l 25
 288 600 l 25
 288 400 l 25x2980
 400 400 l 25
 400 300 l 25x2a
 438 300 l 25
 438 100 l 25x6880
 400 100 l 25x6a
 400 0 l 25xa2
 288 0 l 25
 288 -100 l 25
 212 -100 l 25
 212 0 l 25xa1
 100 0 l 25xa2
 100 100 l 25x62
 62 100 l 25
 62 200 l 25
 138 200 l 25x64
 138 100 l 25
 212 100 l 25
 212 300 l 25xa5
 100 300 l 25
 100 400 l 25xa2
 62 400 l 25
 62 600 l 25xac
 100 600 l 25
 100 700 l 25xaa
 212 700 l 25
 212 800 l 1
 288 800 l 25
EndSplineSet
Validated: 1
EndChar

StartChar: percent
Encoding: 37 37 182
Width: 450
Flags: W
HStem: 0 100<100 138 362 400> 100 100<288 325 438 475> 200 100<362 400> 400 100<100 138> 500 100<25 62 175 212> 600 100<100 138 362 400>
VStem: 25 75<500 600> 62 113<400 500 600 700> 100 75<0 100> 138 74<100 200 500 600> 175 75<200 300> 212 76<300 400> 250 75<400 500> 288 74<100 200 500 600> 325 113<0 100 200 300> 325 75<600 700> 400 75<100 200>
LayerCount: 2
Back
Fore
SplineSet
325 700 m 29x0401
 400 700 l 25
 400 600 l 25x0401
 362 600 l 25x0404
 362 500 l 25x0804
 325 500 l 25x0808
 325 400 l 25x1008
 288 400 l 25
 288 300 l 25x3010
 250 300 l 25
 250 200 l 25x3020
 212 200 l 25x3040
 212 100 l 25x4040
 175 100 l 25x4080
 175 0 l 25
 100 0 l 25
 100 100 l 25x8080
 138 100 l 25
 138 200 l 25xa040
 175 200 l 25
 175 300 l 25xa020
 212 300 l 25
 212 400 l 25xb010
 250 400 l 25xb008
 250 500 l 25x0808
 288 500 l 25x0804
 288 600 l 25x0404
 325 600 l 25
 325 700 l 29x0401
362 100 m 25xa00480
 400 100 l 25
 400 200 l 25
 362 200 l 25
 362 100 l 25xa00480
325 300 m 25x2002
 438 300 l 25x2002
 438 200 l 25x4002
 475 200 l 25
 475 100 l 25x400080
 438 100 l 25x4002
 438 0 l 25
 325 0 l 25x8002
 325 100 l 25x4002
 288 100 l 25
 288 200 l 25x4004
 325 200 l 25x4002
 325 300 l 25x2002
100 600 m 25x1640
 100 500 l 25
 138 500 l 25
 138 600 l 25
 100 600 l 25x1640
25 600 m 25x0a
 62 600 l 25x09
 62 700 l 25
 175 700 l 25x05
 175 600 l 25x09
 212 600 l 25
 212 500 l 25x0840
 175 500 l 25x09
 175 400 l 25
 62 400 l 25x11
 62 500 l 25x09
 25 500 l 25
 25 600 l 25x0a
EndSplineSet
Validated: 1
EndChar

StartChar: ampersand
Encoding: 38 38 183
Width: 450
Flags: W
HStem: 0 100<119 269 381 456> 100 100<44 81 306 344> 200 100<381 419> 300 100<156 231> 600 100<156 231>
VStem: 44 75<100 200> 81 75<200 300 400 600> 119 150<300 400 600 700> 231 75<200 300 400 600> 344 112<0 100> 344 75<200 300>
LayerCount: 2
Back
Fore
SplineSet
156 300 m 29x1a80
 156 200 l 25x2a80
 119 200 l 25
 119 100 l 25xac
 269 100 l 25
 269 200 l 25xa9
 231 200 l 25xa880
 231 300 l 25
 156 300 l 29x1a80
156 600 m 25
 156 400 l 25
 231 400 l 25x1a80
 231 600 l 25
 156 600 l 25
119 700 m 25x59
 269 700 l 25
 269 600 l 25x59
 306 600 l 25
 306 400 l 25x5880
 269 400 l 25
 269 300 l 25x59
 306 300 l 25
 306 200 l 25
 344 200 l 25
 344 300 l 25x58a0
 419 300 l 25
 419 200 l 25x28a0
 381 200 l 25
 381 100 l 25
 456 100 l 25
 456 0 l 25
 344 0 l 25xa840
 344 100 l 25
 306 100 l 25x48c0
 306 0 l 25
 81 0 l 25x8ac0
 81 100 l 25x4ac0
 44 100 l 25
 44 200 l 25x4c
 81 200 l 25
 81 300 l 25x5a
 119 300 l 25
 119 400 l 25x59
 81 400 l 25
 81 600 l 25x5a
 119 600 l 25
 119 700 l 25x59
EndSplineSet
Validated: 1
EndChar

StartChar: quotesingle
Encoding: 39 39 184
Width: 450
Flags: W
HStem: 400 100<100 138 288 325> 600 100<100 138 288 325>
VStem: 100 75<400 500> 138 74<500 600> 288 74<400 500> 325 75<500 600>
LayerCount: 2
Back
Fore
SplineSet
288 400 m 29xc8
 288 500 l 29xc8
 325 500 l 29
 325 600 l 29xc4
 288 600 l 29
 288 700 l 29xc8
 400 700 l 29
 400 500 l 29xc4
 362 500 l 29
 362 400 l 29
 288 400 l 29xc8
100 600 m 29xe0
 100 700 l 29xe0
 212 700 l 29
 212 500 l 29xd0
 175 500 l 29
 175 400 l 29
 100 400 l 29
 100 500 l 29xe0
 138 500 l 29
 138 600 l 29xd0
 100 600 l 29xe0
EndSplineSet
Validated: 1
EndChar

StartChar: parenright
Encoding: 41 41 185
Width: 450
Flags: W
HStem: 0 100<156 231> 600 100<156 231>
VStem: 156 113<0 100 600 700> 231 75<100 200 500 600> 269 75<200 500>
LayerCount: 2
Back
Fore
SplineSet
156 700 m 29xe0
 269 700 l 25
 269 600 l 25xe0
 306 600 l 25
 306 500 l 25xd0
 344 500 l 25
 344 200 l 25xc8
 306 200 l 25
 306 100 l 25xd0
 269 100 l 25
 269 0 l 25
 156 0 l 25
 156 100 l 25xe0
 231 100 l 25
 231 200 l 25xd0
 269 200 l 25
 269 500 l 25xc8
 231 500 l 25
 231 600 l 25xd0
 156 600 l 25
 156 700 l 29xe0
EndSplineSet
Validated: 1
EndChar

StartChar: braceleft
Encoding: 123 123 186
Width: 450
Flags: W
HStem: 0 100<288 362> 300 100<138 212> 600 100<288 362>
VStem: 138 112<300 400> 212 76<100 300 400 600> 250 112<0 100 600 700>
CounterMasks: 1 e0
LayerCount: 2
Back
Fore
SplineSet
362 700 m 29xe4
 362 600 l 1xe4
 288 600 l 25
 288 400 l 25xe8
 250 400 l 25
 250 300 l 25xf0
 288 300 l 25
 288 100 l 25xe8
 362 100 l 25
 362 0 l 25
 250 0 l 25
 250 100 l 25xe4
 212 100 l 25
 212 300 l 25xe8
 138 300 l 25
 138 400 l 25xf0
 212 400 l 25
 212 600 l 25xe8
 250 600 l 25
 250 700 l 1
 362 700 l 29xe4
EndSplineSet
Validated: 1
EndChar

StartChar: bar
Encoding: 124 124 187
Width: 450
Flags: W
HStem: 0 21G<212 288> 680 20G<212 288>
VStem: 212 76<0 700>
LayerCount: 2
Back
Fore
SplineSet
212 700 m 29
 288 700 l 25
 288 0 l 25
 212 0 l 25
 212 700 l 29
EndSplineSet
Validated: 1
EndChar

StartChar: braceright
Encoding: 125 125 188
Width: 450
Flags: W
HStem: 0 100<138 212> 300 100<288 362> 600 100<138 212>
VStem: 138 112<0 100 600 700> 212 76<100 300 400 600> 250 112<300 400>
CounterMasks: 1 e0
LayerCount: 2
Back
Fore
SplineSet
138 700 m 29xf0
 250 700 l 25
 250 600 l 25xf0
 288 600 l 25
 288 400 l 25xe8
 362 400 l 25
 362 300 l 25xe4
 288 300 l 25
 288 100 l 25xe8
 250 100 l 25
 250 0 l 25
 138 0 l 25
 138 100 l 25xf0
 212 100 l 25
 212 300 l 25xe8
 250 300 l 25
 250 400 l 25xe4
 212 400 l 25
 212 600 l 25xe8
 138 600 l 25
 138 700 l 29xf0
EndSplineSet
Validated: 1
EndChar

StartChar: uni0451
Encoding: 1105 1105 189
Width: 450
Flags: W
HStem: 0 100<156 381> 200 100<156 344> 400 100<156 344> 600 100<119 194 306 381>
VStem: 81 75<100 200 300 400> 119 75<600 700> 306 75<600 700> 344 75<300 400>
LayerCount: 2
Back
Fore
SplineSet
306 700 m 25xf2
 381 700 l 25
 381 600 l 25
 306 600 l 25
 306 700 l 25xf2
119 700 m 25xf4
 194 700 l 25
 194 600 l 25
 119 600 l 25
 119 700 l 25xf4
156 400 m 1xf9
 156 300 l 1
 344 300 l 1
 344 400 l 1
 156 400 l 1xf9
119 400 m 1xf4
 119 500 l 1
 381 500 l 1
 381 400 l 25xf6
 419 400 l 25
 419 200 l 1
 156 200 l 1
 156 100 l 1xf9
 381 100 l 1
 381 0 l 1
 119 0 l 1
 119 100 l 1xf6
 81 100 l 1
 81 400 l 5xf8
 119 400 l 1xf4
EndSplineSet
Validated: 1
EndChar

StartChar: underscore
Encoding: 95 95 190
Width: 450
Flags: W
HStem: -100 100<62 438>
LayerCount: 2
Back
Fore
SplineSet
62 -100 m 29
 62 0 l 1
 438 0 l 25
 438 -100 l 1
 62 -100 l 29
EndSplineSet
Validated: 1
EndChar

StartChar: asciicircum
Encoding: 94 94 191
Width: 450
Flags: W
HStem: 400 100<119 156 344 381> 600 100<231 269>
VStem: 119 75<400 500> 156 75<500 600> 269 75<500 600> 306 75<400 500>
LayerCount: 2
Back
Fore
SplineSet
119 400 m 29xe0
 119 500 l 25xe0
 156 500 l 25
 156 600 l 25xd0
 194 600 l 25
 194 700 l 25
 306 700 l 25
 306 600 l 25xe4
 344 600 l 25
 344 500 l 25xc8
 381 500 l 25
 381 400 l 25
 306 400 l 25
 306 500 l 25xc4
 269 500 l 25
 269 600 l 25
 231 600 l 25
 231 500 l 25xd8
 194 500 l 25
 194 400 l 25
 119 400 l 29xe0
EndSplineSet
Validated: 1
EndChar

StartChar: grave
Encoding: 96 96 192
Width: 450
Flags: W
HStem: 400 300
VStem: 175 75<600 700> 212 76<500 600> 250 75<400 500>
LayerCount: 2
Back
Fore
SplineSet
175 700 m 29xc0
 250 700 l 25
 250 600 l 25xc0
 288 600 l 25
 288 500 l 25xa0
 325 500 l 25
 325 400 l 25
 250 400 l 25
 250 500 l 25x90
 212 500 l 25
 212 600 l 25xa0
 175 600 l 25
 175 700 l 29xc0
EndSplineSet
Validated: 1
EndChar

StartChar: bracketleft
Encoding: 91 91 193
Width: 450
Flags: W
HStem: 0 100<250 325> 600 100<250 325>
VStem: 175 150<0 100 600 700> 175 75<100 600>
LayerCount: 2
Back
Fore
SplineSet
325 600 m 29xe0
 250 600 l 25
 250 100 l 25xd0
 325 100 l 25
 325 0 l 25
 175 0 l 25
 175 700 l 25
 325 700 l 25
 325 600 l 29xe0
EndSplineSet
Validated: 1
EndChar

StartChar: bracketright
Encoding: 93 93 194
Width: 450
Flags: W
HStem: 0 100<175 250> 600 100<175 250>
VStem: 175 150<0 100 600 700> 250 75<100 600>
LayerCount: 2
Back
Fore
SplineSet
175 700 m 29xe0
 324 700 l 1
 325 0 l 25
 175 0 l 25
 175 100 l 25xe0
 250 100 l 25
 250 600 l 25xd0
 175 600 l 1
 175 700 l 29xe0
EndSplineSet
Validated: 1
EndChar

StartChar: backslash
Encoding: 92 92 195
Width: 450
Flags: W
HStem: 0 100<362 400> 600 100<100 138>
VStem: 100 75<600 700> 138 74<500 600> 175 75<400 500> 212 76<300 400> 250 75<200 300> 288 74<100 200> 325 75<0 100>
LayerCount: 2
Back
Fore
SplineSet
100 600 m 29xe0
 100 700 l 25
 175 700 l 25
 175 600 l 25xe0
 212 600 l 25
 212 500 l 25xd0
 250 500 l 25
 250 400 l 25xc8
 288 400 l 25
 288 300 l 25xc4
 325 300 l 25
 325 200 l 25xc2
 362 200 l 25
 362 100 l 25xc1
 400 100 l 25
 400 0 l 25
 325 0 l 25
 325 100 l 25xc080
 288 100 l 25
 288 200 l 25xc1
 250 200 l 25
 250 300 l 25xc2
 212 300 l 25
 212 400 l 25xc4
 175 400 l 25
 175 500 l 25xc8
 138 500 l 25
 138 600 l 25xd0
 100 600 l 29xe0
EndSplineSet
Validated: 1
EndChar

StartChar: Odieresis
Encoding: 214 214 196
Width: 450
Flags: HMW
LayerCount: 2
Back
Fore
SplineSet
175 500 m 29
 175 400 l 25
 138 400 l 25
 138 200 l 25
 175 200 l 25
 175 100 l 25
 325 100 l 25
 325 200 l 25
 362 200 l 25
 362 400 l 25
 325 400 l 25
 325 500 l 25
 175 500 l 29
138 600 m 25
 362 600 l 25
 362 500 l 25
 400 500 l 25
 400 400 l 25
 438 400 l 25
 438 200 l 25
 400 200 l 25
 400 100 l 25
 362 100 l 25
 362 0 l 25
 138 0 l 25
 138 100 l 25
 100 100 l 25
 100 200 l 25
 62 200 l 25
 62 400 l 25
 100 400 l 25
 100 500 l 25
 138 500 l 25
 138 600 l 25
288 700 m 25
 288 800 l 25
 362 800 l 25
 362 700 l 25
 288 700 l 25
138 700 m 25
 138 800 l 25
 212 800 l 25
 212 700 l 25
 138 700 l 25
EndSplineSet
Validated: 1
EndChar

StartChar: acute
Encoding: 180 180 197
Width: 450
Flags: W
HStem: 400 300
VStem: 175 75<400 500> 212 76<500 600> 250 75<600 700>
LayerCount: 2
Back
Fore
SplineSet
250 600 m 29x90
 250 700 l 25
 325 700 l 25
 325 600 l 25x90
 288 600 l 25
 288 500 l 25xa0
 250 500 l 25
 250 400 l 25
 175 400 l 25
 175 500 l 25xc0
 212 500 l 25
 212 600 l 25xa0
 250 600 l 29x90
EndSplineSet
Validated: 1
EndChar

StartChar: plusminus
Encoding: 177 177 198
Width: 450
Flags: W
HStem: 100 100<100 400> 451 99<100 212 288 400> 680 20G<212 288>
VStem: 100 300<101 200 451 550> 212 76<300 450 550 700>
LayerCount: 2
Back
Fore
SplineSet
100 200 m 29xf0
 400 200 l 25
 400 101 l 25
 100 100 l 25
 100 200 l 29xf0
100 550 m 25
 212 550 l 25
 212 700 l 25
 288 700 l 25
 288 550 l 25xe8
 400 551 l 25
 400 450 l 25xf0
 288 450 l 25
 288 300 l 25
 212 300 l 25
 212 451 l 25xe8
 100 451 l 25
 100 550 l 25
EndSplineSet
Validated: 1
EndChar

StartChar: uni20BD
Encoding: 8381 8381 199
Width: 450
Flags: W
HStem: 0 21G<119 194> 150 100<44 119 194 344> 300 100<44 119 194 381> 600 100<194 381>
VStem: 119 75<0 150 250 300 400 600> 381 75<400 600>
LayerCount: 2
Back
Fore
SplineSet
194 400 m 25
 381 400 l 25
 381 600 l 25
 194 600 l 25
 194 400 l 25
119 700 m 25
 419 700 l 25
 419 650 l 25
 456 650 l 25
 456 400 l 25
 419 400 l 25
 419 300 l 25
 194 300 l 25
 194 250 l 1
 344 250 l 5
 344 150 l 1
 194 150 l 1
 194 0 l 25
 119 0 l 25
 119 150 l 25
 44 150 l 25
 44 250 l 25
 119 250 l 25
 119 300 l 25
 44 300 l 25
 44 400 l 25
 119 400 l 25
 119 700 l 25
EndSplineSet
Validated: 1
EndChar

StartChar: Udieresis
Encoding: 220 220 200
Width: 450
Flags: W
HStem: 0 100<156 344> 700 100<119 194 306 381>
VStem: 81 75<100 600> 119 75<700 800> 306 75<700 800> 344 75<100 600>
LayerCount: 2
Back
Fore
SplineSet
306 800 m 29xc8
 381 800 l 25
 381 700 l 25
 306 700 l 25
 306 800 l 29xc8
119 700 m 25xd0
 119 800 l 25
 194 800 l 25
 194 700 l 25
 119 700 l 25xd0
81 600 m 1xe0
 156 600 l 1
 156 100 l 1
 344 100 l 1
 344 600 l 1
 419 600 l 1
 419 100 l 1xe4
 381 100 l 25
 381 0 l 25
 119 0 l 25
 119 100 l 25xd8
 81 100 l 1
 81 600 l 1xe0
EndSplineSet
Validated: 1
EndChar

StartChar: Adieresis
Encoding: 196 196 201
Width: 450
Flags: W
HStem: 0 21G<62 138 362 438> 200 100<138 362> 500 100<175 325> 700 100<138 212 288 362>
VStem: 62 76<0 200 300 400> 100 75<400 500> 138 74<700 800> 288 74<700 800> 325 75<400 500> 362 76<0 200 300 400>
LayerCount: 2
Back
Fore
SplineSet
288 700 m 25xf1
 288 800 l 25
 362 800 l 25
 362 700 l 25
 288 700 l 25xf1
138 700 m 25xf2
 138 800 l 25
 212 800 l 25
 212 700 l 25
 138 700 l 25xf2
138 300 m 25xf8
 362 300 l 25
 362 400 l 25xf840
 325 400 l 1
 325 500 l 25
 175 500 l 1
 175 400 l 29xf480
 138 400 l 1
 138 300 l 25xf8
62 0 m 25
 62 400 l 1xf840
 100 400 l 25
 100 500 l 25xf4
 138 500 l 25
 138 600 l 25
 362 600 l 25
 362 500 l 25xf240
 400 500 l 25
 400 400 l 25xf080
 438 400 l 25
 438 0 l 25
 362 0 l 25
 362 200 l 25
 138 200 l 25
 138 0 l 1
 62 0 l 25
EndSplineSet
Validated: 1
EndChar

StartChar: adieresis
Encoding: 228 228 202
Width: 450
Flags: W
HStem: 0 100<138 325 400 437> 100 100<62 100> 200 100<138 325> 400 100<100 325> 600 100<138 212 288 362>
VStem: 62 76<100 200> 138 74<600 700> 288 74<600 700> 325 75<100 200 300 400>
LayerCount: 2
Back
Fore
SplineSet
288 600 m 29x19
 288 700 l 29
 362 700 l 29
 362 600 l 29
 288 600 l 29x19
138 600 m 29x1a
 138 700 l 29
 212 700 l 29
 212 600 l 29
 138 600 l 29x1a
138 200 m 25xbc80
 138 100 l 25
 325 100 l 25
 325 200 l 25
 138 200 l 25xbc80
100 500 m 25
 362 500 l 25
 362 400 l 25x39
 400 400 l 25
 400 100 l 25
 437 100 l 25
 438 0 l 25
 100 0 l 25xb880
 100 100 l 25
 62 100 l 25
 62 200 l 25
 100 200 l 25x5c80
 100 300 l 25
 325 300 l 25
 325 400 l 25
 100 400 l 25
 100 500 l 25
EndSplineSet
Validated: 1
EndChar

StartChar: odieresis
Encoding: 246 246 203
Width: 450
Flags: W
HStem: 0 100<156 344> 400 100<156 344> 600 100<119 194 306 381>
VStem: 81 75<100 400> 119 75<600 700> 306 75<600 700> 344 75<100 400>
LayerCount: 2
Back
Fore
SplineSet
306 600 m 29xe4
 306 700 l 29
 381 700 l 29
 381 600 l 29
 306 600 l 29xe4
119 600 m 25xe8
 119 700 l 25
 194 700 l 25
 194 600 l 25
 119 600 l 25xe8
156 400 m 25xf2
 156 100 l 25
 344 100 l 25
 344 400 l 25
 156 400 l 25xf2
119 500 m 25xe8
 381 500 l 25
 381 400 l 25xec
 419 400 l 25
 419 100 l 25xe2
 381 100 l 25
 381 0 l 25
 119 0 l 25
 119 100 l 25xec
 81 100 l 25
 81 400 l 25xf0
 119 400 l 25
 119 500 l 25xe8
EndSplineSet
Validated: 1
EndChar

StartChar: germandbls
Encoding: 223 223 204
Width: 450
Flags: W
HStem: 0 100<194 344> 300 100<231 306> 600 100<194 306>
VStem: 81 75<0 500> 119 75<500 600> 156 188<600 700> 194 187<0 100> 231 113<300 400> 306 75<400 600> 344 75<100 300>
CounterMasks: 1 e0
LayerCount: 2
Back
Fore
SplineSet
156 600 m 25xe4
 156 700 l 1
 344 700 l 25
 344 600 l 25xe4
 381 600 l 25
 381 400 l 25xe080
 344 400 l 25
 344 300 l 25xe1
 419 300 l 25
 419 100 l 25xe040
 381 100 l 25
 381 0 l 25
 194 0 l 25
 194 100 l 25xe2
 344 100 l 25xe040
 344 300 l 25
 231 300 l 25
 231 400 l 25xe1
 306 400 l 25
 306 600 l 25
 194 600 l 25
 194 500 l 25xe880
 156 500 l 25
 156 0 l 25
 81 0 l 25
 81 500 l 25xf0
 119 500 l 25
 119 600 l 1xe8
 156 600 l 25xe4
EndSplineSet
Validated: 5
EndChar

StartChar: uniFFFD
Encoding: 65533 65533 205
Width: 450
Flags: W
HStem: -200 21G<175 325> 100 100<212 288> 480 20G<212 288> 600 200<175 325>
VStem: 25 187<200 300> 62 76<400 500> 100 112<0 100> 100 75<500 600> 138 224<-100 0 600 700> 175 150<-200 -100 700 800> 212 76<400 500> 288 112<0 100> 325 75<500 600> 362 113<300 400> 362 76<400 500>
LayerCount: 2
Back
Fore
SplineSet
212 200 m 29xf810
 325 200 l 25
 325 300 l 25xf808
 362 300 l 25xf004
 362 500 l 25xf002
 325 500 l 25
 325 600 l 25
 175 600 l 25
 175 500 l 25xf108
 138 500 l 25
 138 400 l 25
 212 400 l 25
 212 500 l 25
 288 500 l 25xf420
 288 300 l 25
 212 300 l 25
 212 200 l 29xf810
212 0 m 25xf210
 288 0 l 25
 288 100 l 25
 212 100 l 25
 212 0 l 25xf210
25 200 m 25xf8
 25 400 l 25xf8
 62 400 l 25
 62 500 l 25xf4
 100 500 l 25
 100 600 l 25xf1
 138 600 l 25
 138 700 l 25xf080
 175 700 l 25
 175 800 l 25
 325 800 l 25
 325 700 l 25xf040
 362 700 l 25
 362 600 l 25xf080
 400 600 l 25
 400 500 l 25xf008
 438 500 l 25
 438 400 l 25xf002
 475 400 l 25
 475 200 l 25xf004
 438 200 l 25
 438 100 l 25xf002
 400 100 l 25
 400 0 l 25xf010
 362 0 l 25
 362 -100 l 25xf080
 325 -100 l 25
 325 -200 l 25
 175 -200 l 25
 175 -100 l 25xf040
 138 -100 l 25
 138 0 l 25xf080
 100 0 l 25
 100 100 l 25xf2
 62 100 l 25
 62 200 l 25xf4
 25 200 l 25xf8
EndSplineSet
Validated: 1
EndChar

StartChar: Oslash
Encoding: 216 216 206
Width: 450
Flags: W
HStem: 0 100<175 325> 600 100<175 325>
VStem: 62 76<200 500> 100 75<100 200 500 600> 138 224<0 100 600 700> 325 75<100 200 500 600> 362 76<200 500>
LayerCount: 2
Back
Fore
SplineSet
325 100 m 29xd4
 325 200 l 25xd4
 362 200 l 25
 362 500 l 25xc2
 325 500 l 25
 325 600 l 25
 175 600 l 25
 175 500 l 25xd4
 138 500 l 25
 138 200 l 25xe0
 175 200 l 25
 175 100 l 25
 325 100 l 29xd4
362 0 m 25xc8
 138 0 l 25
 138 100 l 25xc8
 100 100 l 25
 100 200 l 25xd0
 62 200 l 25
 62 500 l 25xe0
 100 500 l 25
 100 600 l 25xd0
 138 600 l 25
 138 700 l 25
 362 700 l 25
 362 600 l 25xc8
 400 600 l 25
 400 500 l 25xc4
 438 500 l 25
 438 200 l 25xc2
 400 200 l 25
 400 100 l 25xc4
 362 100 l 25
 362 0 l 25xc8
EndSplineSet
Validated: 1
EndChar

StartChar: multiply
Encoding: 215 215 207
Width: 450
Flags: HMW
LayerCount: 2
Back
Fore
SplineSet
138 200 m 29
 138 300 l 25
 212 300 l 25
 212 400 l 25
 138 400 l 25
 138 500 l 25
 212 500 l 25
 212 400 l 25
 288 400 l 25
 288 500 l 25
 362 500 l 25
 362 400 l 25
 288 400 l 25
 288 300 l 25
 362 300 l 25
 362 200 l 25
 288 200 l 25
 288 300 l 25
 212 300 l 25
 212 200 l 25
 138 200 l 29
EndSplineSet
Validated: 5
EndChar

StartChar: divide
Encoding: 247 247 208
Width: 450
Flags: HMW
LayerCount: 2
Back
Fore
SplineSet
212 100 m 29
 212 200 l 25
 288 200 l 25
 288 100 l 25
 212 100 l 29
100 300 m 25
 100 400 l 25
 400 400 l 25
 400 300 l 25
 100 300 l 25
212 500 m 25
 212 600 l 25
 288 600 l 25
 288 500 l 25
 212 500 l 25
EndSplineSet
Validated: 1
EndChar

StartChar: brokenbar
Encoding: 166 166 209
Width: 450
Flags: W
HStem: 0 21G<212 288> 680 20G<212 288>
VStem: 212 76<0 700>
LayerCount: 2
Back
Fore
SplineSet
212 700 m 29
 288 700 l 25
 288 0 l 25
 212 0 l 25
 212 700 l 29
EndSplineSet
Validated: 1
EndChar

StartChar: degree
Encoding: 176 176 210
Width: 450
Flags: HMW
LayerCount: 2
Back
Fore
SplineSet
212 600 m 29
 212 500 l 25
 288 500 l 25
 288 600 l 25
 212 600 l 29
175 600 m 25
 175 700 l 25
 325 700 l 25
 325 600 l 25
 362 600 l 25
 362 500 l 25
 325 500 l 25
 325 400 l 25
 175 400 l 25
 175 500 l 25
 138 500 l 25
 138 600 l 25
 175 600 l 25
EndSplineSet
Validated: 1
EndChar

StartChar: arrowright
Encoding: 8594 8594 211
Width: 450
Flags: W
HStem: 100 100<231 269> 300 100<44 269 381 456> 500 100<231 269>
VStem: 231 75<100 200 500 600> 269 112<200 300 400 500>
CounterMasks: 1 e0
LayerCount: 2
Back
Fore
SplineSet
231 500 m 29xf0
 231 600 l 25
 306 600 l 25
 306 500 l 25xf0
 381 500 l 25
 381 400 l 25
 456 400 l 25
 456 300 l 25
 381 300 l 25
 381 200 l 25xe8
 306 200 l 25
 306 100 l 25
 231 100 l 25
 231 200 l 25xf0
 269 200 l 25
 269 300 l 25
 44 300 l 25
 44 400 l 25
 269 400 l 25
 269 500 l 25xe8
 231 500 l 29xf0
EndSplineSet
Validated: 1
EndChar

StartChar: arrowleft
Encoding: 8592 8592 212
Width: 450
Flags: W
HStem: 100 100<250 288> 300 100<62 138 250 438> 500 100<250 288>
VStem: 138 112<200 300 400 500> 212 76<100 200 500 600>
CounterMasks: 1 e0
LayerCount: 2
Back
Fore
SplineSet
212 500 m 29xe8
 212 600 l 25
 288 600 l 25
 288 500 l 25xe8
 250 500 l 25
 250 400 l 25
 438 400 l 25
 438 300 l 25
 250 300 l 25
 250 200 l 25xf0
 288 200 l 25
 288 100 l 25
 212 100 l 25
 212 200 l 25xe8
 138 200 l 25
 138 300 l 25
 62 300 l 25
 62 400 l 25
 138 400 l 25
 138 500 l 25xf0
 212 500 l 29xe8
EndSplineSet
Validated: 1
EndChar

StartChar: arrowup
Encoding: 8593 8593 213
Width: 450
Flags: W
HStem: 0 21G<212 288> 300 100<100 138 362 400> 680 20G<212 288>
VStem: 100 75<300 400> 175 150<500 600> 212 76<0 400 600 700> 325 75<300 400>
LayerCount: 2
Back
Fore
SplineSet
175 300 m 29xf6
 100 300 l 25
 100 400 l 25xf6
 138 400 l 25
 138 500 l 25
 175 500 l 25
 175 600 l 25xe8
 212 600 l 25
 212 700 l 25
 288 700 l 25
 288 600 l 25xe4
 325 600 l 25
 325 500 l 25xe8
 362 500 l 25
 362 400 l 25
 400 400 l 25
 400 300 l 25
 325 300 l 25
 325 400 l 25
 288 400 l 25
 288 0 l 25
 212 0 l 25
 212 400 l 25
 175 400 l 25
 175 300 l 29xf6
EndSplineSet
Validated: 1
EndChar

StartChar: arrowdown
Encoding: 8595 8595 214
Width: 450
Flags: W
HStem: 0 21G<212 288> 300 100<100 138 362 400> 680 20G<212 288>
VStem: 100 75<300 400> 175 150<100 200> 212 76<0 100 300 700> 325 75<300 400>
LayerCount: 2
Back
Fore
SplineSet
212 300 m 29xf4
 212 700 l 1
 288 700 l 25
 288 300 l 25
 325 300 l 25
 325 400 l 25
 400 400 l 25
 400 300 l 25xf6
 362 300 l 25
 362 200 l 25
 325 200 l 25
 325 100 l 25xe8
 288 100 l 25
 288 0 l 25
 212 0 l 25
 212 100 l 25xe4
 175 100 l 25
 175 200 l 25xe8
 138 200 l 25
 138 300 l 25
 100 300 l 25
 100 400 l 25
 175 400 l 25
 175 300 l 1
 212 300 l 29xf4
EndSplineSet
Validated: 1
EndChar

StartChar: arrowboth
Encoding: 8596 8596 215
Width: 450
Flags: W
HStem: 100 100<100 175 325 400> 300 100<-50 25 100 400 475 550> 500 100<100 175 325 400>
VStem: 25 75<200 300 400 500> 100 75<100 200 500 600> 325 75<100 200 500 600> 400 75<200 300 400 500>
CounterMasks: 1 e0
LayerCount: 2
Back
Fore
SplineSet
-50 300 m 29xf0
 -50 400 l 25
 25 400 l 25
 25 500 l 25
 100 500 l 25xf0
 100 600 l 25
 175 600 l 25
 175 500 l 25xe8
 100 500 l 25
 100 400 l 25
 400 400 l 25xf2
 400 500 l 25
 325 500 l 25
 325 600 l 25
 400 600 l 25
 400 500 l 25xe4
 475 500 l 25
 475 400 l 25
 550 400 l 25
 550 300 l 25
 475 300 l 25
 475 200 l 25xe2
 400 200 l 25
 400 100 l 25
 325 100 l 25
 325 200 l 25
 400 200 l 25xe4
 400 300 l 25
 100 300 l 25
 100 200 l 25xf2
 175 200 l 25
 175 100 l 25
 100 100 l 25xe8
 100 200 l 25
 25 200 l 25
 25 300 l 25
 -50 300 l 29xf0
EndSplineSet
Validated: 5
EndChar

StartChar: arrowupdn
Encoding: 8597 8597 216
Width: 450
Flags: W
HStem: 0 21G<175 325> 200 100<100 138 362 400> 400 100<100 138 362 400> 680 20G<175 325>
VStem: 100 75<200 300 400 500> 138 224<100 200 500 600> 175 150<0 100 600 700> 325 75<200 300 400 500>
LayerCount: 2
Back
Fore
SplineSet
100 200 m 29xf8
 100 300 l 25
 175 300 l 25
 175 200 l 25
 212 200 l 25
 212 500 l 25
 175 500 l 25
 175 400 l 25
 100 400 l 25
 100 500 l 25xf8
 138 500 l 25
 138 600 l 25xf4
 175 600 l 25
 175 700 l 25
 325 700 l 25
 325 600 l 25xf2
 362 600 l 25
 362 500 l 25xf4
 400 500 l 25
 400 400 l 25
 325 400 l 25
 325 500 l 25
 288 500 l 25
 288 200 l 25
 325 200 l 25
 325 300 l 25
 400 300 l 25
 400 200 l 25xf1
 362 200 l 25
 362 100 l 25xf4
 325 100 l 25
 325 0 l 25
 175 0 l 25
 175 100 l 25xf2
 138 100 l 25
 138 200 l 25xf4
 100 200 l 29xf8
EndSplineSet
Validated: 1
EndChar

StartChar: uni2600
Encoding: 9728 9728 217
Width: 450
Flags: W
HStem: -100 100<212 288> 0 100<25 100 400 475> 300 100<-125 -12 62 138 362 438 512 625> 600 100<-12 62 438 512> 700 100<212 288>
VStem: -125 113<300 400> -12 74<600 700> 25 75<0 100> 138 224<200 300 400 500> 212 76<-100 0 100 200 500 600 700 800> 400 75<0 100> 438 74<600 700> 512 113<300 400>
LayerCount: 2
Back
Fore
SplineSet
438 600 m 25x3010
 438 700 l 25
 512 700 l 25
 512 600 l 25
 438 600 l 25x3010
212 700 m 25x2840
 212 800 l 25
 288 800 l 25
 288 700 l 25
 212 700 l 25x2840
-12 600 m 25x32
 -12 700 l 25
 62 700 l 25
 62 600 l 25
 -12 600 l 25x32
512 300 m 1x2008
 512 400 l 25
 625 400 l 1
 625 300 l 25
 512 300 l 1x2008
-125 300 m 1x24
 -125 400 l 25
 -12 400 l 1
 -12 300 l 25
 -125 300 l 1x24
400 0 m 25x6020
 400 100 l 25
 475 100 l 25
 475 0 l 25
 400 0 l 25x6020
212 -100 m 25xa040
 212 0 l 25
 288 0 l 25
 288 -100 l 25
 212 -100 l 25xa040
25 0 m 25x61
 25 100 l 25
 100 100 l 25
 100 0 l 25
 25 0 l 25x61
62 300 m 25x7280
 62 400 l 1
 138 400 l 25
 138 500 l 1x7280
 212 500 l 1
 212 600 l 1
 288 600 l 1
 288 500 l 25x7040
 362 500 l 25
 362 400 l 25
 438 400 l 25
 438 300 l 25
 362 300 l 25
 362 200 l 25x7090
 288 200 l 25
 288 100 l 25
 212 100 l 25
 212 200 l 25x7040
 138 200 l 25
 138 300 l 1
 62 300 l 25x7280
EndSplineSet
Validated: 1
EndChar

StartChar: uni2601
Encoding: 9729 9729 218
Width: 450
Flags: W
HStem: 200 100<25 100 438 475> 480 20G<175 288>
VStem: 175 113<400 500>
LayerCount: 2
Back
Fore
SplineSet
25 200 m 29
 25 300 l 25
 100 300 l 25
 100 400 l 25
 175 400 l 25
 175 500 l 25
 288 500 l 25
 288 400 l 25
 400 400 l 25
 400 300 l 25
 475 300 l 25
 475 200 l 25
 438 200 l 25
 438 100 l 25
 100 100 l 25
 100 200 l 25
 25 200 l 29
EndSplineSet
Validated: 1
EndChar

StartChar: uni2602
Encoding: 9730 9730 219
Width: 450
Flags: W
HStem: -100 100<138 212> 400 200<100 175 325 400> 400 100<25 100 400 475> 680 20G<175 325>
VStem: 138 112<-100 0> 175 150<600 700> 212 76<0 400>
LayerCount: 2
Back
Fore
SplineSet
25 400 m 29xb2
 25 500 l 25
 100 500 l 25xb2
 100 600 l 25
 175 600 l 25
 175 700 l 25
 325 700 l 25
 325 600 l 25
 400 600 l 25xd4
 400 500 l 25
 475 500 l 25
 475 400 l 25
 288 400 l 25
 288 0 l 25xb2
 250 0 l 25
 250 -100 l 25
 138 -100 l 25
 138 0 l 25xb8
 212 0 l 25
 212 400 l 25
 25 400 l 29xb2
EndSplineSet
Validated: 1
EndChar

StartChar: uni2603
Encoding: 9731 9731 220
Width: 450
Flags: W
HStem: -100 100<62 138 400 475> -100 50<212 250 288 325> 0 100<175 362> 50 50<25 62 438 475> 100 100<100 138 400 438> 150 50<25 62> 200 100<212 250 288 325> 250 50<62 100 438 475> 350 50<25 62 438 475> 400 100<100 138 212 250 288 325 400 438> 500 100<62 100 138 175 362 400 438 475> 600 200<212 325> 650 50<62 100 400 438> 750 50<25 62 138 175 362 400 438 475>
VStem: 25 37<50 100 150 200 350 400 750 800> 62 38<250 300 500 600 650 700> 100 38<400 500> 138 74<300 400 500 600> 138 37<750 800> 175 75<400 500> 212 38<-100 -50> 288 74<400 500> 288 37<-100 -50> 325 75<300 400 500 600> 362 38<750 800> 400 38<400 500 650 700> 438 37<50 100 250 300 350 400 500 600 750 800>
LayerCount: 2
Back
Fore
SplineSet
212 500 m 29x225041
 250 500 l 29
 250 400 l 29x225010
 212 400 l 29
 212 300 l 29x225040
 250 300 l 29
 250 200 l 29x225008
 175 200 l 29
 175 100 l 29
 362 100 l 29
 362 200 l 29
 288 200 l 29
 288 300 l 29x22501280
 325 300 l 29
 325 400 l 29x225001
 288 400 l 29
 288 500 l 29x225004
 325 500 l 29
 325 600 l 29
 212 600 l 29
 212 500 l 29x225041
62 -100 m 29x800110a0
 62 0 l 29
 138 0 l 29
 138 100 l 29x880120
 100 100 l 29
 100 200 l 29x880080
 138 200 l 29x880020
 138 400 l 29
 175 400 l 29x884090
 175 500 l 29x002090
 138 500 l 29x004090
 138 600 l 29x002040
 175 600 l 29
 175 700 l 29x002810
 212 700 l 29x002808
 212 800 l 29
 325 800 l 29x001009
 325 700 l 29x000809
 362 700 l 29
 362 600 l 29x00280080
 400 600 l 29x002801
 400 500 l 29x004001
 362 500 l 29x002004
 362 400 l 29x004004
 400 400 l 29x004001
 400 200 l 29x08400040
 438 200 l 29x08400020
 438 100 l 29x10000020
 400 100 l 29
 400 0 l 29x88000040
 475 0 l 29
 475 -100 l 29x88000020
 362 -100 l 29
 362 0 l 29
 175 0 l 29
 175 -100 l 29x600010a0
 62 -100 l 29x800110a0
100 500 m 29x0041
 138 500 l 29
 138 400 l 29
 100 400 l 29x004080
 100 500 l 29x0041
62 600 m 29x0021
 100 600 l 29x0021
 100 500 l 29x0041
 62 500 l 29
 62 600 l 29x0021
25 50 m 29x1002
 25 100 l 5
 62 100 l 29
 62 50 l 5
 25 50 l 29x1002
25 150 m 29x0402
 25 200 l 5
 62 200 l 29
 62 150 l 5
 25 150 l 29x0402
62 250 m 29x0101
 62 300 l 5
 100 300 l 29
 100 250 l 5
 62 250 l 29x0101
25 350 m 29x0082
 25 400 l 5
 62 400 l 29
 62 350 l 5
 25 350 l 29x0082
212 -100 m 29x400008
 212 -50 l 29
 250 -50 l 29
 250 -100 l 29
 212 -100 l 29x400008
288 -100 m 29x400002
 288 -50 l 29
 325 -50 l 29
 325 -100 l 29
 288 -100 l 29x400002
438 50 m 29x10000020
 438 100 l 29
 475 100 l 29
 475 50 l 29
 438 50 l 29x10000020
438 250 m 29x01000020
 438 300 l 29
 475 300 l 29
 475 250 l 29
 438 250 l 29x01000020
438 350 m 29x00800020
 438 400 l 29x00800040
 475 400 l 29
 475 350 l 29
 438 350 l 29x00800020
400 400 m 29x004001
 400 500 l 29x004001
 438 500 l 29x00400040
 438 400 l 29x00800040
 400 400 l 29x004001
438 500 m 29x00400040
 438 600 l 29
 475 600 l 29
 475 500 l 29x00200020
 438 500 l 29x00400040
400 650 m 29x00080040
 400 700 l 29
 438 700 l 29
 438 650 l 29
 400 650 l 29x00080040
438 750 m 29x00040020
 438 800 l 29
 475 800 l 29
 475 750 l 29
 438 750 l 29x00040020
362 750 m 29x00040080
 362 800 l 29
 400 800 l 29
 400 750 l 29
 362 750 l 29x00040080
138 750 m 29x000420
 138 800 l 5
 175 800 l 29
 175 750 l 5
 138 750 l 29x000420
25 750 m 29x0006
 25 800 l 5
 62 800 l 29
 62 750 l 5
 25 750 l 29x0006
62 650 m 29x0009
 62 700 l 5
 100 700 l 29
 100 650 l 5
 62 650 l 29x0009
EndSplineSet
Validated: 5
EndChar

StartChar: uni26C4
Encoding: 9924 9924 221
Width: 450
Flags: W
HStem: -100 100<44 119 381 456> 100 100<81 119 381 419> 200 100<194 231 269 306> 400 100<81 119 194 231 269 306 381 419> 500 100<44 81 119 156 344 381 419 456> 600 200<194 306>
VStem: 44 37<500 600> 81 75<100 200> 81 38<400 500> 119 75<300 400 500 600> 156 75<400 500> 269 75<400 500> 306 75<300 400 500 600> 344 75<100 200> 381 38<400 500> 419 37<500 600>
LayerCount: 2
Back
Fore
SplineSet
194 500 m 29xb448
 231 500 l 29
 231 400 l 29xb420
 194 400 l 29
 194 300 l 29xb440
 231 300 l 29
 231 200 l 29xb420
 156 200 l 29xb5
 156 100 l 29
 344 100 l 29xc104
 344 200 l 29xa104
 269 200 l 29
 269 300 l 29xa010
 306 300 l 29
 306 400 l 29xb008
 269 400 l 29
 269 500 l 29xb010
 306 500 l 29
 306 600 l 29
 194 600 l 29
 194 500 l 29xb448
44 -100 m 29xd224
 44 0 l 29
 119 0 l 29
 119 100 l 29xd240
 81 100 l 29
 81 200 l 29xd1
 119 200 l 29xd040
 119 400 l 29
 156 400 l 29xd0a0
 156 500 l 29x88a0
 119 500 l 29x90a0
 119 600 l 29x8840
 156 600 l 29
 156 700 l 29x8820
 194 700 l 29
 194 800 l 29
 306 800 l 29
 306 700 l 29x8448
 344 700 l 29
 344 600 l 29x8804
 381 600 l 29x8808
 381 500 l 29x9008
 344 500 l 29x8810
 344 400 l 29x9010
 381 400 l 29x9008
 381 200 l 29xd002
 419 200 l 5
 419 100 l 29xd004
 381 100 l 5
 381 0 l 29xd002
 456 0 l 29
 456 -100 l 29xd001
 344 -100 l 29
 344 0 l 29
 156 0 l 29
 156 -100 l 29
 44 -100 l 29xd224
81 500 m 29
 119 500 l 29
 119 400 l 29
 81 400 l 29x9080
 81 500 l 29
44 600 m 29x8a
 81 600 l 29x8a
 81 500 l 29x92
 44 500 l 29
 44 600 l 29x8a
381 400 m 29x9008
 381 500 l 29x9008
 419 500 l 29
 419 400 l 29x9002
 381 400 l 29x9008
419 500 m 29x9002
 419 600 l 29
 456 600 l 29
 456 500 l 29x8801
 419 500 l 29x9002
EndSplineSet
Validated: 5
EndChar

StartChar: uni2614
Encoding: 9748 9748 222
Width: 450
Flags: W
HStem: -100 100<138 212> 0 100<62 100 400 438> 150 100<25 62 438 475> 250 100<100 138 362 400> 400 200<100 175 325 400> 400 100<25 100 400 475> 600 100<25 62 438 475> 700 100<100 138 362 400>
VStem: 25 37<150 250 600 700> 62 38<0 100> 100 38<250 350 700 800> 138 112<-100 0> 175 150<600 700> 212 76<0 400> 362 38<250 350 700 800> 400 38<0 100> 438 37<150 250 600 700>
LayerCount: 2
Back
Fore
SplineSet
138 -100 m 29x8010
 138 0 l 25x8010
 212 0 l 25
 212 400 l 25
 25 400 l 25
 25 500 l 25
 100 500 l 25x84a4
 100 600 l 25
 175 600 l 25
 175 700 l 25
 325 700 l 25
 325 600 l 25
 400 600 l 25x09a9
 400 500 l 25x04a9
 475 500 l 25
 475 400 l 25
 288 400 l 25
 288 0 l 25x440480
 250 0 l 25x4410
 250 -100 l 25
 138 -100 l 29x8010
62 0 m 1x4040
 62 100 l 1
 100 100 l 1
 100 0 l 1
 62 0 l 1x4040
400 0 m 1x4001
 400 100 l 1
 438 100 l 1
 438 0 l 1
 400 0 l 1x4001
25 150 m 1x2080
 25 250 l 1
 62 250 l 1
 62 150 l 1
 25 150 l 1x2080
100 250 m 1x1020
 100 350 l 1
 138 350 l 1
 138 250 l 1
 100 250 l 1x1020
438 150 m 1x200080
 438 250 l 1
 475 250 l 1
 475 150 l 1
 438 150 l 1x200080
362 250 m 1x1002
 362 350 l 1
 400 350 l 1
 400 250 l 1
 362 250 l 1x1002
438 600 m 1x020080
 438 700 l 1
 475 700 l 1
 475 600 l 1
 438 600 l 1x020080
25 600 m 1x0280
 25 700 l 1
 62 700 l 1
 62 600 l 1
 25 600 l 1x0280
362 700 m 1x0102
 362 800 l 1
 400 800 l 1
 400 700 l 1
 362 700 l 1x0102
100 700 m 1x0120
 100 800 l 1
 138 800 l 1
 138 700 l 1
 100 700 l 1x0120
EndSplineSet
Validated: 1
EndChar

StartChar: uni2669
Encoding: 9833 9833 223
Width: 450
Flags: W
HStem: 0 21G<156 344>
VStem: 156 188<0 100> 306 75<300 800>
LayerCount: 2
Back
Fore
SplineSet
156 100 m 29xc0
 119 100 l 25
 119 200 l 25
 156 200 l 25
 156 300 l 25xc0
 306 300 l 25
 306 800 l 25
 381 800 l 25
 381 100 l 25xa0
 344 100 l 25
 344 0 l 25
 156 0 l 25
 156 100 l 29xc0
EndSplineSet
Validated: 1
EndChar

StartChar: uni2757
Encoding: 10071 10071 225
Width: 450
Flags: W
HStem: 0 100<212 288> 680 20G<212 288>
VStem: 212 76<0 100 200 700>
LayerCount: 2
Back
Fore
SplineSet
212 700 m 29
 288 700 l 25
 288 200 l 25
 212 200 l 25
 212 700 l 29
288 0 m 25
 212 0 l 1
 212 100 l 25
 288 100 l 1
 288 0 l 25
EndSplineSet
Validated: 1
EndChar

StartChar: uni2753
Encoding: 10067 10067 226
Width: 450
Flags: W
HStem: 0 100<231 306> 200 100<231 306> 300 100<306 344> 600 100<156 344>
VStem: 81 75<400 600> 231 75<0 100 200 300> 306 75<300 400> 344 75<400 600>
LayerCount: 2
Back
Fore
SplineSet
231 300 m 1xdc
 306 300 l 1
 306 200 l 1
 231 200 l 1
 231 300 l 1xdc
306 0 m 25
 231 0 l 1
 231 100 l 25
 306 100 l 1
 306 0 l 25
81 600 m 25
 119 600 l 25
 119 700 l 25
 381 700 l 25
 381 600 l 25xba
 419 600 l 25
 419 400 l 25xb9
 381 400 l 25
 381 300 l 25xba
 306 300 l 25xdc
 306 400 l 25xba
 344 400 l 25
 344 600 l 25
 156 600 l 25
 156 400 l 25
 81 400 l 25xb9
 81 600 l 25
EndSplineSet
Validated: 5
EndChar

StartChar: uni2795
Encoding: 10133 10133 227
Width: 450
Flags: W
HStem: 250 100<100 212 288 400>
VStem: 212 76<50 250 350 550>
LayerCount: 2
Back
Fore
SplineSet
212 550 m 29
 288 550 l 25
 288 350 l 25
 400 350 l 25
 400 250 l 25
 288 250 l 25
 288 50 l 25
 212 50 l 25
 212 250 l 25
 100 250 l 25
 100 350 l 25
 212 350 l 25
 212 550 l 29
EndSplineSet
Validated: 1
EndChar

StartChar: uni2796
Encoding: 10134 10134 228
Width: 450
Flags: W
HStem: 250 100<100 400>
VStem: 100 300<250 350>
LayerCount: 2
Back
Fore
SplineSet
100 250 m 29
 100 350 l 25
 400 350 l 25
 400 250 l 25
 100 250 l 29
EndSplineSet
Validated: 1
EndChar

StartChar: uni231A
Encoding: 8986 8986 229
Width: 450
Flags: W
HStem: -100 200<138 362> 0 100<100 138 362 400> 300 100<288 362> 480 20G<212 288> 600 200<138 362> 600 100<100 138 362 400>
VStem: -12 74<200 500> 25 75<100 200 500 600> 138 224<-100 0 700 800> 212 150<300 400> 212 76<400 500> 400 75<100 200 500 600> 438 74<200 500>
LayerCount: 2
Back
Fore
SplineSet
212 500 m 29x3020
 288 500 l 25
 288 400 l 25x3020
 362 400 l 25
 362 300 l 25
 212 300 l 25x3040
 212 500 l 29x3020
100 600 m 25x7510
 100 500 l 25x7510
 62 500 l 25
 62 200 l 25x76
 100 200 l 25
 100 100 l 25
 400 100 l 25
 400 200 l 25x7510
 438 200 l 25
 438 500 l 25x7408
 400 500 l 25
 400 600 l 25
 100 600 l 25x7510
138 700 m 25x7680
 138 800 l 25
 362 800 l 25x3a80
 362 700 l 25
 438 700 l 25
 438 600 l 25x3688
 475 600 l 25
 475 500 l 25x3410
 512 500 l 25
 512 200 l 25x3408
 475 200 l 25
 475 100 l 25x7410
 438 100 l 25
 438 0 l 25
 362 0 l 25x7488
 362 -100 l 25
 138 -100 l 25xb088
 138 0 l 25
 62 0 l 25
 62 100 l 25x7288
 25 100 l 25
 25 200 l 25x71
 -12 200 l 25
 -12 500 l 25x72
 25 500 l 25
 25 600 l 25x75
 62 600 l 25
 62 700 l 25
 138 700 l 25x7680
EndSplineSet
Validated: 1
EndChar

StartChar: uni2797
Encoding: 10135 10135 230
Width: 450
Flags: W
HStem: 100 100<212 288> 300 100<100 400> 500 100<212 288>
VStem: 212 76<100 200 500 600>
CounterMasks: 1 e0
LayerCount: 2
Back
Fore
SplineSet
212 100 m 29
 212 200 l 25
 288 200 l 25
 288 100 l 25
 212 100 l 29
100 300 m 25
 100 400 l 25
 400 400 l 25
 400 300 l 25
 100 300 l 25
212 500 m 25
 212 600 l 25
 288 600 l 25
 288 500 l 25
 212 500 l 25
EndSplineSet
Validated: 1
EndChar

StartChar: uni25B6
Encoding: 9654 9654 231
Width: 450
Flags: HMW
LayerCount: 2
Back
Fore
SplineSet
81 0 m 29
 81 700 l 25
 194 700 l 25
 194 600 l 25
 269 600 l 25
 269 500 l 25
 344 500 l 25
 344 400 l 25
 419 400 l 25
 419 300 l 25
 344 300 l 25
 344 200 l 25
 269 200 l 25
 269 100 l 25
 194 100 l 25
 194 0 l 25
 81 0 l 29
EndSplineSet
Validated: 1
EndChar

StartChar: uni25C0
Encoding: 9664 9664 232
Width: 450
Flags: HMW
LayerCount: 2
Back
Fore
SplineSet
306 0 m 29
 306 100 l 25
 231 100 l 25
 231 200 l 25
 156 200 l 25
 156 300 l 25
 81 300 l 25
 81 400 l 25
 156 400 l 25
 156 500 l 25
 231 500 l 25
 231 600 l 25
 306 600 l 25
 306 700 l 25
 419 700 l 25
 419 0 l 25
 306 0 l 29
EndSplineSet
Validated: 1
EndChar

StartChar: H18543
Encoding: 9642 9642 233
Width: 450
Flags: HMW
LayerCount: 2
Back
Fore
SplineSet
156 100 m 29
 156 400 l 25
 344 400 l 25
 344 100 l 25
 156 100 l 29
EndSplineSet
Validated: 1
EndChar

StartChar: triagup
Encoding: 9650 9650 234
Width: 450
Flags: HMW
LayerCount: 2
Back
Fore
SplineSet
62 100 m 29
 62 200 l 29
 100 200 l 29
 100 300 l 29
 138 300 l 29
 138 400 l 29
 175 400 l 29
 175 500 l 29
 212 500 l 29
 212 600 l 29
 288 600 l 29
 288 500 l 29
 325 500 l 29
 325 400 l 29
 362 400 l 29
 362 300 l 29
 400 300 l 29
 400 200 l 29
 438 200 l 29
 438 100 l 29
 62 100 l 29
EndSplineSet
Validated: 1
EndChar

StartChar: triagdn
Encoding: 9660 9660 235
Width: 450
Flags: HMW
LayerCount: 2
Back
Fore
SplineSet
62 500 m 29
 62 600 l 25
 438 600 l 25
 438 500 l 25
 400 500 l 25
 400 400 l 25
 362 400 l 25
 362 300 l 25
 325 300 l 25
 325 200 l 25
 288 200 l 25
 288 100 l 25
 212 100 l 25
 212 200 l 25
 175 200 l 25
 175 300 l 25
 138 300 l 25
 138 400 l 25
 100 400 l 25
 100 500 l 25
 62 500 l 29
EndSplineSet
Validated: 1
EndChar

StartChar: H18551
Encoding: 9643 9643 236
Width: 450
Flags: W
HStem: 100 100<194 306> 300 100<194 306>
VStem: 156 38<200 300> 306 38<200 300>
LayerCount: 2
Back
Fore
SplineSet
194 200 m 29
 306 200 l 25
 306 300 l 25
 194 300 l 25
 194 200 l 29
156 100 m 25
 156 400 l 25
 344 400 l 25
 344 100 l 25
 156 100 l 25
EndSplineSet
Validated: 1
EndChar

StartChar: uni231B
Encoding: 8987 8987 237
Width: 450
Flags: W
HStem: -100 200<119 194 306 381> -100 100<6 44 456 494> 200 100<119 156 344 381> 400 100<119 156 344 381> 600 200<119 381> 700 100<6 44 456 494>
VStem: 44 75<100 200 500 600> 81 150<400 500> 81 113<200 300> 194 112<100 200> 269 150<400 500> 306 113<200 300> 381 75<100 200 500 600>
LayerCount: 2
Back
Fore
SplineSet
306 100 m 29xb048
 381 100 l 25
 381 200 l 25
 306 200 l 25
 306 100 l 29xb048
194 300 m 25x3090
 194 200 l 25x3090
 306 200 l 25x3040
 306 300 l 25
 194 300 l 25x3090
119 100 m 25xb2
 194 100 l 25xb240
 194 200 l 25xb080
 119 200 l 25
 119 100 l 25xb2
231 400 m 25x39
 269 400 l 25
 269 500 l 25x3920
 381 500 l 25
 381 600 l 25
 119 600 l 25
 119 500 l 25x3a08
 231 500 l 25
 231 400 l 25x39
6 -100 m 25x7408
 6 0 l 25
 44 0 l 25
 44 200 l 25x7608
 81 200 l 25
 81 300 l 25x7480
 156 300 l 25
 156 400 l 25
 81 400 l 25
 81 500 l 25x75
 44 500 l 25
 44 700 l 25
 6 700 l 25
 6 800 l 25
 494 800 l 25
 494 700 l 25
 456 700 l 25
 456 500 l 25x7608
 419 500 l 25
 419 400 l 25x7420
 344 400 l 25
 344 300 l 25
 419 300 l 25
 419 200 l 25x7410
 456 200 l 25
 456 0 l 25
 494 0 l 25
 494 -100 l 25
 6 -100 l 25x7408
EndSplineSet
Validated: 5
EndChar

StartChar: uni23F3
Encoding: 9203 9203 238
Width: 450
Flags: W
HStem: -100 200<119 381> -100 100<6 44 456 494> 200 100<119 156 344 381> 400 100<119 156 344 381> 600 200<119 194 306 381> 700 100<6 44 456 494>
VStem: 44 75<100 200 500 600> 81 150<200 300> 81 113<400 500> 194 112<500 600> 269 150<200 300> 306 113<400 500> 381 75<100 200 500 600>
LayerCount: 2
Back
Fore
SplineSet
119 100 m 29xb2
 381 100 l 25
 381 200 l 25xb208
 269 200 l 25
 269 300 l 25
 231 300 l 25
 231 200 l 25xb120
 119 200 l 25
 119 100 l 29xb2
306 500 m 25x3848
 381 500 l 25
 381 600 l 25
 306 600 l 25
 306 500 l 25x3848
194 400 m 25x3080
 306 400 l 25x3090
 306 500 l 25x3040
 194 500 l 25
 194 400 l 25x3080
119 500 m 25x3a40
 194 500 l 25x3880
 194 600 l 25
 119 600 l 25
 119 500 l 25x3a40
6 -100 m 25x7408
 6 0 l 25
 44 0 l 25
 44 200 l 25x7608
 81 200 l 25
 81 300 l 25x75
 156 300 l 25
 156 400 l 25
 81 400 l 25
 81 500 l 25x7480
 44 500 l 25
 44 700 l 25
 6 700 l 25
 6 800 l 25
 494 800 l 25
 494 700 l 25
 456 700 l 25
 456 500 l 25x7608
 419 500 l 25
 419 400 l 25x7410
 344 400 l 25
 344 300 l 25
 419 300 l 25
 419 200 l 25x7420
 456 200 l 25
 456 0 l 25
 494 0 l 25
 494 -100 l 25
 6 -100 l 25x7408
EndSplineSet
Validated: 5
EndChar

StartChar: uni26D4
Encoding: 9940 9940 239
Width: 450
Flags: W
HStem: -100 400<100 400> 400 400<100 400>
VStem: -50 112<300 400> 100 300<-100 0 700 800> 438 112<300 400>
CounterMasks: 1 38
LayerCount: 2
Back
Fore
SplineSet
62 300 m 29
 438 300 l 25
 438 400 l 25
 62 400 l 25
 62 300 l 29
100 -100 m 25
 100 0 l 25
 25 0 l 25
 25 100 l 25
 -12 100 l 25
 -12 200 l 25
 -50 200 l 25
 -50 500 l 25
 -12 500 l 25
 -12 600 l 25
 25 600 l 25
 25 700 l 25
 100 700 l 25
 100 800 l 25
 400 800 l 25
 400 700 l 25
 475 700 l 25
 475 600 l 25
 512 600 l 25
 512 500 l 25
 550 500 l 25
 550 200 l 25
 512 200 l 25
 512 100 l 25
 475 100 l 25
 475 0 l 25
 400 0 l 25
 400 -100 l 25
 100 -100 l 25
EndSplineSet
Validated: 1
EndChar

StartChar: uni26C5
Encoding: 9925 9925 240
Width: 450
Flags: W
HStem: 0 21G<100 438> 100 100<25 62 438 475> 500 100<100 175>
VStem: 25 75<300 500> 62 150<500 600> 138 150<300 400> 175 75<400 500>
LayerCount: 2
Back
Fore
SplineSet
138 300 m 29xf4
 138 400 l 25xf4
 175 400 l 25
 175 500 l 25xe2
 100 500 l 25
 100 300 l 25
 138 300 l 29xf4
25 300 m 25
 25 500 l 25xf0
 62 500 l 25
 62 600 l 25
 212 600 l 25
 212 500 l 25xe8
 250 500 l 25
 250 400 l 25xe2
 288 400 l 25
 288 300 l 25
 400 300 l 25
 400 200 l 25
 475 200 l 25
 475 100 l 25
 438 100 l 25
 438 0 l 25
 100 0 l 25
 100 100 l 25
 25 100 l 25
 25 200 l 25xf4
 62 200 l 25
 62 300 l 25xe8
 25 300 l 25
EndSplineSet
Validated: 1
EndChar

StartChar: musicalnote
Encoding: 9834 9834 241
Width: 450
Flags: W
HStem: 0 21G<81 269> 700 100<306 344>
VStem: 81 188<0 100> 231 150<700 800> 231 75<300 700> 344 75<600 700> 381 75<400 600>
LayerCount: 2
Back
Fore
SplineSet
81 0 m 29xe0
 81 100 l 25
 44 100 l 25
 44 200 l 25
 81 200 l 25
 81 300 l 25xe0
 231 300 l 25xc8
 231 800 l 25
 381 800 l 25
 381 700 l 25xd0
 419 700 l 25
 419 600 l 25xc4
 456 600 l 25
 456 400 l 25
 381 400 l 25
 381 600 l 25xc2
 344 600 l 25
 344 700 l 25
 306 700 l 25
 306 100 l 25xcc
 269 100 l 25
 269 0 l 25
 81 0 l 29xe0
EndSplineSet
Validated: 1
EndChar

StartChar: musicalnotedbl
Encoding: 9835 9835 242
Width: 450
Flags: W
HStem: 0 300<6 119 344 456> 100 100<-31 6 306 344> 700 100<194 456>
VStem: 6 150<0 100> 119 75<300 700> 344 150<0 100> 456 75<300 700>
LayerCount: 2
Back
Fore
SplineSet
-31 100 m 29x70
 -31 200 l 5
 6 200 l 29x70
 6 300 l 29xb0
 119 300 l 29xa8
 119 800 l 29
 531 800 l 29
 531 100 l 29x6a
 494 100 l 29x64
 494 0 l 29
 344 0 l 29xa4
 344 100 l 29
 306 100 l 29
 306 200 l 29
 344 200 l 29x64
 344 300 l 29xa4
 456 300 l 29xa2
 456 700 l 29
 194 700 l 29
 194 100 l 29x6a
 156 100 l 29x70
 156 0 l 29
 6 0 l 29xb0
 6 100 l 5
 -31 100 l 29x70
EndSplineSet
Validated: 1
EndChar

StartChar: uni266C
Encoding: 9836 9836 243
Width: 450
Flags: W
HStem: 0 300<6 119 344 456> 100 100<-31 6 306 344> 500 100<194 456> 700 100<194 456>
VStem: 6 150<0 100> 119 75<300 500 600 700> 344 150<0 100> 456 75<300 500 600 700>
LayerCount: 2
Back
Fore
SplineSet
194 600 m 1x35
 456 600 l 29
 456 700 l 1
 194 700 l 25
 194 600 l 1x35
-31 100 m 25x78
 -31 200 l 1
 6 200 l 25x78
 6 300 l 25xb8
 119 300 l 25xb4
 119 800 l 25
 531 800 l 25
 531 100 l 25x75
 494 100 l 25x72
 494 0 l 25
 344 0 l 25xb2
 344 100 l 25
 306 100 l 25
 306 200 l 25
 344 200 l 25x72
 344 300 l 25xb2
 456 300 l 1xb1
 456 500 l 1
 194 500 l 1
 194 100 l 1x75
 156 100 l 25x78
 156 0 l 25
 6 0 l 25xb8
 6 100 l 1
 -31 100 l 25x78
EndSplineSet
Validated: 1
EndChar

StartChar: Idieresis
Encoding: 207 207 244
Width: 450
Flags: W
HStem: 0 100<100 212 288 400> 600 100<100 212 288 400>
VStem: 100 300<0 100 600 700> 212 76<100 600>
LayerCount: 2
Back
Fore
SplineSet
100 700 m 29xe0
 400 700 l 25
 400 600 l 25xe0
 288 600 l 25
 288 100 l 25xd0
 400 100 l 25
 400 0 l 25
 100 0 l 25
 100 100 l 25xe0
 212 100 l 25
 212 600 l 25xd0
 100 600 l 25
 100 700 l 29xe0
EndSplineSet
Validated: 1
EndChar

StartChar: idieresis
Encoding: 239 239 245
Width: 450
Flags: W
HStem: 0 100<138 212 287 362> 480 20G<175 288> 600 100<175 288>
VStem: 175 113<400 500 600 700> 212 76<100 400>
LayerCount: 2
Back
Fore
SplineSet
175 500 m 1xf0
 288 500 l 25xf0
 287 100 l 25
 362 100 l 25
 362 0 l 25
 138 0 l 25
 138 100 l 25
 212 100 l 25
 212 400 l 1xe8
 175 400 l 29
 175 500 l 1xf0
175 700 m 25
 288 700 l 25
 288 600 l 25
 175 600 l 25
 175 700 l 25
EndSplineSet
Validated: 1
EndChar

StartChar: onequarter
Encoding: 188 188 246
Width: 450
Flags: W
HStem: -200 21G<362 438> -100 100<288 362> 500 100<62 100> 680 20G<100 175>
VStem: 62 113<500 600> 100 75<200 500 600 700> 212 76<0 100> 250 75<100 200> 288 74<200 300> 362 76<-200 -100 0 100>
LayerCount: 2
Back
Fore
SplineSet
288 200 m 29xf080
 288 300 l 29
 362 300 l 29
 362 200 l 29xf080
 325 200 l 29
 325 100 l 29xf1
 288 100 l 29
 288 0 l 29
 362 0 l 29
 362 100 l 29
 438 100 l 29
 438 -200 l 29
 362 -200 l 29
 362 -100 l 29
 212 -100 l 29
 212 100 l 29xf240
 250 100 l 29
 250 200 l 29xf1
 288 200 l 29xf080
100 600 m 25xf4
 100 700 l 25
 175 700 l 25
 175 200 l 25
 100 200 l 25
 100 500 l 25xf4
 62 500 l 25
 62 600 l 25xf8
 100 600 l 25xf4
EndSplineSet
Validated: 1
EndChar

StartChar: onehalf
Encoding: 189 189 247
Width: 450
Flags: W
HStem: -200 100<212 250 325 438> 100 100<212 250 400 438> 200 100<288 362> 500 100<62 100> 680 20G<100 175>
VStem: 62 113<500 600> 100 75<200 500 600 700> 212 76<100 200> 250 75<-100 0> 325 75<0 100> 362 76<100 200>
LayerCount: 2
Back
Fore
SplineSet
212 100 m 29xd920
 212 200 l 25xd920
 250 200 l 25xd880
 250 300 l 25xb880
 400 300 l 25xb840
 400 200 l 25xd840
 438 200 l 25
 438 100 l 25xd820
 400 100 l 25
 400 0 l 25xd840
 325 0 l 25
 325 -100 l 25xd880
 438 -100 l 25
 438 -200 l 25
 212 -200 l 25
 212 -100 l 25xd920
 250 -100 l 25
 250 0 l 25
 325 0 l 25xd880
 325 100 l 25xd840
 362 100 l 25xd820
 362 200 l 25
 288 200 l 25xb920
 288 100 l 25
 212 100 l 29xd920
100 600 m 25xba
 100 700 l 25
 175 700 l 25
 175 200 l 25
 100 200 l 25
 100 500 l 25xba
 62 500 l 25
 62 600 l 25xbc
 100 600 l 25xba
EndSplineSet
Validated: 5
EndChar

StartChar: threequarters
Encoding: 190 190 248
Width: 450
Flags: W
HStem: -200 21G<381 456> -100 100<306 381> 200 100<44 156 344 381> 400 100<81 156> 600 100<44 156>
VStem: 44 150<200 300> 81 113<400 500> 156 75<300 400 500 600> 231 75<0 100> 269 75<100 200> 306 75<200 300> 381 75<-200 -100 0 100>
LayerCount: 2
Back
Fore
SplineSet
306 200 m 25xf820
 306 300 l 25
 381 300 l 25
 381 200 l 25xf820
 344 200 l 25
 344 100 l 25xf840
 306 100 l 25
 306 0 l 25
 381 0 l 25
 381 100 l 25
 456 100 l 25
 456 -200 l 25
 381 -200 l 25
 381 -100 l 25
 231 -100 l 25
 231 100 l 25xf890
 269 100 l 25
 269 200 l 25xf840
 306 200 l 25xf820
44 600 m 1xfc
 44 700 l 1
 231 700 l 1xfc80
 231 500 l 25xf9
 194 500 l 25
 194 400 l 25xfa
 231 400 l 25
 231 300 l 25xf9
 194 300 l 25
 194 200 l 1
 44 200 l 1
 44 300 l 1xfc
 156 300 l 1
 156 400 l 25xf9
 81 400 l 25
 81 500 l 25xfa
 156 500 l 25
 156 600 l 1xf9
 44 600 l 1xfc
EndSplineSet
Validated: 1
EndChar

StartChar: udieresis
Encoding: 252 252 249
Width: 450
Flags: W
HStem: 0 100<156 306> 100 100<306 344> 480 20G<81 156 344 419>
VStem: 81 75<100 500> 306 113<100 200> 344 75<0 100 200 500>
LayerCount: 2
Back
Fore
SplineSet
81 500 m 29x78
 156 500 l 25
 156 100 l 25
 306 100 l 25xb8
 306 200 l 25x78
 344 200 l 25x74
 344 500 l 25
 419 500 l 25
 419 0 l 25
 344 0 l 25xb4
 344 100 l 25x74
 306 100 l 25
 306 0 l 25
 119 0 l 25xb8
 119 100 l 25
 81 100 l 25
 81 500 l 29x78
EndSplineSet
Validated: 5
EndChar

StartChar: oslash
Encoding: 248 248 250
Width: 450
Flags: W
HStem: 0 100<156 344> 400 100<156 344>
VStem: 81 75<100 400> 119 262<0 100 400 500> 344 75<100 400>
LayerCount: 2
Back
Fore
SplineSet
156 400 m 29xe8
 156 100 l 25
 344 100 l 25
 344 400 l 25
 156 400 l 29xe8
119 500 m 25xd0
 381 500 l 25
 381 400 l 25xd0
 419 400 l 25
 419 100 l 25xc8
 381 100 l 25
 381 0 l 25
 119 0 l 25
 119 100 l 25xd0
 81 100 l 25
 81 400 l 25xe0
 119 400 l 25
 119 500 l 25xd0
EndSplineSet
Validated: 1
EndChar

StartChar: copyright
Encoding: 169 169 251
Width: 450
Flags: W
HStem: 0 100<138 362> 200 100<212 325> 400 100<212 325> 600 100<138 362>
VStem: 25 75<200 500> 62 76<100 200 500 600> 100 300<0 100 600 700> 138 74<300 400> 175 150<200 300 400 500> 362 76<100 200 500 600> 400 75<200 500>
LayerCount: 2
Back
Fore
SplineSet
175 400 m 29xf080
 175 500 l 1
 325 500 l 25
 325 400 l 25xf080
 212 400 l 25
 212 300 l 25xf1
 325 300 l 25
 325 200 l 25
 175 200 l 25
 175 300 l 25xf080
 138 300 l 25
 138 400 l 1xf1
 175 400 l 29xf080
138 500 m 25xf440
 100 500 l 25
 100 200 l 25xf8
 138 200 l 25
 138 100 l 25
 362 100 l 25
 362 200 l 25xf440
 400 200 l 25
 400 500 l 25xf020
 362 500 l 25
 362 600 l 25
 138 600 l 25
 138 500 l 25xf440
100 600 m 25xf2
 100 700 l 25
 400 700 l 25
 400 600 l 25xf2
 438 600 l 25
 438 500 l 25xf040
 475 500 l 25
 475 200 l 25xf020
 438 200 l 25
 438 100 l 25xf040
 400 100 l 25
 400 0 l 25
 100 0 l 25
 100 100 l 25xf2
 62 100 l 25
 62 200 l 25xf4
 25 200 l 25
 25 500 l 25xf8
 62 500 l 25
 62 600 l 25xf4
 100 600 l 25xf2
EndSplineSet
Validated: 1
EndChar

StartChar: registered
Encoding: 174 174 252
Width: 450
Flags: W
HStem: 0 100<138 362> 200 100<288 362> 480 20G<175 325> 600 100<138 362>
VStem: 25 75<200 500> 62 76<100 200 500 600> 100 300<0 100 600 700> 175 150<400 500> 175 113<300 400> 175 75<200 300> 288 74<200 300> 362 76<100 200 500 600> 400 75<200 500>
LayerCount: 2
Back
Fore
SplineSet
175 200 m 29xf040
 175 500 l 25
 325 500 l 25
 325 400 l 25xf1
 288 400 l 25
 288 300 l 25xf080
 362 300 l 25
 362 200 l 25
 288 200 l 25xf020
 288 300 l 25xf080
 250 300 l 25
 250 200 l 25
 175 200 l 29xf040
138 500 m 25xf410
 100 500 l 25
 100 200 l 25xf8
 138 200 l 25
 138 100 l 25
 362 100 l 25xf410
 362 200 l 25
 400 200 l 25
 400 500 l 25xf028
 362 500 l 25
 362 600 l 25
 138 600 l 25
 138 500 l 25xf410
100 600 m 25xf2
 100 700 l 25
 400 700 l 25
 400 600 l 25xf2
 438 600 l 25
 438 500 l 25xf010
 475 500 l 25
 475 200 l 25xf008
 438 200 l 25
 438 100 l 25xf010
 400 100 l 25
 400 0 l 25
 100 0 l 25
 100 100 l 25xf2
 62 100 l 25
 62 200 l 25xf4
 25 200 l 25
 25 500 l 25xf8
 62 500 l 25
 62 600 l 25xf4
 100 600 l 25xf2
EndSplineSet
Validated: 5
EndChar

StartChar: uni00B2
Encoding: 178 178 253
Width: 450
Flags: W
HStem: 300 100<138 175 250 362> 500 100<250 288> 600 100<138 175 325 362> 700 100<212 288>
VStem: 138 74<600 700> 175 75<400 500> 250 75<500 600> 288 74<600 700>
LayerCount: 2
Back
Fore
SplineSet
175 700 m 29xa4
 175 800 l 25x94
 325 800 l 25x92
 325 700 l 25xa2
 362 700 l 25
 362 600 l 25xa1
 325 600 l 25xa2
 325 500 l 25xc2
 250 500 l 25
 250 400 l 25xc4
 362 400 l 25
 362 300 l 25
 138 300 l 25
 138 400 l 25xc9
 175 400 l 25
 175 500 l 25
 250 500 l 25xc4
 250 600 l 25xc2
 288 600 l 25
 288 700 l 25
 212 700 l 25xd9
 212 600 l 25
 138 600 l 25
 138 700 l 25xa9
 175 700 l 29xa4
EndSplineSet
Validated: 5
EndChar

StartChar: uni00B3
Encoding: 179 179 254
Width: 450
Flags: W
HStem: 300 100<138 288> 500 100<212 288> 700 100<138 288>
VStem: 138 187<300 400> 212 113<500 600> 288 74<400 500 600 700>
CounterMasks: 1 e0
LayerCount: 2
Back
Fore
SplineSet
138 700 m 29xf0
 138 800 l 29xf0
 362 800 l 29
 362 600 l 29xe4
 325 600 l 29
 325 500 l 29xe8
 362 500 l 29
 362 400 l 29xe4
 325 400 l 29
 325 300 l 29
 138 300 l 29
 138 400 l 29xf0
 288 400 l 29
 288 500 l 29xe4
 212 500 l 29
 212 600 l 29xe8
 288 600 l 29
 288 700 l 29xe4
 138 700 l 29xf0
EndSplineSet
Validated: 1
EndChar

StartChar: uni00B9
Encoding: 185 185 255
Width: 450
Flags: W
VStem: 194 112<600 700> 231 75<400 600 700 800>
LayerCount: 2
Back
Fore
SplineSet
231 700 m 29x40
 231 800 l 25
 306 800 l 25
 306 400 l 25
 231 400 l 25
 231 600 l 25x40
 194 600 l 25
 194 700 l 25x80
 231 700 l 29x40
EndSplineSet
Validated: 1
EndChar

StartChar: Euro
Encoding: 8364 8364 256
Width: 450
Flags: W
HStem: 0 100<212 362> 100 100<400 438> 200 100<62 100 212 325> 400 100<62 100 212 325> 500 100<400 438> 600 100<212 362>
VStem: 62 263<200 300 400 500> 138 74<100 200 500 600> 175 225<0 100 600 700> 362 76<100 200 500 600>
LayerCount: 2
Back
Fore
SplineSet
212 500 m 29x1540
 325 500 l 25
 325 400 l 25x16
 175 400 l 25
 175 300 l 25x3480
 325 300 l 25
 325 200 l 25x36
 212 200 l 25
 212 100 l 25
 362 100 l 25
 362 200 l 25xb540
 438 200 l 25
 438 100 l 25x4140
 400 100 l 25x4080
 400 0 l 25
 175 0 l 25x8080
 175 100 l 25x4080
 138 100 l 25x41
 138 200 l 25x21
 62 200 l 25
 62 300 l 25
 100 300 l 25
 100 400 l 25
 62 400 l 25
 62 500 l 25x32
 138 500 l 25x09
 138 600 l 25x05
 175 600 l 25
 175 700 l 25
 400 700 l 25x0480
 400 600 l 25x0880
 438 600 l 25
 438 500 l 25
 362 500 l 25x0840
 362 600 l 25
 212 600 l 25
 212 500 l 29x1540
EndSplineSet
Validated: 1
EndChar

StartChar: uni20B4
Encoding: 8372 8372 257
Width: 450
Flags: W
HStem: 0 100<156 344> 100 100<381 419> 300 100<156 344> 500 100<81 119> 600 100<156 344>
VStem: 81 75<100 300 500 600> 119 262<0 100 300 400 600 700> 344 75<100 200 400 600>
LayerCount: 2
Back
Fore
SplineSet
81 500 m 29x35
 81 600 l 25x35
 119 600 l 25x32
 119 700 l 25
 381 700 l 25
 381 600 l 25x2a
 419 600 l 25
 419 400 l 25x29
 381 400 l 25
 381 300 l 25x2a
 156 300 l 25
 156 100 l 25
 344 100 l 25xad
 344 200 l 25
 419 200 l 25
 419 100 l 25x65
 381 100 l 25x62
 381 0 l 25
 119 0 l 25xa2
 119 100 l 25x62
 81 100 l 25
 81 300 l 25x64
 119 300 l 25
 119 400 l 25x62
 344 400 l 25
 344 600 l 25
 156 600 l 25x6d
 156 500 l 25
 81 500 l 29x35
EndSplineSet
Validated: 1
EndChar

StartChar: radical
Encoding: 8730 8730 258
Width: 450
Flags: W
HStem: 0 21G<100 212> 600 100<288 475>
VStem: 25 75<200 400> 62 76<100 200> 175 75<100 300> 212 76<300 600>
LayerCount: 2
Back
Fore
SplineSet
25 200 m 29xe0
 25 400 l 25
 100 400 l 25
 100 200 l 25xe0
 138 200 l 25
 138 100 l 25
 175 100 l 25
 175 300 l 25xd8
 212 300 l 25
 212 600 l 25xc4
 250 600 l 25
 250 700 l 25xc8
 475 700 l 25
 475 600 l 25
 288 600 l 25
 288 300 l 25xc4
 250 300 l 25
 250 100 l 25xc8
 212 100 l 25
 212 0 l 25
 100 0 l 25
 100 100 l 25xe4
 62 100 l 25
 62 200 l 25xd0
 25 200 l 29xe0
EndSplineSet
Validated: 1
EndChar

StartChar: infinity
Encoding: 8734 8734 259
Width: 450
Flags: W
HStem: 100 100<44 156 344 456> 300 100<231 269> 500 100<44 156 344 456>
VStem: -31 75<200 500> 6 188<100 200 500 600> 156 75<200 300 400 500> 269 75<200 300 400 500> 306 188<100 200 500 600> 456 75<200 500>
CounterMasks: 1 e0
LayerCount: 2
Back
Fore
SplineSet
306 300 m 29xe1
 344 300 l 25
 344 200 l 25
 456 200 l 25
 456 500 l 25
 344 500 l 25
 344 400 l 25xe280
 306 400 l 25
 306 300 l 29xe1
44 200 m 25xf4
 156 200 l 25
 156 300 l 25xf4
 194 300 l 25
 194 400 l 25xe8
 156 400 l 25
 156 500 l 25
 44 500 l 25
 44 200 l 25xf4
-31 200 m 25
 -31 500 l 25xf0
 6 500 l 25
 6 600 l 25
 194 600 l 25
 194 500 l 25xe8
 231 500 l 25
 231 400 l 25
 269 400 l 25
 269 500 l 25xe6
 306 500 l 25
 306 600 l 25
 494 600 l 25
 494 500 l 25xe1
 531 500 l 25
 531 200 l 25xe080
 494 200 l 25
 494 100 l 25
 306 100 l 25
 306 200 l 25xe1
 269 200 l 25
 269 300 l 25
 231 300 l 25
 231 200 l 25xe6
 194 200 l 25
 194 100 l 25
 6 100 l 25
 6 200 l 25xe8
 -31 200 l 25
EndSplineSet
Validated: 1
EndChar

StartChar: uni2B50
Encoding: 11088 11088 260
Width: 450
Flags: W
HStem: 0 100<62 100 400 438> 400 200<100 175 325 400> 500 100<25 100 400 475>
VStem: 62 76<0 100> 100 112<100 200> 175 150<300 400 600 700> 288 112<100 200> 362 76<0 100>
LayerCount: 2
Back
Fore
SplineSet
62 0 m 29xd0
 62 100 l 25xd0
 100 100 l 25
 100 200 l 25xc8
 138 200 l 25
 138 300 l 25
 175 300 l 25
 175 400 l 25xd4
 100 400 l 25xc8
 100 500 l 25
 25 500 l 25
 25 600 l 25xa8
 175 600 l 25
 175 700 l 25xc4
 212 700 l 25
 212 800 l 25
 288 800 l 25
 288 700 l 25xca
 325 700 l 25
 325 600 l 25xc4
 475 600 l 25
 475 500 l 25
 400 500 l 25xa2
 400 400 l 25xc2
 325 400 l 25
 325 300 l 25
 362 300 l 25
 362 200 l 25xc5
 400 200 l 25
 400 100 l 25xc2
 438 100 l 25
 438 0 l 25
 362 0 l 25
 362 100 l 25xc1
 288 100 l 25
 288 200 l 25
 212 200 l 25
 212 100 l 25xca
 138 100 l 25
 138 0 l 25
 62 0 l 29xd0
EndSplineSet
Validated: 1
EndChar

StartChar: uni274C
Encoding: 10060 10060 261
Width: 450
Flags: W
HStem: 100 100<62 138 362 438> 200 100<138 175 325 362> 400 100<138 175 325 362> 500 100<62 138 362 438>
VStem: 62 76<100 200 500 600> 138 74<200 300 400 500> 288 74<200 300 400 500> 362 76<100 200 500 600>
LayerCount: 2
Back
Fore
SplineSet
138 400 m 29x64
 138 500 l 25x68
 212 500 l 25x14
 212 400 l 25
 288 400 l 25x26
 288 500 l 25x16
 362 500 l 25x26
 362 600 l 25
 438 600 l 25
 438 500 l 25x11
 362 500 l 25
 362 400 l 25
 325 400 l 25
 325 300 l 25
 362 300 l 25x62
 362 200 l 25x82
 438 200 l 25
 438 100 l 25
 362 100 l 25x81
 362 200 l 25x82
 288 200 l 25
 288 300 l 25
 212 300 l 25
 212 200 l 25x46
 138 200 l 25
 138 100 l 25
 62 100 l 25
 62 200 l 25
 138 200 l 25x88
 138 300 l 25
 175 300 l 25
 175 400 l 25
 138 400 l 29x64
62 500 m 25x18
 62 600 l 25
 138 600 l 25x18
 138 500 l 25x28
 62 500 l 25x18
EndSplineSet
Validated: 5
EndChar

StartChar: uni2713
Encoding: 10003 10003 262
Width: 450
Flags: W
HStem: 0 100<156 194> 680 20G<381 456>
VStem: 44 75<200 300> 81 75<100 200> 194 75<100 200> 231 75<200 300> 269 75<300 400> 306 75<400 500> 344 75<500 600> 381 75<600 700>
LayerCount: 2
Back
Fore
SplineSet
44 200 m 29xe0
 44 300 l 1
 119 300 l 25
 119 200 l 25xe0
 156 200 l 25
 156 100 l 25
 194 100 l 25
 194 200 l 25xd8
 231 200 l 25
 231 300 l 25xc4
 269 300 l 25
 269 400 l 25xc2
 306 400 l 25
 306 500 l 25xc1
 344 500 l 25
 344 600 l 25xc080
 381 600 l 25
 381 700 l 25
 456 700 l 25
 456 600 l 25xc040
 419 600 l 25
 419 500 l 25xc080
 381 500 l 25
 381 400 l 25xc1
 344 400 l 25
 344 300 l 25xc2
 306 300 l 25
 306 200 l 25xc4
 269 200 l 25
 269 100 l 25xc8
 231 100 l 25
 231 0 l 25
 119 0 l 25
 119 100 l 25xe4
 81 100 l 25
 81 200 l 1xd0
 44 200 l 29xe0
EndSplineSet
Validated: 1
EndChar

StartChar: uni2699
Encoding: 9881 9881 263
Width: 450
Flags: W
HStem: 0 100<62 100 400 438> 300 100<-12 100 400 512> 600 100<62 100 400 438>
VStem: -12 187<300 400> 62 76<0 100 601 700> 100 112<200 300 400 500> 212 76<-100 100 600 800> 288 112<200 300 400 500> 325 187<300 400> 362 76<0 100 600 700>
CounterMasks: 1 e0
LayerCount: 2
Back
Fore
SplineSet
175 300 m 29xf0
 212 300 l 25
 212 200 l 25
 288 200 l 25
 288 300 l 25xe5
 325 300 l 25
 325 400 l 25xe080
 288 400 l 25
 288 500 l 25
 212 500 l 25
 212 400 l 25xe5
 175 400 l 25
 175 300 l 29xf0
-12 300 m 25xf0
 -12 400 l 25xf0
 100 400 l 25
 100 601 l 25xe4
 62 600 l 25
 62 700 l 25
 138 700 l 25
 138 600 l 25
 212 600 l 25
 212 800 l 25
 288 800 l 25
 288 600 l 25
 362 600 l 25
 362 700 l 25
 438 700 l 25
 438 600 l 25xea40
 400 600 l 25
 400 400 l 25xe1
 512 400 l 25
 512 300 l 25xe080
 400 300 l 25
 400 100 l 25xe1
 438 100 l 25
 438 0 l 25
 362 0 l 25
 362 100 l 25
 288 100 l 25
 288 -100 l 25
 212 -100 l 25
 212 100 l 25
 138 100 l 25
 138 0 l 25
 62 0 l 25
 62 100 l 25xea40
 100 100 l 25
 100 300 l 25xe4
 -12 300 l 25xf0
EndSplineSet
Validated: 1
EndChar

StartChar: uni2139
Encoding: 8505 8505 264
Width: 450
Flags: W
HStem: -100 100<62 438> 500 100<212 288> 700 100<62 438>
VStem: -50 75<100 600> -12 74<0 100 600 700> 212 76<100 400 500 600> 438 74<0 100 600 700> 475 75<100 600>
LayerCount: 2
Back
Fore
SplineSet
212 100 m 25xe4
 212 400 l 25
 288 400 l 25
 288 100 l 25
 212 100 l 25xe4
212 500 m 25
 212 600 l 25
 288 600 l 25
 288 500 l 25
 212 500 l 25
475 600 m 29xe5
 438 600 l 25
 438 700 l 25
 62 700 l 25
 62 600 l 25xee
 25 600 l 25
 25 100 l 25xf4
 62 100 l 25
 62 0 l 25
 438 0 l 25
 438 100 l 25xee
 475 100 l 25
 475 600 l 29xe5
-50 100 m 25xf4
 -50 600 l 25xf4
 -12 600 l 25
 -12 700 l 25xec
 25 700 l 25
 25 800 l 25
 475 800 l 25
 475 700 l 25xf5
 512 700 l 25
 512 600 l 25xe6
 550 600 l 25
 550 100 l 25xe5
 512 100 l 25
 512 0 l 25xe6
 475 0 l 25
 475 -100 l 25
 25 -100 l 25
 25 0 l 25xf5
 -12 0 l 25
 -12 100 l 25xec
 -50 100 l 25xf4
EndSplineSet
Validated: 1
EndChar

StartChar: uni2605
Encoding: 9733 9733 265
Width: 450
Flags: W
HStem: 0 100<62 100 400 438> 400 200<100 175 325 400> 500 100<25 100 400 475>
VStem: 62 76<0 100> 100 112<100 200> 175 150<300 400 600 700> 288 112<100 200> 362 76<0 100>
LayerCount: 2
Back
Fore
SplineSet
62 0 m 29xd0
 62 100 l 25xd0
 100 100 l 25
 100 200 l 25xc8
 138 200 l 25
 138 300 l 25
 175 300 l 25
 175 400 l 25xd4
 100 400 l 25xc8
 100 500 l 25
 25 500 l 25
 25 600 l 25xa8
 175 600 l 25
 175 700 l 25xc4
 212 700 l 25
 212 800 l 25
 288 800 l 25
 288 700 l 25xca
 325 700 l 25
 325 600 l 25xc4
 475 600 l 25
 475 500 l 25
 400 500 l 25xa2
 400 400 l 25xc2
 325 400 l 25
 325 300 l 25
 362 300 l 25
 362 200 l 25xc5
 400 200 l 25
 400 100 l 25xc2
 438 100 l 25
 438 0 l 25
 362 0 l 25
 362 100 l 25xc1
 288 100 l 25
 288 200 l 25
 212 200 l 25
 212 100 l 25xca
 138 100 l 25
 138 0 l 25
 62 0 l 29xd0
EndSplineSet
Validated: 1
EndChar

StartChar: uni23CF
Encoding: 9167 9167 266
Width: 450
Flags: W
HStem: 0 100<62 438> 200 100<62 100 400 438> 680 20G<212 288>
VStem: 175 150<500 600>
LayerCount: 2
Back
Fore
SplineSet
62 0 m 25
 62 100 l 25
 438 100 l 25
 438 0 l 25
 62 0 l 25
62 200 m 29
 62 300 l 29
 100 300 l 29
 100 400 l 29
 138 400 l 29
 138 500 l 29
 175 500 l 29
 175 600 l 29
 212 600 l 29
 212 700 l 29
 288 700 l 29
 288 600 l 29
 325 600 l 29
 325 500 l 29
 362 500 l 29
 362 400 l 29
 400 400 l 29
 400 300 l 29
 438 300 l 29
 438 200 l 29
 62 200 l 29
EndSplineSet
Validated: 1
EndChar

StartChar: uni23E9
Encoding: 9193 9193 267
Width: 450
Flags: W
HStem: 0 21G<-69 6 269 344> 300 100<156 231 494 569> 680 20G<-69 6 269 344>
VStem: -69 225<200 300 400 500> -69 150<100 200 500 600> -69 75<0 100 600 700> 269 225<200 300 400 500> 269 150<100 200 500 600> 269 75<0 100 600 700>
LayerCount: 2
Back
Fore
SplineSet
-69 700 m 29xe4
 6 700 l 29
 6 600 l 29xe4
 81 600 l 29
 81 500 l 29xe8
 156 500 l 29
 156 400 l 29
 231 400 l 29
 231 300 l 29
 156 300 l 29
 156 200 l 29xf0
 81 200 l 29
 81 100 l 29xe8
 6 100 l 29
 6 0 l 29
 -69 0 l 29
 -69 700 l 29xe4
269 700 m 25xe080
 344 700 l 25
 344 600 l 25xe080
 419 600 l 25
 419 500 l 25xe1
 494 500 l 25
 494 400 l 25
 569 400 l 25
 569 300 l 25
 494 300 l 25
 494 200 l 25xe2
 419 200 l 25
 419 100 l 25xe1
 344 100 l 25
 344 0 l 25
 269 0 l 25
 269 700 l 25xe080
EndSplineSet
Validated: 1
EndChar

StartChar: uni23EA
Encoding: 9194 9194 268
Width: 450
Flags: W
HStem: 0 21G<156 231 494 569> 300 100<-69 6 269 344> 680 20G<156 231 494 569>
VStem: 6 225<200 300 400 500> 81 150<100 200 500 600> 156 75<0 100 600 700> 344 225<200 300 400 500> 419 150<100 200 500 600> 494 75<0 100 600 700>
LayerCount: 2
Back
Fore
SplineSet
569 700 m 25xe080
 569 0 l 25
 494 0 l 25
 494 100 l 25xe080
 419 100 l 25
 419 200 l 25xe1
 344 200 l 25
 344 300 l 25
 269 300 l 25
 269 400 l 25
 344 400 l 25
 344 500 l 25xe2
 419 500 l 25
 419 600 l 25xe1
 494 600 l 25
 494 700 l 25
 569 700 l 25xe080
231 700 m 29xe4
 231 0 l 29
 156 0 l 29
 156 100 l 29xe4
 81 100 l 29
 81 200 l 29xe8
 6 200 l 29
 6 300 l 29
 -69 300 l 29
 -69 400 l 29
 6 400 l 29
 6 500 l 29xf0
 81 500 l 29
 81 600 l 29xe8
 156 600 l 29
 156 700 l 29
 231 700 l 29xe4
EndSplineSet
Validated: 1
EndChar

StartChar: uni23ED
Encoding: 9197 9197 269
Width: 450
Flags: W
HStem: 0 21G<-144 -69 194 269 531 644> 300 100<81 156 419 494> 680 20G<-144 -69 194 269 531 644>
VStem: -144 225<200 300 400 500> -144 150<100 200 500 600> -144 75<0 100 600 700> 194 225<200 300 400 500> 194 150<100 200 500 600> 194 75<0 100 600 700> 531 113<0 700>
LayerCount: 2
Back
Fore
SplineSet
531 700 m 29xe040
 644 700 l 29
 644 0 l 29
 531 0 l 29
 531 700 l 29xe040
194 700 m 25xe0c0
 269 700 l 25
 269 600 l 25xe0c0
 344 600 l 25
 344 500 l 25xe140
 419 500 l 25
 419 400 l 25
 494 400 l 25
 494 300 l 25
 419 300 l 25
 419 200 l 25xe240
 344 200 l 25
 344 100 l 25xe140
 269 100 l 25
 269 0 l 25
 194 0 l 25
 194 700 l 25xe0c0
-144 700 m 25xe440
 -69 700 l 25
 -69 600 l 25xe440
 6 600 l 25
 6 500 l 25xe840
 81 500 l 25
 81 400 l 25
 156 400 l 25
 156 300 l 25
 81 300 l 25
 81 200 l 25xf040
 6 200 l 25
 6 100 l 25xe840
 -69 100 l 25
 -69 0 l 25
 -144 0 l 25
 -144 700 l 25xe440
EndSplineSet
Validated: 1
EndChar

StartChar: uni23EE
Encoding: 9198 9198 270
Width: 450
Flags: W
HStem: 0 21G<-144 -31 231 306 569 644> 300 100<6 81 344 419> 680 20G<-144 -31 231 306 569 644>
VStem: -144 113<0 700> 81 225<200 300 400 500> 156 150<100 200 500 600> 231 75<0 100 600 700> 419 225<200 300 400 500> 494 150<100 200 500 600> 569 75<0 100 600 700>
LayerCount: 2
Back
Fore
SplineSet
-144 700 m 29xf0
 -31 700 l 29
 -31 0 l 29
 -144 0 l 29
 -144 700 l 29xf0
644 700 m 25xf040
 644 0 l 25
 569 0 l 25
 569 100 l 25xf040
 494 100 l 25
 494 200 l 25xf080
 419 200 l 25
 419 300 l 25
 344 300 l 25
 344 400 l 25
 419 400 l 25
 419 500 l 25xf1
 494 500 l 25
 494 600 l 25xf080
 569 600 l 25
 569 700 l 25
 644 700 l 25xf040
306 700 m 25xf2
 306 0 l 25
 231 0 l 25
 231 100 l 25xf2
 156 100 l 25
 156 200 l 25xf4
 81 200 l 25
 81 300 l 25
 6 300 l 25
 6 400 l 25
 81 400 l 25
 81 500 l 25xf8
 156 500 l 25
 156 600 l 25xf4
 231 600 l 25
 231 700 l 25
 306 700 l 25xf2
EndSplineSet
Validated: 1
EndChar

StartChar: uni23EF
Encoding: 9199 9199 271
Width: 450
Flags: W
HStem: 0 21G<-106 -31 269 381 494 606> 300 100<119 194> 680 20G<-106 -31 269 381 494 606>
VStem: -106 225<200 300 400 500> -106 150<100 200 500 600> -106 75<0 100 600 700> 269 112<0 700> 494 112<0 700>
LayerCount: 2
Back
Fore
SplineSet
-106 700 m 25xe7
 -31 700 l 25
 -31 600 l 25xe7
 44 600 l 25
 44 500 l 25xeb
 119 500 l 25
 119 400 l 25
 194 400 l 25
 194 300 l 25
 119 300 l 25
 119 200 l 25xf3
 44 200 l 25
 44 100 l 25xeb
 -31 100 l 25
 -31 0 l 25
 -106 0 l 25
 -106 700 l 25xe7
269 700 m 29
 381 700 l 29
 381 0 l 29
 269 0 l 29
 269 700 l 29
494 700 m 29
 606 700 l 29
 606 0 l 29
 494 0 l 29
 494 700 l 29
EndSplineSet
Validated: 1
EndChar

StartChar: uni23F8
Encoding: 9208 9208 273
Width: 450
Flags: W
HStem: 0 21G<81 194 306 419> 680 20G<81 194 306 419>
VStem: 81 113<0 700> 306 113<0 700>
LayerCount: 2
Back
Fore
SplineSet
81 700 m 29
 194 700 l 29
 194 0 l 29
 81 0 l 29
 81 700 l 29
306 700 m 29
 419 700 l 29
 419 0 l 29
 306 0 l 29
 306 700 l 29
EndSplineSet
Validated: 1
EndChar

StartChar: uni23F9
Encoding: 9209 9209 274
Width: 450
Flags: W
HStem: 0 21G<44 456> 680 20G<44 456>
VStem: 44 412<0 700>
LayerCount: 2
Back
Fore
SplineSet
44 700 m 29
 456 700 l 25
 456 0 l 25
 44 0 l 25
 44 700 l 29
EndSplineSet
Validated: 1
EndChar

StartChar: uni23FA
Encoding: 9210 9210 275
Width: 450
Flags: W
HStem: 0 21G<138 362> 680 20G<138 362>
VStem: 138 224<0 100 600 700>
LayerCount: 2
Back
Fore
SplineSet
25 500 m 29
 62 500 l 25
 62 600 l 25
 138 600 l 25
 138 700 l 25
 362 700 l 25
 362 600 l 25
 438 600 l 25
 438 500 l 25
 475 500 l 25
 475 200 l 25
 438 200 l 25
 438 100 l 25
 362 100 l 25
 362 0 l 25
 138 0 l 25
 138 100 l 25
 62 100 l 25
 62 200 l 25
 25 200 l 25
 25 500 l 29
EndSplineSet
Validated: 1
EndChar

StartChar: uni23FD
Encoding: 9213 9213 276
Width: 450
Flags: W
HStem: -100 100<100 400> 500 100<100 138 362 400>
VStem: -12 74<100 400> 25 75<0 100 400 500> 62 76<500 600> 212 76<300 800> 362 76<500 600> 400 75<0 100 400 500> 438 74<100 400>
LayerCount: 2
Back
Fore
SplineSet
212 300 m 29xc4
 212 800 l 1
 288 800 l 25
 288 300 l 1
 212 300 l 29xc4
62 500 m 25xcc
 62 600 l 25
 138 600 l 25
 138 500 l 25xcc
 100 500 l 25
 100 400 l 25xd4
 62 400 l 25
 62 100 l 25xe4
 100 100 l 25
 100 0 l 25
 400 0 l 25
 400 100 l 25xd5
 438 100 l 25
 438 400 l 25xc480
 400 400 l 25
 400 500 l 25xc5
 362 500 l 25
 362 600 l 25
 438 600 l 25
 438 500 l 25xc6
 475 500 l 25
 475 400 l 25xc5
 512 400 l 25
 512 100 l 25xc480
 475 100 l 25
 475 0 l 25xc5
 438 0 l 25
 438 -100 l 25
 62 -100 l 25
 62 0 l 25xcc80
 25 0 l 25
 25 100 l 25xd4
 -12 100 l 25
 -12 400 l 25xe4
 25 400 l 25
 25 500 l 25xd4
 62 500 l 25xcc
EndSplineSet
Validated: 1
EndChar

StartChar: uni2B58
Encoding: 11096 11096 277
Width: 450
Flags: W
HStem: 0 100<175 325> 100 100<100 138 362 400> 600 100<100 138 362 400> 700 100<175 325>
VStem: -12 74<300 500> 25 75<200 300 500 600> 62 113<100 200 600 700> 138 224<0 100 700 800> 212 76<200 600> 325 113<100 200 600 700> 400 75<200 300 500 600> 438 74<300 500>
LayerCount: 2
Back
Fore
SplineSet
212 200 m 29x6080
 212 600 l 25
 288 600 l 25
 288 200 l 25
 212 200 l 29x6080
100 200 m 25x64
 175 200 l 25x62
 175 100 l 25
 325 100 l 25x8240
 325 200 l 25x4240
 400 200 l 25
 400 300 l 25x4020
 438 300 l 25
 438 500 l 25x4010
 400 500 l 25
 400 600 l 25x6020
 325 600 l 25x6040
 325 700 l 25
 175 700 l 25x1240
 175 600 l 25x2240
 100 600 l 25
 100 500 l 25x24
 62 500 l 25
 62 300 l 25x28
 100 300 l 25
 100 200 l 25x64
62 600 m 25
 62 700 l 1x12
 138 700 l 25x21
 138 800 l 25
 362 800 l 25x11
 362 700 l 25x21
 438 700 l 25x1040
 438 600 l 25x2040
 475 600 l 25
 475 500 l 25x2020
 512 500 l 25
 512 300 l 25x2010
 475 300 l 25
 475 200 l 25x6020
 438 200 l 25
 438 100 l 25x6040
 362 100 l 25x61
 362 0 l 25
 138 0 l 25x81
 138 100 l 25x41
 62 100 l 25
 62 200 l 25x42
 25 200 l 25
 25 300 l 25x44
 -12 300 l 25
 -12 500 l 25x48
 25 500 l 25
 25 600 l 1x64
 62 600 l 25
EndSplineSet
Validated: 1
EndChar

StartChar: trademark
Encoding: 8482 8482 278
Width: 450
Flags: W
HStem: 400 300<44 119 231 306 456 531> 500 100<344 419> 600 100<-31 44 119 194 306 344 419 456>
VStem: 44 75<400 600> 231 113<600 700> 231 75<400 600> 344 75<500 600> 419 112<600 700> 456 75<400 600>
LayerCount: 2
Back
Fore
SplineSet
231 400 m 29x94
 231 700 l 25x98
 344 700 l 25x38
 344 600 l 25x58
 419 600 l 25x52
 419 700 l 25x31
 531 700 l 25x91
 531 400 l 25
 456 400 l 25x9080
 456 600 l 25x3080
 419 600 l 25
 419 500 l 25
 344 500 l 25x5280
 344 600 l 25x58
 306 600 l 25x34
 306 400 l 25
 231 400 l 29x94
-31 600 m 25x30
 -31 701 l 25
 194 700 l 25
 194 600 l 1
 119 600 l 25x30
 119 400 l 1
 44 400 l 25x90
 44 600 l 25
 -31 600 l 25x30
EndSplineSet
Validated: 5
EndChar

StartChar: uni25FC
Encoding: 9724 9724 279
Width: 450
Flags: W
HStem: 0 100<212 288> 680 20G<212 288>
VStem: 212 76<0 100 200 700>
LayerCount: 2
Back
Fore
SplineSet
212 700 m 29
 288 700 l 25
 288 200 l 25
 212 200 l 25
 212 700 l 29
288 0 m 25
 212 0 l 1
 212 100 l 25
 288 100 l 1
 288 0 l 25
EndSplineSet
Validated: 1
EndChar

StartChar: filledbox
Encoding: 9632 9632 280
Width: 450
Flags: W
HStem: 0 21G<25 475>
VStem: 25 450<0 800>
LayerCount: 2
Back
Fore
SplineSet
25 0 m 29
 25 800 l 25
 475 800 l 25
 475 0 l 25
 25 0 l 29
EndSplineSet
Validated: 1
EndChar

StartChar: uni26C7
Encoding: 9927 9927 281
Width: 450
Flags: W
HStem: -100 100<44 119 381 456> 400 100<81 119 381 419> 500 100<44 81 119 156 344 381 419 456>
VStem: 44 112<-100 0> 44 37<500 600> 81 38<400 500> 119 75<500 600> 156 188<100 200 400 500 600 700> 231 38<500 600> 306 75<500 600> 344 112<-100 0> 381 38<400 500> 419 37<500 600>
LayerCount: 2
Back
Fore
SplineSet
269 500 m 29xa0c0
 306 500 l 29
 306 600 l 29
 269 600 l 29
 269 500 l 29xa0c0
194 500 m 25xa280
 231 500 l 25
 231 600 l 25
 194 600 l 25
 194 500 l 25xa280
44 -100 m 25xd020
 44 0 l 25xd020
 119 0 l 25
 119 100 l 1xc2
 156 100 l 1
 156 200 l 1xc1
 119 200 l 1xc2
 119 400 l 25
 156 400 l 25xc5
 156 500 l 25xa5
 119 500 l 25xc5
 119 600 l 25xa2
 156 600 l 25
 156 700 l 25xa1
 194 700 l 25
 194 800 l 25
 306 800 l 25
 306 700 l 25xa240
 344 700 l 25
 344 600 l 25xa1
 381 600 l 25xa040
 381 500 l 25xc040
 344 500 l 25xa1
 344 400 l 25
 381 400 l 25
 381 200 l 1
 344 200 l 1
 344 100 l 1
 381 100 l 1
 381 0 l 25xc110
 456 0 l 25
 456 -100 l 25
 344 -100 l 25
 344 0 l 25
 156 0 l 25
 156 -100 l 25
 44 -100 l 25xd020
81 500 m 25xc8
 119 500 l 25
 119 400 l 25
 81 400 l 25xc4
 81 500 l 25xc8
44 600 m 25xa8
 81 600 l 25xa8
 81 500 l 25xc8
 44 500 l 25
 44 600 l 25xa8
381 400 m 25xc010
 381 500 l 25xc040
 419 500 l 25
 419 400 l 25
 381 400 l 25xc010
419 500 m 25xc010
 419 600 l 25
 456 600 l 25
 456 500 l 25xa008
 419 500 l 25xc010
EndSplineSet
Validated: 5
EndChar

StartChar: uni2744
Encoding: 10052 10052 282
Width: 450
Flags: HMW
LayerCount: 2
Back
Fore
SplineSet
288 500 m 29
 325 500 l 25
 325 600 l 25
 288 600 l 25
 288 500 l 29
175 500 m 25
 212 500 l 25
 212 600 l 25
 175 600 l 25
 175 500 l 25
212 400 m 25
 212 300 l 25
 288 300 l 25
 288 400 l 25
 212 400 l 25
-88 -100 m 25
 -88 100 l 1
 -12 100 l 25
 -12 0 l 25
 25 0 l 25
 25 100 l 25
 62 100 l 25
 62 200 l 25
 138 200 l 25
 138 300 l 25
 25 300 l 25
 25 200 l 25
 -50 200 l 25
 -50 300 l 25
 -88 300 l 25
 -88 400 l 25
 -50 400 l 25
 -50 500 l 25
 25 500 l 25
 25 400 l 25
 138 400 l 25
 138 500 l 25
 62 500 l 25
 62 600 l 25
 25 600 l 25
 25 700 l 25
 -12 700 l 25
 -12 600 l 25
 -88 600 l 25
 -88 800 l 25
 25 800 l 25
 25 700 l 25
 100 700 l 25
 100 600 l 25
 175 600 l 25
 175 700 l 25
 212 700 l 25
 212 800 l 25
 288 800 l 25
 288 700 l 25
 325 700 l 25
 325 600 l 25
 400 600 l 25
 400 700 l 25
 475 700 l 25
 475 800 l 25
 588 800 l 25
 588 600 l 25
 512 600 l 25
 512 700 l 25
 475 700 l 25
 475 600 l 25
 438 600 l 25
 438 500 l 25
 362 500 l 25
 362 400 l 25
 475 400 l 25
 475 500 l 25
 550 500 l 25
 550 400 l 25
 588 400 l 25
 588 300 l 25
 550 300 l 25
 550 200 l 25
 475 200 l 25
 475 300 l 25
 362 300 l 25
 362 200 l 25
 438 200 l 25
 438 100 l 25
 475 100 l 25
 475 0 l 25
 512 0 l 25
 512 100 l 25
 588 100 l 25
 588 -100 l 25
 475 -100 l 25
 475 0 l 25
 400 0 l 25
 400 100 l 25
 325 100 l 25
 325 200 l 25
 288 200 l 25
 288 100 l 25
 325 100 l 25
 325 0 l 25
 288 0 l 25
 288 -100 l 25
 212 -100 l 25
 212 0 l 25
 175 0 l 25
 175 100 l 25
 212 100 l 25
 212 200 l 25
 175 200 l 25
 175 100 l 25
 100 100 l 25
 100 0 l 25
 25 0 l 25
 25 -100 l 1
 -88 -100 l 25
EndSplineSet
Validated: 5
EndChar

StartChar: uni26A0
Encoding: 9888 9888 283
Width: 450
Flags: W
HStem: -100 100<-12 512> 100 100<212 288> 300 200<62 100 212 288 400 438> 700 100<212 288>
VStem: -88 76<0 100> -50 75<100 200> -12 74<200 300> 25 75<300 400> 62 76<400 500> 100 75<500 600> 138 74<600 700> 212 76<100 200 300 500> 288 74<600 700> 325 75<500 600> 362 76<400 500> 400 75<300 400> 438 74<200 300> 475 75<100 200> 512 76<0 100>
LayerCount: 2
Back
Fore
SplineSet
212 100 m 29xf010
 212 200 l 25
 288 200 l 25
 288 100 l 25
 212 100 l 29xf010
212 300 m 25
 212 500 l 25
 288 500 l 25
 288 300 l 25
 212 300 l 25
212 600 m 25xf028
 175 600 l 25
 175 500 l 25xf040
 138 500 l 25
 138 400 l 25xf080
 100 400 l 25
 100 300 l 25xf1
 62 300 l 25
 62 200 l 25xf2
 25 200 l 25
 25 100 l 25xf4
 -12 100 l 25
 -12 0 l 25
 512 0 l 25
 512 100 l 25xf80020
 475 100 l 25
 475 200 l 25xf00040
 438 200 l 25
 438 300 l 25xf00080
 400 300 l 25
 400 400 l 25xf001
 362 400 l 25
 362 500 l 25xf002
 325 500 l 25
 325 600 l 25xf004
 288 600 l 25
 288 700 l 25
 212 700 l 25
 212 600 l 25xf028
-88 -100 m 25xf80020
 -88 100 l 1xf80020
 -50 100 l 25
 -50 200 l 25xf4
 -12 200 l 25
 -12 300 l 25xf2
 25 300 l 25
 25 400 l 25xf1
 62 400 l 25
 62 500 l 25xf080
 100 500 l 25
 100 600 l 25xf040
 138 600 l 25
 138 700 l 25xf020
 175 700 l 25
 175 800 l 25
 325 800 l 25
 325 700 l 25xf044
 362 700 l 25
 362 600 l 25xf008
 400 600 l 25
 400 500 l 25xf004
 438 500 l 25
 438 400 l 25xf002
 475 400 l 25
 475 300 l 25xf001
 512 300 l 25
 512 200 l 25xf00080
 550 200 l 25
 550 100 l 25xf00040
 588 100 l 25
 588 -100 l 1
 -88 -100 l 25xf80020
EndSplineSet
Validated: 1
EndChar

StartChar: u1F642
Encoding: 128578 128578 284
Width: 450
Flags: W
HStem: -100 100<62 438> 100 100<138 362> 200 100<62 100 400 438> 500 100<100 175 325 400> 700 100<62 438>
VStem: -50 75<100 600> -12 74<0 100 600 700> 62 76<200 300> 100 75<500 600> 325 75<500 600> 362 76<200 300> 438 74<0 100 600 700> 475 75<100 600>
LayerCount: 2
Back
Fore
SplineSet
325 500 m 25x9840
 325 600 l 25
 400 600 l 25
 400 500 l 25
 325 500 l 25x9840
100 500 m 25x9880
 100 600 l 25
 175 600 l 25
 175 500 l 25
 100 500 l 25x9880
62 200 m 25xb9
 62 300 l 1
 138 300 l 25xb9
 138 200 l 25
 362 200 l 25xd920
 362 300 l 25
 438 300 l 25
 438 200 l 25xb920
 400 200 l 25xb840
 400 100 l 25
 100 100 l 25xd8c0
 100 200 l 1xb8c0
 62 200 l 25xb9
62 0 m 25xda
 438 0 l 25
 438 100 l 25xda10
 475 100 l 25
 475 600 l 25xd808
 438 600 l 25
 438 700 l 25
 62 700 l 25
 62 600 l 25xda10
 25 600 l 25
 25 100 l 25xdc
 62 100 l 25
 62 0 l 25xda
-50 100 m 25xdc
 -50 600 l 25xdc
 -12 600 l 25
 -12 700 l 25xda
 25 700 l 25
 25 800 l 25
 475 800 l 25
 475 700 l 25xdc08
 512 700 l 25
 512 600 l 25xd810
 550 600 l 25
 550 100 l 25xd808
 512 100 l 25
 512 0 l 25xd810
 475 0 l 25
 475 -100 l 25
 25 -100 l 25
 25 0 l 25xdc08
 -12 0 l 25
 -12 100 l 25xda
 -50 100 l 25xdc
EndSplineSet
Validated: 1
EndChar

StartChar: u1F643
Encoding: 128579 128579 285
Width: 450
Flags: W
HStem: -100 100<62 438> 100 100<100 175 325 400> 400 100<62 100 400 438> 500 100<138 362> 700 100<62 438>
VStem: -50 75<100 600> -12 74<0 100 600 700> 62 76<400 500> 100 75<100 200> 325 75<100 200> 362 76<400 500> 438 74<0 100 600 700> 475 75<100 600>
LayerCount: 2
Back
Fore
SplineSet
62 400 m 29xe920
 62 500 l 25xe920
 100 500 l 25xe880
 100 600 l 25
 400 600 l 25xd8c0
 400 500 l 25xe8c0
 438 500 l 25
 438 400 l 25
 362 400 l 25xe820
 362 500 l 25
 138 500 l 25xd920
 138 400 l 25
 62 400 l 29xe920
325 100 m 25xc840
 325 200 l 25
 400 200 l 25
 400 100 l 25
 325 100 l 25xc840
100 100 m 25xc880
 100 200 l 25
 175 200 l 25
 175 100 l 25
 100 100 l 25xc880
62 0 m 25xda
 438 0 l 25
 438 100 l 25xda10
 475 100 l 25
 475 600 l 25xd808
 438 600 l 25
 438 700 l 25
 62 700 l 25
 62 600 l 25xda10
 25 600 l 25
 25 100 l 25xdc
 62 100 l 25
 62 0 l 25xda
-50 100 m 25xdc
 -50 600 l 25xdc
 -12 600 l 25
 -12 700 l 25xda
 25 700 l 25
 25 800 l 25
 475 800 l 25
 475 700 l 25xdc08
 512 700 l 25
 512 600 l 25xd810
 550 600 l 25
 550 100 l 25xd808
 512 100 l 25
 512 0 l 25xd810
 475 0 l 25
 475 -100 l 25
 25 -100 l 25
 25 0 l 25xdc08
 -12 0 l 25
 -12 100 l 25xda
 -50 100 l 25xdc
EndSplineSet
Validated: 1
EndChar

StartChar: u1F604
Encoding: 128516 128516 286
Width: 450
Flags: W
HStem: -100 100<62 438> 100 200<100 400> 200 100<62 100 400 438> 400 100<62 100 175 212 288 325 400 438> 500 100<100 175 325 400> 700 100<62 438>
VStem: -50 75<100 600> -12 74<0 100 600 700> 62 38<400 500> 100 75<500 600> 175 37<400 500> 288 37<400 500> 325 75<500 600> 400 38<400 500> 438 74<0 100 600 700> 475 75<100 600>
LayerCount: 2
Back
Fore
SplineSet
100 100 m 29xc444
 100 200 l 29xa444
 62 200 l 29
 62 300 l 29
 438 300 l 29
 438 200 l 29xa482
 400 200 l 29xa404
 400 100 l 29
 100 100 l 29xc444
288 400 m 25x9410
 288 500 l 25
 325 500 l 25x9410
 325 600 l 25
 400 600 l 25x8c08
 400 500 l 25x9408
 438 500 l 25
 438 400 l 25
 400 400 l 25x9404
 400 500 l 25x9408
 325 500 l 25
 325 400 l 25
 288 400 l 25x9410
62 400 m 25x9480
 62 500 l 25
 100 500 l 25x9480
 100 600 l 25
 175 600 l 25x8c40
 175 500 l 25x9440
 212 500 l 25
 212 400 l 25
 175 400 l 25x9420
 175 500 l 25x9440
 100 500 l 25
 100 400 l 25
 62 400 l 25x9480
62 0 m 25xcd
 438 0 l 25
 438 100 l 25xcd02
 475 100 l 29
 475 600 l 25xcc01
 438 600 l 25
 438 700 l 25
 62 700 l 25
 62 600 l 25xcd02
 25 600 l 25
 25 100 l 25xce
 62 100 l 25
 62 0 l 25xcd
-50 100 m 25xce
 -50 600 l 25xce
 -12 600 l 25
 -12 700 l 25xcd
 25 700 l 25
 25 800 l 25
 475 800 l 25
 475 700 l 25xce01
 512 700 l 25
 512 600 l 25xcc02
 550 600 l 25
 550 100 l 25xcc01
 512 100 l 25
 512 0 l 25xcc02
 475 0 l 25
 475 -100 l 25
 25 -100 l 25
 25 0 l 25xce01
 -12 0 l 25
 -12 100 l 25xcd
 -50 100 l 25xce
EndSplineSet
Validated: 5
EndChar

StartChar: u1F606
Encoding: 128518 128518 287
Width: 450
Flags: W
HStem: -100 100<62 438> 100 200<100 400> 200 100<62 100 400 438> 400 100<138 250 400 438> 500 100<62 100 250 362> 700 100<62 438>
VStem: -50 75<100 600> -12 74<0 100 600 700> 62 76<500 600> 100 150<400 500> 250 150<500 600> 362 76<400 500> 438 74<0 100 600 700> 475 75<100 600>
LayerCount: 2
Back
Fore
SplineSet
62 600 m 29x8d
 138 600 l 25x8c80
 138 500 l 25x9480
 250 500 l 25x9440
 250 600 l 25
 400 600 l 25x8c20
 400 500 l 25x9420
 438 500 l 25
 438 400 l 25
 362 400 l 25x9410
 362 500 l 25x8c10
 250 500 l 25
 250 400 l 25
 100 400 l 25x9450
 100 500 l 25x8c50
 62 500 l 25x8c80
 62 600 l 29x8d
100 100 m 25xc440
 100 200 l 25xa440
 62 200 l 25
 62 300 l 25
 438 300 l 25
 438 200 l 25
 400 200 l 25xa4a8
 400 100 l 25xc4a8
 100 100 l 25xc440
475 100 m 1049xc404
62 0 m 25xcd
 438 0 l 25
 438 100 l 25xcd08
 475 100 l 25
 475 600 l 25xcc04
 438 600 l 25
 438 700 l 25
 62 700 l 25
 62 600 l 25xcd08
 25 600 l 25
 25 100 l 25xce
 62 100 l 25
 62 0 l 25xcd
-50 100 m 25xce
 -50 600 l 25xce
 -12 600 l 25
 -12 700 l 25xcd
 25 700 l 25
 25 800 l 25
 475 800 l 25
 475 700 l 25xce04
 512 700 l 25
 512 600 l 25xcc08
 550 600 l 25
 550 100 l 25xcc04
 512 100 l 25
 512 0 l 25xcc08
 475 0 l 25
 475 -100 l 25
 25 -100 l 25
 25 0 l 25xce04
 -12 0 l 25
 -12 100 l 25xcd
 -50 100 l 25xce
EndSplineSet
Validated: 5
EndChar

StartChar: u1F60E
Encoding: 128526 128526 288
Width: 450
Flags: W
HStem: -100 100<62 438> 100 100<138 362> 200 100<62 100 400 438> 400 100<62 100 400 438> 500 100<212 288> 700 100<62 438>
VStem: -50 75<100 500> -12 74<0 100 600 700> 62 150<400 500> 62 76<200 300> 100 300<100 200 500 600> 288 150<400 500> 362 76<200 300> 438 74<0 100 600 700> 475 75<100 500>
LayerCount: 2
Back
Fore
SplineSet
62 200 m 29xa440
 62 300 l 5
 138 300 l 29xa440
 138 200 l 29
 362 200 l 29xc448
 362 300 l 29
 438 300 l 29
 438 200 l 29xa448
 400 200 l 29xa420
 400 100 l 29
 100 100 l 29xc420
 100 200 l 5xa420
 62 200 l 29xa440
62 400 m 1x9490
 62 500 l 25x9490
 100 500 l 25x9420
 100 600 l 25
 400 600 l 25x8c20
 400 500 l 25x9420
 438 500 l 25
 438 400 l 25
 288 400 l 25x9410
 288 500 l 25
 212 500 l 1x8c90
 212 400 l 25
 62 400 l 1x9490
62 0 m 25xcd
 438 0 l 25
 438 100 l 25xcd04
 475 100 l 1
 475 500 l 1xcc02
 438 500 l 1x9412
 438 700 l 1
 62 700 l 1x9504
 62 500 l 1x9480
 25 500 l 1
 25 100 l 1xce80
 62 100 l 25
 62 0 l 25xcd
-50 100 m 25xce
 -50 600 l 25xce
 -12 600 l 25
 -12 700 l 25xcd
 25 700 l 25
 25 800 l 25
 475 800 l 25
 475 700 l 25xce02
 512 700 l 25
 512 600 l 25xcc04
 550 600 l 25
 550 100 l 25xcc02
 512 100 l 25
 512 0 l 25xcc04
 475 0 l 25
 475 -100 l 25
 25 -100 l 25
 25 0 l 25xce02
 -12 0 l 25
 -12 100 l 25xcd
 -50 100 l 25xce
EndSplineSet
Validated: 5
EndChar

StartChar: u1F621
Encoding: 128545 128545 289
Width: 450
Flags: W
HStem: -100 100<62 438> 100 100<100 138 362 400> 200 100<175 325> 400 100<175 212 288 325> 500 100<62 138 362 438> 700 100<62 438>
VStem: -50 75<100 600> -12 74<0 100 600 700> 62 113<500 600> 100 75<100 200> 138 74<400 500> 288 74<400 500> 325 113<500 600> 325 75<101 200> 438 74<0 100 600 700> 475 75<100 600>
LayerCount: 2
Back
Fore
SplineSet
100 100 m 25xc444
 100 200 l 25xc444
 138 200 l 25xc420
 138 300 l 25
 362 300 l 25xa430
 362 200 l 25xc430
 400 200 l 25
 400 101 l 25
 325 100 l 25xc404
 325 200 l 25
 175 200 l 25xa444
 175 100 l 25
 100 100 l 25xc444
288 400 m 5x9410
 288 500 l 29x9410
 325 500 l 29x9408
 325 600 l 5
 438 600 l 1
 438 500 l 5x8c08
 362 500 l 5x8c10
 362 400 l 29
 288 400 l 5x9410
138 400 m 29x9420
 138 500 l 5x8c20
 62 500 l 5x8c80
 62 600 l 1x8d
 175 600 l 5x8c80
 175 500 l 29x9480
 212 500 l 29
 212 400 l 29
 138 400 l 29x9420
62 0 m 25xcd
 438 0 l 25
 438 100 l 25xcd02
 475 100 l 25
 475 600 l 25
 438 600 l 29xcc09
 438 700 l 25
 62 700 l 25
 62 600 l 29xcd02
 25 600 l 25
 25 100 l 25xce
 62 100 l 25
 62 0 l 25xcd
-50 100 m 25xce
 -50 600 l 25xce
 -12 600 l 25
 -12 700 l 25xcd
 25 700 l 25
 25 800 l 25
 475 800 l 25
 475 700 l 25xce01
 512 700 l 25
 512 600 l 25xcc02
 550 600 l 25
 550 100 l 25xcc01
 512 100 l 25
 512 0 l 25xcc02
 475 0 l 25
 475 -100 l 25
 25 -100 l 25
 25 0 l 25xce01
 -12 0 l 25
 -12 100 l 25xcd
 -50 100 l 25xce
EndSplineSet
Validated: 5
EndChar

StartChar: u1F620
Encoding: 128544 128544 290
Width: 450
Flags: W
HStem: -100 100<62 438> 100 100<100 138 362 400> 200 100<175 325> 400 100<175 212 288 325> 500 100<100 138 362 400> 700 100<62 438>
VStem: -50 75<100 600> -12 74<0 100 600 700> 100 75<100 200 500 600> 138 74<400 500> 288 74<400 500> 325 75<101 200 500 600> 438 74<0 100 600 700> 475 75<100 600>
LayerCount: 2
Back
Fore
SplineSet
288 400 m 1x9420
 288 500 l 25x9420
 325 500 l 25x9410
 325 600 l 25
 400 600 l 25
 400 500 l 25x8c10
 362 500 l 1x8c20
 362 400 l 25
 288 400 l 1x9420
138 400 m 25x9440
 138 500 l 25x8c40
 100 500 l 25
 100 600 l 25
 175 600 l 25x8c80
 175 500 l 25x9480
 212 500 l 25
 212 400 l 25
 138 400 l 25x9440
100 100 m 29xc490
 100 200 l 29xc490
 138 200 l 29xc440
 138 300 l 29
 362 300 l 29xa460
 362 200 l 29xc460
 400 200 l 29
 400 101 l 29
 325 100 l 29xc410
 325 200 l 29
 175 200 l 29xa490
 175 100 l 29
 100 100 l 29xc490
62 0 m 25xcd
 438 0 l 25
 438 100 l 25xcd08
 475 100 l 25
 475 600 l 25xcc04
 438 600 l 25
 438 700 l 25
 62 700 l 25
 62 600 l 25xcd08
 25 600 l 25
 25 100 l 25xce
 62 100 l 25
 62 0 l 25xcd
-50 100 m 25xce
 -50 600 l 25xce
 -12 600 l 25
 -12 700 l 25xcd
 25 700 l 25
 25 800 l 25
 475 800 l 25
 475 700 l 25xce04
 512 700 l 25
 512 600 l 25xcc08
 550 600 l 25
 550 100 l 25xcc04
 512 100 l 25
 512 0 l 25xcc08
 475 0 l 25
 475 -100 l 25
 25 -100 l 25
 25 0 l 25xce04
 -12 0 l 25
 -12 100 l 25xcd
 -50 100 l 25xce
EndSplineSet
Validated: 1
EndChar

StartChar: u1F62D
Encoding: 128557 128557 291
Width: 450
Flags: W
HStem: -100 100<62 438> 100 200<138 362> 300 100<62 100 400 438> 480 20G<100 138 362 400> 500 100<138 212 288 362> 700 100<62 438>
VStem: -50 75<100 600> -12 74<0 100 600 700> 62 76<300 400> 100 38<400 500> 138 74<500 600> 288 74<500 600> 362 76<300 400> 362 38<400 500> 438 74<0 100 600 700> 475 75<100 600>
LayerCount: 2
Back
Fore
SplineSet
138 100 m 29xc424
 138 300 l 25
 362 300 l 25xc488
 362 100 l 25
 138 100 l 29xc424
362 300 m 25
 362 500 l 25xd410
 400 500 l 25
 400 400 l 25xb404
 438 400 l 25
 438 300 l 25xb408
 362 300 l 25
62 300 m 25xa480
 62 400 l 25xa480
 100 400 l 25
 100 500 l 25
 138 500 l 25xb440
 138 300 l 25xd480
 62 300 l 25xa480
288 500 m 25x8c10
 288 600 l 25
 362 600 l 25x8c10
 362 500 l 25x9410
 288 500 l 25x8c10
138 500 m 25x9440
 138 600 l 25
 212 600 l 25
 212 500 l 25x8c20
 138 500 l 25x9440
62 0 m 25xcd
 438 0 l 25
 438 100 l 25xcd02
 475 100 l 25
 475 600 l 25xcc01
 438 600 l 25
 438 700 l 25
 62 700 l 25
 62 600 l 25xcd02
 25 600 l 25
 25 100 l 25xce
 62 100 l 25
 62 0 l 25xcd
-50 100 m 25xce
 -50 600 l 25xce
 -12 600 l 25
 -12 700 l 25xcd
 25 700 l 25
 25 800 l 25
 475 800 l 25
 475 700 l 25xce01
 512 700 l 25
 512 600 l 25xcc02
 550 600 l 25
 550 100 l 25xcc01
 512 100 l 25
 512 0 l 25xcc02
 475 0 l 25
 475 -100 l 25
 25 -100 l 25
 25 0 l 25xce01
 -12 0 l 25
 -12 100 l 25xcd
 -50 100 l 25xce
EndSplineSet
Validated: 5
EndChar

StartChar: u1F50C
Encoding: 128268 128268 292
Width: 450
Flags: W
VStem: 119 75<600 800> 156 188<300 400> 194 112<150 300> 306 75<600 800>
LayerCount: 2
Back
Fore
SplineSet
81 400 m 29x40
 81 600 l 25
 119 600 l 25
 119 800 l 25
 194 800 l 25
 194 600 l 25
 306 600 l 25
 306 800 l 25
 381 800 l 25
 381 600 l 25x90
 419 600 l 25
 419 400 l 25
 344 400 l 25
 344 300 l 25x40
 306 300 l 25
 306 150 l 25
 269 150 l 25
 269 -100 l 25
 231 -100 l 25
 231 150 l 25
 194 150 l 25
 194 300 l 25x20
 156 300 l 25
 156 400 l 25
 81 400 l 29x40
EndSplineSet
Validated: 1
EndChar

StartChar: u1F4FA
Encoding: 128250 128250 293
Width: 450
Flags: W
HStem: -100 200<62 438> 500 100<62 175 325 438> 700 100<100 175 325 400>
VStem: -12 74<100 500> 100 75<700 800> 325 75<700 800> 438 74<100 500>
LayerCount: 2
Back
Fore
SplineSet
62 100 m 29
 438 100 l 25
 438 500 l 25
 62 500 l 25
 62 100 l 29
-12 -100 m 25
 -12 600 l 25
 175 600 l 25
 175 700 l 25
 100 700 l 25
 100 800 l 25
 175 800 l 25
 175 700 l 25
 325 700 l 25
 325 800 l 25
 400 800 l 25
 400 700 l 25
 325 700 l 25
 325 600 l 25
 512 600 l 25
 512 -100 l 25
 -12 -100 l 25
EndSplineSet
Validated: 5
EndChar

StartChar: u1F4FB
Encoding: 128251 128251 294
Width: 450
Flags: W
HStem: -100 100<62 438> 200 100<400 438> 300 100<62 362>
VStem: -12 74<0 300> 100 75<50 250> 288 37<150 250> 362 150<200 300> 438 74<0 200 300 500 700 800> 438 37<500 700>
LayerCount: 2
Back
Fore
SplineSet
288 150 m 29x9c
 288 250 l 25
 325 250 l 25
 325 150 l 25
 288 150 l 29x9c
100 50 m 25
 100 250 l 25
 175 250 l 25
 175 50 l 25
 100 50 l 25
62 0 m 25
 438 0 l 25
 438 200 l 25xdd
 362 200 l 25xde
 362 300 l 25
 62 300 l 25xbe
 62 0 l 25
-12 -100 m 25
 -12 300 l 25
 25 300 l 25
 25 400 l 25
 400 400 l 25xbd
 400 300 l 25
 438 300 l 25
 438 800 l 25
 512 800 l 25
 512 700 l 25xdd
 475 700 l 25
 475 500 l 25xdc80
 512 500 l 25
 512 -100 l 25
 -12 -100 l 25
EndSplineSet
Validated: 1
EndChar

StartChar: u1F4FC
Encoding: 128252 128252 295
Width: 450
Flags: W
HStem: 0 100<25 475> 150 100<138 212 288 362> 250 100<62 100 400 438> 350 100<138 212 288 362> 500 100<25 475>
VStem: -50 75<100 500> 62 76<250 350> 100 300<150 250 350 450> 212 76<250 350> 362 76<250 350> 475 75<100 500>
LayerCount: 2
Back
Fore
SplineSet
138 250 m 29xdea0
 212 250 l 25
 212 350 l 25
 138 350 l 25
 138 250 l 29xdea0
288 250 m 25
 362 250 l 25
 362 350 l 25xdce0
 288 350 l 25
 288 250 l 25
100 150 m 25xcd20
 100 250 l 25xad20
 62 250 l 25
 62 350 l 25xae20
 100 350 l 25xad20
 100 450 l 25
 400 450 l 25x9d20
 400 350 l 25xad20
 438 350 l 25
 438 250 l 25xac60
 400 250 l 25xad20
 400 150 l 25
 100 150 l 25xcd20
25 100 m 25
 475 100 l 25
 475 500 l 25
 25 500 l 25
 25 100 l 25
-50 0 m 25
 -50 600 l 25
 550 600 l 25
 550 0 l 25
 -50 0 l 25
EndSplineSet
Validated: 1
EndChar

StartChar: u1F508
Encoding: 128264 128264 296
Width: 450
Flags: W
HStem: -100 100<362 400> 100 100<212 250> 200 100<100 138> 400 100<100 138> 500 100<212 250> 700 100<362 400>
VStem: 25 75<300 400> 138 74<300 400> 175 113<100 200 500 600> 250 112<0 100 600 700> 325 150<-100 0 700 800> 400 75<0 700>
LayerCount: 2
Back
Fore
SplineSet
212 200 m 29xcf
 288 200 l 29xa680
 288 100 l 29xc680
 362 100 l 29
 362 0 l 29
 400 0 l 29
 400 700 l 29
 362 700 l 29
 362 600 l 29xce50
 288 600 l 29
 288 500 l 29xce80
 212 500 l 29
 212 200 l 29xcf
100 300 m 29
 138 300 l 29
 138 400 l 29
 100 400 l 29xb7
 100 300 l 29
25 200 m 29
 25 500 l 29
 175 500 l 29
 175 600 l 29xae80
 250 600 l 29
 250 700 l 29xae40
 325 700 l 29
 325 800 l 29
 475 800 l 29
 475 -100 l 29
 325 -100 l 29
 325 0 l 29xae20
 250 0 l 29
 250 100 l 29xce40
 175 100 l 29xce80
 175 200 l 29xa680
 25 200 l 29
EndSplineSet
Validated: 1
EndChar

StartChar: u1F507
Encoding: 128263 128263 297
Width: 450
Flags: W
HStem: -100 100<362 400> 0 100<250 325> 200 100<100 138 175 212 325 362> 400 100<100 138 175 212 325 362> 600 100<250 325> 700 100<362 400>
VStem: 25 113<200 300 400 500> 25 75<300 400> 175 75<200 300 400 500> 250 112<0 100 600 700> 288 74<200 300 400 500> 325 150<-100 0 700 800> 400 75<0 700>
LayerCount: 2
Back
Fore
SplineSet
250 600 m 29x3848
 250 700 l 25x3848
 325 700 l 25x3810
 325 800 l 25
 475 800 l 25
 475 -100 l 25
 325 -100 l 25xb410
 325 0 l 25x7010
 250 0 l 25
 250 100 l 25
 362 100 l 25x7040
 362 0 l 25
 400 0 l 25
 400 700 l 25
 362 700 l 25xb448
 362 600 l 25
 250 600 l 29x3848
175 200 m 25x30a0
 175 300 l 25
 212 300 l 25
 212 400 l 25
 175 400 l 25
 175 500 l 25
 250 500 l 25
 250 400 l 25
 288 400 l 25
 288 500 l 25
 362 500 l 25
 362 400 l 25x30a0
 325 400 l 25
 325 300 l 25x3010
 362 300 l 25
 362 200 l 25
 288 200 l 25
 288 300 l 25
 250 300 l 25
 250 200 l 25
 175 200 l 25x30a0
25 200 m 25x32
 25 500 l 25
 138 500 l 25
 138 400 l 25x32
 100 400 l 25
 100 300 l 25x31
 138 300 l 25
 138 200 l 25
 25 200 l 25x32
EndSplineSet
Validated: 1
EndChar

StartChar: u1F509
Encoding: 128265 128265 298
Width: 450
Flags: W
HStem: 0 100<212 250> 600 100<212 250>
VStem: -50 188<200 300 400 500> -50 75<300 400> 100 112<100 200 500 600> 175 113<0 100 600 700> 250 150<-100 0 700 800> 325 75<0 700> 438 74<150 250 450 550> 475 75<250 450>
LayerCount: 2
Back
Fore
SplineSet
438 550 m 29xc080
 512 550 l 29
 512 450 l 29xc080
 550 450 l 29
 550 250 l 29xc040
 512 250 l 29
 512 150 l 29
 438 150 l 29
 438 250 l 29xc080
 475 250 l 29
 475 450 l 29xc040
 438 450 l 29
 438 550 l 29xc080
138 200 m 25xe0
 212 200 l 25
 212 100 l 25xc8
 288 100 l 25
 288 0 l 25
 325 0 l 25
 325 700 l 25
 288 700 l 25
 288 600 l 25xc5
 212 600 l 25
 212 500 l 25xc8
 138 500 l 25
 138 200 l 25xe0
25 300 m 25xd0
 62 300 l 25
 62 400 l 25
 25 400 l 25
 25 300 l 25xd0
-50 200 m 25xe0
 -50 500 l 25xe0
 100 500 l 25
 100 600 l 25xc8
 175 600 l 25
 175 700 l 25xc4
 250 700 l 25
 250 800 l 25
 400 800 l 25
 400 -100 l 25
 250 -100 l 25
 250 0 l 25xc2
 175 0 l 25
 175 100 l 25xc4
 100 100 l 25
 100 200 l 25xc8
 -50 200 l 25xe0
EndSplineSet
Validated: 1
EndChar

StartChar: u1F50A
Encoding: 128266 128266 299
Width: 450
Flags: W
HStem: -100 100<212 250> 100 100<62 100> 150 100<362 400> 200 100<-50 -12> 400 100<-50 -12> 450 100<362 400> 500 100<62 100> 700 100<212 250>
VStem: -125 75<300 400> -12 74<300 400> 25 113<100 200 500 600> 100 112<0 100 600 700> 175 150<-100 0 700 800> 250 75<0 700> 362 76<150 250 450 550> 400 75<250 450> 475 75<50 150 550 650> 512 76<150 250 450 550> 550 75<250 450>
LayerCount: 2
Back
Fore
SplineSet
475 550 m 29xa58080
 475 650 l 25
 550 650 l 25
 550 550 l 25xa58080
 588 550 l 25
 588 450 l 25xa58040
 625 450 l 25
 625 250 l 25xa58020
 588 250 l 25
 588 150 l 25xa58040
 550 150 l 25
 550 50 l 25
 475 50 l 25
 475 150 l 25xa58080
 512 150 l 25
 512 250 l 25xa58040
 550 250 l 25
 550 450 l 25xa58020
 512 450 l 25
 512 550 l 25xa58040
 475 550 l 29xa58080
362 550 m 25xa582
 438 550 l 25
 438 450 l 25xa582
 475 450 l 25
 475 250 l 25xa581
 438 250 l 25
 438 150 l 25
 362 150 l 25
 362 250 l 25xa582
 400 250 l 25
 400 450 l 25xa581
 362 450 l 25
 362 550 l 25xa582
62 200 m 25xc3c0
 138 200 l 25x91a0
 138 100 l 25xc1a0
 212 100 l 25
 212 0 l 25
 250 0 l 25
 250 700 l 25
 212 700 l 25
 212 600 l 25xc394
 138 600 l 25
 138 500 l 25xc3a0
 62 500 l 25
 62 200 l 25xc3c0
-50 300 m 25
 -12 300 l 25
 -12 400 l 25
 -50 400 l 25x99c0
 -50 300 l 25
-125 200 m 25
 -125 500 l 25
 25 500 l 25
 25 600 l 25x93a0
 100 600 l 25
 100 700 l 25x9390
 175 700 l 25
 175 800 l 25
 325 800 l 25
 325 -100 l 25
 175 -100 l 25
 175 0 l 25x9388
 100 0 l 25
 100 100 l 25xc390
 25 100 l 25xc3a0
 25 200 l 25x91a0
 -125 200 l 25
EndSplineSet
Validated: 1
EndChar

StartChar: u1F50B
Encoding: 128267 128267 300
Width: 450
Flags: W
HStem: -100 100<138 362>
VStem: 62 150<300 400 500 600> 62 76<0 100 400 500> 288 150<300 400 500 600> 362 76<0 100 400 500>
LayerCount: 2
Back
Fore
SplineSet
212 300 m 25xc0
 288 300 l 25
 288 400 l 25xd0
 362 400 l 25
 362 500 l 25x88
 288 500 l 25
 288 600 l 25
 212 600 l 25
 212 500 l 25xd0
 138 500 l 25
 138 400 l 25xa0
 212 400 l 25
 212 300 l 25xc0
138 0 m 1xa8
 362 0 l 25
 362 100 l 1
 138 100 l 29
 138 0 l 1xa8
62 -100 m 25
 62 700 l 25
 175 700 l 25
 175 800 l 25
 325 800 l 25
 325 700 l 25
 438 700 l 25
 438 -100 l 25
 62 -100 l 25
EndSplineSet
Validated: 1
EndChar

StartChar: u1F50D
Encoding: 128269 128269 301
Width: 450
Flags: W
HStem: 200 100<156 306> 700 100<156 306>
VStem: 44 75<400 600> 81 75<300 400 600 700> 306 75<300 400 600 700> 344 75<400 600> 381 75<-100 0>
LayerCount: 2
Back
Fore
SplineSet
156 300 m 29xd0
 306 300 l 25
 306 400 l 25xd8
 344 400 l 25
 344 600 l 25xc4
 306 600 l 25
 306 700 l 25
 156 700 l 25
 156 600 l 25xd8
 119 600 l 25
 119 400 l 25xe0
 156 400 l 25
 156 300 l 29xd0
44 400 m 25xe0
 44 600 l 25xe0
 81 600 l 25
 81 700 l 25xd0
 119 700 l 25
 119 800 l 25
 344 800 l 25
 344 700 l 25xe4
 381 700 l 25
 381 600 l 25xc8
 419 600 l 25
 419 400 l 25xc4
 381 400 l 25xc8
 381 200 l 25xc2
 419 200 l 25
 419 100 l 25xc4
 456 100 l 25
 456 -100 l 25
 381 -100 l 25
 381 0 l 25xc2
 344 0 l 25
 344 100 l 25xc4
 306 100 l 25
 306 200 l 25
 119 200 l 25
 119 300 l 25xe8
 81 300 l 25
 81 400 l 25xd0
 44 400 l 25xe0
EndSplineSet
Validated: 1
EndChar

StartChar: u1F50E
Encoding: 128270 128270 302
Width: 450
Flags: W
HStem: 200 100<212 325> 700 100<175 325>
VStem: 62 76<-100 0 400 600> 100 112<100 200> 100 75<300 400 600 700> 138 224<200 300 700 800> 325 75<300 400 600 700> 362 76<400 600>
LayerCount: 2
Back
Fore
SplineSet
175 300 m 29xc8
 325 300 l 25
 325 400 l 25xca
 362 400 l 25
 362 600 l 25xc1
 325 600 l 25
 325 700 l 25
 175 700 l 25
 175 600 l 25xca
 138 600 l 25
 138 400 l 25xe0
 175 400 l 25
 175 300 l 29xc8
62 400 m 25xe0
 62 600 l 25xe0
 100 600 l 25
 100 700 l 25xc8
 138 700 l 25
 138 800 l 25
 362 800 l 25
 362 700 l 25xc4
 400 700 l 25
 400 600 l 25xc2
 438 600 l 25
 438 400 l 25xc1
 400 400 l 25
 400 300 l 25xc2
 362 300 l 25
 362 200 l 25xc4
 212 200 l 25
 212 100 l 25xd0
 175 100 l 25
 175 0 l 25xc8
 138 0 l 25
 138 -100 l 25
 62 -100 l 25
 62 100 l 25xe0
 100 100 l 25
 100 200 l 25xd0
 138 200 l 25
 138 300 l 25xc4
 100 300 l 25
 100 400 l 25xc8
 62 400 l 25xe0
EndSplineSet
Validated: 1
EndChar

StartChar: u1F512
Encoding: 128274 128274 303
Width: 450
Flags: W
HStem: 0 100<212 288> 400 100<175 325> 700 100<175 325>
VStem: 62 150<100 300> 62 76<500 600> 100 75<600 700> 288 150<100 300> 325 75<600 700> 362 76<500 600>
LayerCount: 2
Back
Fore
SplineSet
362 500 m 25xe880
 362 600 l 25xe880
 325 600 l 25
 325 700 l 25
 175 700 l 25
 175 600 l 25xe5
 138 600 l 25
 138 500 l 25
 362 500 l 25xe880
212 100 m 29xf0
 288 100 l 29
 288 300 l 29xf2
 325 300 l 29
 325 400 l 29
 175 400 l 29
 175 300 l 29xe5
 212 300 l 29
 212 100 l 29xf0
62 0 m 25xe880
 62 600 l 25xe880
 100 600 l 25
 100 700 l 25xe4
 138 700 l 25
 138 800 l 25
 362 800 l 25
 362 700 l 25xe880
 400 700 l 25
 400 600 l 25xe1
 438 600 l 25
 438 0 l 25
 62 0 l 25xe880
EndSplineSet
Validated: 1
EndChar

StartChar: u1F513
Encoding: 128275 128275 304
Width: 450
Flags: W
HStem: 0 100<212 288> 400 100<175 325> 600 100<362 400> 700 100<175 325>
VStem: 62 150<100 300> 62 76<500 600> 100 75<600 700> 288 150<100 300> 325 113<300 400> 325 75<600 700>
LayerCount: 2
Back
Fore
SplineSet
212 100 m 29xc8
 288 100 l 29
 288 300 l 29xc9
 325 300 l 29
 325 400 l 29
 175 400 l 29
 175 300 l 29xc280
 212 300 l 29
 212 100 l 29xc8
325 600 m 25xe440
 325 700 l 25
 175 700 l 25xd240
 175 600 l 25xe240
 138 600 l 25
 138 500 l 25
 438 500 l 25
 438 0 l 25
 62 0 l 25
 62 600 l 25xe480
 100 600 l 25xe2
 100 700 l 25xd2
 138 700 l 25
 138 800 l 25
 362 800 l 25xd4
 362 700 l 25
 400 700 l 25
 400 600 l 25
 325 600 l 25xe440
EndSplineSet
Validated: 1
EndChar

StartChar: u1F514
Encoding: 128276 128276 305
Width: 450
Flags: W
HStem: -100 100<231 269>
VStem: 156 75<0 100> 194 112<-100 0 700 800> 269 75<0 100>
LayerCount: 2
Back
Fore
SplineSet
231 0 m 29xd0
 269 0 l 25
 269 100 l 25
 231 100 l 25
 231 0 l 29xd0
6 100 m 25
 6 300 l 25
 44 300 l 25
 44 500 l 25
 81 500 l 25
 81 600 l 25
 119 600 l 25
 119 700 l 25
 194 700 l 25
 194 800 l 25
 306 800 l 25
 306 700 l 25xa0
 381 700 l 25
 381 600 l 25
 419 600 l 25
 419 500 l 25
 456 500 l 25
 456 300 l 25
 494 300 l 25
 494 100 l 25
 344 100 l 25
 344 0 l 25x90
 306 0 l 25
 306 -100 l 25
 194 -100 l 25
 194 0 l 25xa0
 156 0 l 25
 156 100 l 25
 6 100 l 25
EndSplineSet
Validated: 1
EndChar

StartChar: u1F515
Encoding: 128277 128277 306
Width: 450
Flags: W
HStem: 0 100<156 194 306 344> 100 100<81 119 231 269 381 419> 200 100<156 194 306 344> 600 200<194 306> 600 100<156 194 306 344>
VStem: 6 75<200 300> 44 75<300 500> 81 75<500 600> 156 75<0 100 200 300> 194 112<100 200 700 800> 269 75<0 100 200 300> 344 75<500 600> 381 75<300 500> 419 75<200 300>
LayerCount: 2
Back
Fore
SplineSet
156 0 m 29x80a0
 156 100 l 25x80a0
 194 100 l 25
 194 200 l 25xa040
 156 200 l 25
 156 300 l 25
 231 300 l 25xa080
 231 200 l 25
 269 200 l 25x40a0
 269 300 l 25
 344 300 l 25
 344 200 l 25x20a0
 306 200 l 25
 306 100 l 25xa040
 344 100 l 25
 344 0 l 25
 269 0 l 25xa020
 269 100 l 25
 231 100 l 25x40a0
 231 0 l 25
 156 0 l 29x80a0
194 700 m 25x2a40
 194 800 l 25
 306 800 l 25x1240
 306 700 l 25
 381 700 l 25
 381 600 l 25x0a48
 419 600 l 25
 419 500 l 25x0810
 456 500 l 25
 456 300 l 25x2808
 494 300 l 25x2804
 494 100 l 25x4004
 381 100 l 25
 381 200 l 25x4008
 419 200 l 25x4004
 419 300 l 25x2004
 381 300 l 25
 381 500 l 25x2008
 344 500 l 25
 344 600 l 25
 156 600 l 25
 156 500 l 25x2910
 119 500 l 25
 119 300 l 25x2a
 81 300 l 25x2c
 81 200 l 25x44
 119 200 l 25
 119 100 l 25x42
 6 100 l 25x44
 6 300 l 25x24
 44 300 l 25
 44 500 l 25x22
 81 500 l 25
 81 600 l 25x29
 119 600 l 25
 119 700 l 25
 194 700 l 25x2a40
EndSplineSet
Validated: 1
EndChar

StartChar: u1F517
Encoding: 128279 128279 307
Width: 450
Flags: W
HStem: -100 100<212 475> 200 100<25 138> 400 100<362 475> 700 100<25 288>
VStem: -50 75<300 700> 138 74<0 200> 288 74<500 700> 475 75<0 400>
LayerCount: 2
Back
Fore
SplineSet
362 400 m 29
 362 300 l 25
 325 300 l 25
 325 200 l 25
 212 200 l 25
 212 0 l 25
 475 0 l 25
 475 400 l 25
 362 400 l 29
25 700 m 25
 25 300 l 25
 138 300 l 25
 138 400 l 25
 175 400 l 25
 175 500 l 25
 288 500 l 25
 288 700 l 25
 25 700 l 25
-12 700 m 25
 -12 800 l 25
 325 800 l 25
 325 700 l 25
 362 700 l 25
 362 500 l 25
 512 500 l 25
 512 400 l 25
 550 400 l 25
 550 0 l 25
 512 0 l 25
 512 -100 l 25
 175 -100 l 25
 175 0 l 25
 138 0 l 25
 138 200 l 25
 -12 200 l 25
 -12 300 l 25
 -50 300 l 25
 -50 700 l 25
 -12 700 l 25
EndSplineSet
Validated: 1
EndChar

